%TF.GenerationSoftware,KiCad,Pcbnew,8.0.7*%
%TF.CreationDate,2025-01-01T17:11:47-08:00*%
%TF.ProjectId,PMW3360,504d5733-3336-4302-9e6b-696361645f70,rev?*%
%TF.SameCoordinates,Original*%
%TF.FileFunction,Copper,L1,Top*%
%TF.FilePolarity,Positive*%
%FSLAX46Y46*%
G04 Gerber Fmt 4.6, Leading zero omitted, Abs format (unit mm)*
G04 Created by KiCad (PCBNEW 8.0.7) date 2025-01-01 17:11:47*
%MOMM*%
%LPD*%
G01*
G04 APERTURE LIST*
G04 Aperture macros list*
%AMRoundRect*
0 Rectangle with rounded corners*
0 $1 Rounding radius*
0 $2 $3 $4 $5 $6 $7 $8 $9 X,Y pos of 4 corners*
0 Add a 4 corners polygon primitive as box body*
4,1,4,$2,$3,$4,$5,$6,$7,$8,$9,$2,$3,0*
0 Add four circle primitives for the rounded corners*
1,1,$1+$1,$2,$3*
1,1,$1+$1,$4,$5*
1,1,$1+$1,$6,$7*
1,1,$1+$1,$8,$9*
0 Add four rect primitives between the rounded corners*
20,1,$1+$1,$2,$3,$4,$5,0*
20,1,$1+$1,$4,$5,$6,$7,0*
20,1,$1+$1,$6,$7,$8,$9,0*
20,1,$1+$1,$8,$9,$2,$3,0*%
G04 Aperture macros list end*
%ADD10C,0.100000*%
%ADD11C,0.150000*%
%ADD12C,0.300000*%
%ADD13C,0.400000*%
%TA.AperFunction,SMDPad,CuDef*%
%ADD14RoundRect,0.150000X0.625000X-0.150000X0.625000X0.150000X-0.625000X0.150000X-0.625000X-0.150000X0*%
%TD*%
%TA.AperFunction,SMDPad,CuDef*%
%ADD15RoundRect,0.250000X0.650000X-0.350000X0.650000X0.350000X-0.650000X0.350000X-0.650000X-0.350000X0*%
%TD*%
%TA.AperFunction,SMDPad,CuDef*%
%ADD16RoundRect,0.200000X-0.275000X0.200000X-0.275000X-0.200000X0.275000X-0.200000X0.275000X0.200000X0*%
%TD*%
%TA.AperFunction,ComponentPad*%
%ADD17R,1.200000X1.200000*%
%TD*%
%TA.AperFunction,ComponentPad*%
%ADD18C,1.200000*%
%TD*%
%TA.AperFunction,SMDPad,CuDef*%
%ADD19RoundRect,0.225000X-0.225000X-0.250000X0.225000X-0.250000X0.225000X0.250000X-0.225000X0.250000X0*%
%TD*%
%TA.AperFunction,SMDPad,CuDef*%
%ADD20RoundRect,0.150000X0.512500X0.150000X-0.512500X0.150000X-0.512500X-0.150000X0.512500X-0.150000X0*%
%TD*%
%TA.AperFunction,SMDPad,CuDef*%
%ADD21RoundRect,0.225000X0.225000X0.250000X-0.225000X0.250000X-0.225000X-0.250000X0.225000X-0.250000X0*%
%TD*%
%TA.AperFunction,ViaPad*%
%ADD22C,0.800000*%
%TD*%
%TA.AperFunction,Conductor*%
%ADD23C,0.250000*%
%TD*%
%TA.AperFunction,Conductor*%
%ADD24C,0.375000*%
%TD*%
G04 APERTURE END LIST*
D10*
D11*
X177002200Y-166007200D02*
X285002200Y-166007200D01*
X285002200Y-198007200D01*
X177002200Y-198007200D01*
X177002200Y-166007200D01*
D10*
D11*
X10000000Y-10000000D02*
X287002200Y-10000000D01*
X287002200Y-200007200D01*
X10000000Y-200007200D01*
X10000000Y-10000000D01*
D10*
D11*
X12000000Y-12000000D02*
X285002200Y-12000000D01*
X285002200Y-198007200D01*
X12000000Y-198007200D01*
X12000000Y-12000000D01*
D10*
D11*
X60000000Y-12000000D02*
X60000000Y-10000000D01*
D10*
D11*
X110000000Y-12000000D02*
X110000000Y-10000000D01*
D10*
D11*
X160000000Y-12000000D02*
X160000000Y-10000000D01*
D10*
D11*
X210000000Y-12000000D02*
X210000000Y-10000000D01*
D10*
D11*
X260000000Y-12000000D02*
X260000000Y-10000000D01*
D10*
D11*
X36089160Y-11593604D02*
X35346303Y-11593604D01*
X35717731Y-11593604D02*
X35717731Y-10293604D01*
X35717731Y-10293604D02*
X35593922Y-10479319D01*
X35593922Y-10479319D02*
X35470112Y-10603128D01*
X35470112Y-10603128D02*
X35346303Y-10665033D01*
D10*
D11*
X85346303Y-10417414D02*
X85408207Y-10355509D01*
X85408207Y-10355509D02*
X85532017Y-10293604D01*
X85532017Y-10293604D02*
X85841541Y-10293604D01*
X85841541Y-10293604D02*
X85965350Y-10355509D01*
X85965350Y-10355509D02*
X86027255Y-10417414D01*
X86027255Y-10417414D02*
X86089160Y-10541223D01*
X86089160Y-10541223D02*
X86089160Y-10665033D01*
X86089160Y-10665033D02*
X86027255Y-10850747D01*
X86027255Y-10850747D02*
X85284398Y-11593604D01*
X85284398Y-11593604D02*
X86089160Y-11593604D01*
D10*
D11*
X135284398Y-10293604D02*
X136089160Y-10293604D01*
X136089160Y-10293604D02*
X135655826Y-10788842D01*
X135655826Y-10788842D02*
X135841541Y-10788842D01*
X135841541Y-10788842D02*
X135965350Y-10850747D01*
X135965350Y-10850747D02*
X136027255Y-10912652D01*
X136027255Y-10912652D02*
X136089160Y-11036461D01*
X136089160Y-11036461D02*
X136089160Y-11345985D01*
X136089160Y-11345985D02*
X136027255Y-11469795D01*
X136027255Y-11469795D02*
X135965350Y-11531700D01*
X135965350Y-11531700D02*
X135841541Y-11593604D01*
X135841541Y-11593604D02*
X135470112Y-11593604D01*
X135470112Y-11593604D02*
X135346303Y-11531700D01*
X135346303Y-11531700D02*
X135284398Y-11469795D01*
D10*
D11*
X185965350Y-10726938D02*
X185965350Y-11593604D01*
X185655826Y-10231700D02*
X185346303Y-11160271D01*
X185346303Y-11160271D02*
X186151064Y-11160271D01*
D10*
D11*
X236027255Y-10293604D02*
X235408207Y-10293604D01*
X235408207Y-10293604D02*
X235346303Y-10912652D01*
X235346303Y-10912652D02*
X235408207Y-10850747D01*
X235408207Y-10850747D02*
X235532017Y-10788842D01*
X235532017Y-10788842D02*
X235841541Y-10788842D01*
X235841541Y-10788842D02*
X235965350Y-10850747D01*
X235965350Y-10850747D02*
X236027255Y-10912652D01*
X236027255Y-10912652D02*
X236089160Y-11036461D01*
X236089160Y-11036461D02*
X236089160Y-11345985D01*
X236089160Y-11345985D02*
X236027255Y-11469795D01*
X236027255Y-11469795D02*
X235965350Y-11531700D01*
X235965350Y-11531700D02*
X235841541Y-11593604D01*
X235841541Y-11593604D02*
X235532017Y-11593604D01*
X235532017Y-11593604D02*
X235408207Y-11531700D01*
X235408207Y-11531700D02*
X235346303Y-11469795D01*
D10*
D11*
X285965350Y-10293604D02*
X285717731Y-10293604D01*
X285717731Y-10293604D02*
X285593922Y-10355509D01*
X285593922Y-10355509D02*
X285532017Y-10417414D01*
X285532017Y-10417414D02*
X285408207Y-10603128D01*
X285408207Y-10603128D02*
X285346303Y-10850747D01*
X285346303Y-10850747D02*
X285346303Y-11345985D01*
X285346303Y-11345985D02*
X285408207Y-11469795D01*
X285408207Y-11469795D02*
X285470112Y-11531700D01*
X285470112Y-11531700D02*
X285593922Y-11593604D01*
X285593922Y-11593604D02*
X285841541Y-11593604D01*
X285841541Y-11593604D02*
X285965350Y-11531700D01*
X285965350Y-11531700D02*
X286027255Y-11469795D01*
X286027255Y-11469795D02*
X286089160Y-11345985D01*
X286089160Y-11345985D02*
X286089160Y-11036461D01*
X286089160Y-11036461D02*
X286027255Y-10912652D01*
X286027255Y-10912652D02*
X285965350Y-10850747D01*
X285965350Y-10850747D02*
X285841541Y-10788842D01*
X285841541Y-10788842D02*
X285593922Y-10788842D01*
X285593922Y-10788842D02*
X285470112Y-10850747D01*
X285470112Y-10850747D02*
X285408207Y-10912652D01*
X285408207Y-10912652D02*
X285346303Y-11036461D01*
D10*
D11*
X60000000Y-198007200D02*
X60000000Y-200007200D01*
D10*
D11*
X110000000Y-198007200D02*
X110000000Y-200007200D01*
D10*
D11*
X160000000Y-198007200D02*
X160000000Y-200007200D01*
D10*
D11*
X210000000Y-198007200D02*
X210000000Y-200007200D01*
D10*
D11*
X260000000Y-198007200D02*
X260000000Y-200007200D01*
D10*
D11*
X36089160Y-199600804D02*
X35346303Y-199600804D01*
X35717731Y-199600804D02*
X35717731Y-198300804D01*
X35717731Y-198300804D02*
X35593922Y-198486519D01*
X35593922Y-198486519D02*
X35470112Y-198610328D01*
X35470112Y-198610328D02*
X35346303Y-198672233D01*
D10*
D11*
X85346303Y-198424614D02*
X85408207Y-198362709D01*
X85408207Y-198362709D02*
X85532017Y-198300804D01*
X85532017Y-198300804D02*
X85841541Y-198300804D01*
X85841541Y-198300804D02*
X85965350Y-198362709D01*
X85965350Y-198362709D02*
X86027255Y-198424614D01*
X86027255Y-198424614D02*
X86089160Y-198548423D01*
X86089160Y-198548423D02*
X86089160Y-198672233D01*
X86089160Y-198672233D02*
X86027255Y-198857947D01*
X86027255Y-198857947D02*
X85284398Y-199600804D01*
X85284398Y-199600804D02*
X86089160Y-199600804D01*
D10*
D11*
X135284398Y-198300804D02*
X136089160Y-198300804D01*
X136089160Y-198300804D02*
X135655826Y-198796042D01*
X135655826Y-198796042D02*
X135841541Y-198796042D01*
X135841541Y-198796042D02*
X135965350Y-198857947D01*
X135965350Y-198857947D02*
X136027255Y-198919852D01*
X136027255Y-198919852D02*
X136089160Y-199043661D01*
X136089160Y-199043661D02*
X136089160Y-199353185D01*
X136089160Y-199353185D02*
X136027255Y-199476995D01*
X136027255Y-199476995D02*
X135965350Y-199538900D01*
X135965350Y-199538900D02*
X135841541Y-199600804D01*
X135841541Y-199600804D02*
X135470112Y-199600804D01*
X135470112Y-199600804D02*
X135346303Y-199538900D01*
X135346303Y-199538900D02*
X135284398Y-199476995D01*
D10*
D11*
X185965350Y-198734138D02*
X185965350Y-199600804D01*
X185655826Y-198238900D02*
X185346303Y-199167471D01*
X185346303Y-199167471D02*
X186151064Y-199167471D01*
D10*
D11*
X236027255Y-198300804D02*
X235408207Y-198300804D01*
X235408207Y-198300804D02*
X235346303Y-198919852D01*
X235346303Y-198919852D02*
X235408207Y-198857947D01*
X235408207Y-198857947D02*
X235532017Y-198796042D01*
X235532017Y-198796042D02*
X235841541Y-198796042D01*
X235841541Y-198796042D02*
X235965350Y-198857947D01*
X235965350Y-198857947D02*
X236027255Y-198919852D01*
X236027255Y-198919852D02*
X236089160Y-199043661D01*
X236089160Y-199043661D02*
X236089160Y-199353185D01*
X236089160Y-199353185D02*
X236027255Y-199476995D01*
X236027255Y-199476995D02*
X235965350Y-199538900D01*
X235965350Y-199538900D02*
X235841541Y-199600804D01*
X235841541Y-199600804D02*
X235532017Y-199600804D01*
X235532017Y-199600804D02*
X235408207Y-199538900D01*
X235408207Y-199538900D02*
X235346303Y-199476995D01*
D10*
D11*
X285965350Y-198300804D02*
X285717731Y-198300804D01*
X285717731Y-198300804D02*
X285593922Y-198362709D01*
X285593922Y-198362709D02*
X285532017Y-198424614D01*
X285532017Y-198424614D02*
X285408207Y-198610328D01*
X285408207Y-198610328D02*
X285346303Y-198857947D01*
X285346303Y-198857947D02*
X285346303Y-199353185D01*
X285346303Y-199353185D02*
X285408207Y-199476995D01*
X285408207Y-199476995D02*
X285470112Y-199538900D01*
X285470112Y-199538900D02*
X285593922Y-199600804D01*
X285593922Y-199600804D02*
X285841541Y-199600804D01*
X285841541Y-199600804D02*
X285965350Y-199538900D01*
X285965350Y-199538900D02*
X286027255Y-199476995D01*
X286027255Y-199476995D02*
X286089160Y-199353185D01*
X286089160Y-199353185D02*
X286089160Y-199043661D01*
X286089160Y-199043661D02*
X286027255Y-198919852D01*
X286027255Y-198919852D02*
X285965350Y-198857947D01*
X285965350Y-198857947D02*
X285841541Y-198796042D01*
X285841541Y-198796042D02*
X285593922Y-198796042D01*
X285593922Y-198796042D02*
X285470112Y-198857947D01*
X285470112Y-198857947D02*
X285408207Y-198919852D01*
X285408207Y-198919852D02*
X285346303Y-199043661D01*
D10*
D11*
X10000000Y-60000000D02*
X12000000Y-60000000D01*
D10*
D11*
X10000000Y-110000000D02*
X12000000Y-110000000D01*
D10*
D11*
X10000000Y-160000000D02*
X12000000Y-160000000D01*
D10*
D11*
X10690476Y-35222176D02*
X11309523Y-35222176D01*
X10566666Y-35593604D02*
X10999999Y-34293604D01*
X10999999Y-34293604D02*
X11433333Y-35593604D01*
D10*
D11*
X11092857Y-84912652D02*
X11278571Y-84974557D01*
X11278571Y-84974557D02*
X11340476Y-85036461D01*
X11340476Y-85036461D02*
X11402380Y-85160271D01*
X11402380Y-85160271D02*
X11402380Y-85345985D01*
X11402380Y-85345985D02*
X11340476Y-85469795D01*
X11340476Y-85469795D02*
X11278571Y-85531700D01*
X11278571Y-85531700D02*
X11154761Y-85593604D01*
X11154761Y-85593604D02*
X10659523Y-85593604D01*
X10659523Y-85593604D02*
X10659523Y-84293604D01*
X10659523Y-84293604D02*
X11092857Y-84293604D01*
X11092857Y-84293604D02*
X11216666Y-84355509D01*
X11216666Y-84355509D02*
X11278571Y-84417414D01*
X11278571Y-84417414D02*
X11340476Y-84541223D01*
X11340476Y-84541223D02*
X11340476Y-84665033D01*
X11340476Y-84665033D02*
X11278571Y-84788842D01*
X11278571Y-84788842D02*
X11216666Y-84850747D01*
X11216666Y-84850747D02*
X11092857Y-84912652D01*
X11092857Y-84912652D02*
X10659523Y-84912652D01*
D10*
D11*
X11402380Y-135469795D02*
X11340476Y-135531700D01*
X11340476Y-135531700D02*
X11154761Y-135593604D01*
X11154761Y-135593604D02*
X11030952Y-135593604D01*
X11030952Y-135593604D02*
X10845238Y-135531700D01*
X10845238Y-135531700D02*
X10721428Y-135407890D01*
X10721428Y-135407890D02*
X10659523Y-135284080D01*
X10659523Y-135284080D02*
X10597619Y-135036461D01*
X10597619Y-135036461D02*
X10597619Y-134850747D01*
X10597619Y-134850747D02*
X10659523Y-134603128D01*
X10659523Y-134603128D02*
X10721428Y-134479319D01*
X10721428Y-134479319D02*
X10845238Y-134355509D01*
X10845238Y-134355509D02*
X11030952Y-134293604D01*
X11030952Y-134293604D02*
X11154761Y-134293604D01*
X11154761Y-134293604D02*
X11340476Y-134355509D01*
X11340476Y-134355509D02*
X11402380Y-134417414D01*
D10*
D11*
X10659523Y-185593604D02*
X10659523Y-184293604D01*
X10659523Y-184293604D02*
X10969047Y-184293604D01*
X10969047Y-184293604D02*
X11154761Y-184355509D01*
X11154761Y-184355509D02*
X11278571Y-184479319D01*
X11278571Y-184479319D02*
X11340476Y-184603128D01*
X11340476Y-184603128D02*
X11402380Y-184850747D01*
X11402380Y-184850747D02*
X11402380Y-185036461D01*
X11402380Y-185036461D02*
X11340476Y-185284080D01*
X11340476Y-185284080D02*
X11278571Y-185407890D01*
X11278571Y-185407890D02*
X11154761Y-185531700D01*
X11154761Y-185531700D02*
X10969047Y-185593604D01*
X10969047Y-185593604D02*
X10659523Y-185593604D01*
D10*
D11*
X287002200Y-60000000D02*
X285002200Y-60000000D01*
D10*
D11*
X287002200Y-110000000D02*
X285002200Y-110000000D01*
D10*
D11*
X287002200Y-160000000D02*
X285002200Y-160000000D01*
D10*
D11*
X285692676Y-35222176D02*
X286311723Y-35222176D01*
X285568866Y-35593604D02*
X286002199Y-34293604D01*
X286002199Y-34293604D02*
X286435533Y-35593604D01*
D10*
D11*
X286095057Y-84912652D02*
X286280771Y-84974557D01*
X286280771Y-84974557D02*
X286342676Y-85036461D01*
X286342676Y-85036461D02*
X286404580Y-85160271D01*
X286404580Y-85160271D02*
X286404580Y-85345985D01*
X286404580Y-85345985D02*
X286342676Y-85469795D01*
X286342676Y-85469795D02*
X286280771Y-85531700D01*
X286280771Y-85531700D02*
X286156961Y-85593604D01*
X286156961Y-85593604D02*
X285661723Y-85593604D01*
X285661723Y-85593604D02*
X285661723Y-84293604D01*
X285661723Y-84293604D02*
X286095057Y-84293604D01*
X286095057Y-84293604D02*
X286218866Y-84355509D01*
X286218866Y-84355509D02*
X286280771Y-84417414D01*
X286280771Y-84417414D02*
X286342676Y-84541223D01*
X286342676Y-84541223D02*
X286342676Y-84665033D01*
X286342676Y-84665033D02*
X286280771Y-84788842D01*
X286280771Y-84788842D02*
X286218866Y-84850747D01*
X286218866Y-84850747D02*
X286095057Y-84912652D01*
X286095057Y-84912652D02*
X285661723Y-84912652D01*
D10*
D11*
X286404580Y-135469795D02*
X286342676Y-135531700D01*
X286342676Y-135531700D02*
X286156961Y-135593604D01*
X286156961Y-135593604D02*
X286033152Y-135593604D01*
X286033152Y-135593604D02*
X285847438Y-135531700D01*
X285847438Y-135531700D02*
X285723628Y-135407890D01*
X285723628Y-135407890D02*
X285661723Y-135284080D01*
X285661723Y-135284080D02*
X285599819Y-135036461D01*
X285599819Y-135036461D02*
X285599819Y-134850747D01*
X285599819Y-134850747D02*
X285661723Y-134603128D01*
X285661723Y-134603128D02*
X285723628Y-134479319D01*
X285723628Y-134479319D02*
X285847438Y-134355509D01*
X285847438Y-134355509D02*
X286033152Y-134293604D01*
X286033152Y-134293604D02*
X286156961Y-134293604D01*
X286156961Y-134293604D02*
X286342676Y-134355509D01*
X286342676Y-134355509D02*
X286404580Y-134417414D01*
D10*
D11*
X285661723Y-185593604D02*
X285661723Y-184293604D01*
X285661723Y-184293604D02*
X285971247Y-184293604D01*
X285971247Y-184293604D02*
X286156961Y-184355509D01*
X286156961Y-184355509D02*
X286280771Y-184479319D01*
X286280771Y-184479319D02*
X286342676Y-184603128D01*
X286342676Y-184603128D02*
X286404580Y-184850747D01*
X286404580Y-184850747D02*
X286404580Y-185036461D01*
X286404580Y-185036461D02*
X286342676Y-185284080D01*
X286342676Y-185284080D02*
X286280771Y-185407890D01*
X286280771Y-185407890D02*
X286156961Y-185531700D01*
X286156961Y-185531700D02*
X285971247Y-185593604D01*
X285971247Y-185593604D02*
X285661723Y-185593604D01*
D10*
D11*
X200458026Y-193793328D02*
X200458026Y-192293328D01*
X200458026Y-192293328D02*
X200815169Y-192293328D01*
X200815169Y-192293328D02*
X201029455Y-192364757D01*
X201029455Y-192364757D02*
X201172312Y-192507614D01*
X201172312Y-192507614D02*
X201243741Y-192650471D01*
X201243741Y-192650471D02*
X201315169Y-192936185D01*
X201315169Y-192936185D02*
X201315169Y-193150471D01*
X201315169Y-193150471D02*
X201243741Y-193436185D01*
X201243741Y-193436185D02*
X201172312Y-193579042D01*
X201172312Y-193579042D02*
X201029455Y-193721900D01*
X201029455Y-193721900D02*
X200815169Y-193793328D01*
X200815169Y-193793328D02*
X200458026Y-193793328D01*
X202600884Y-193793328D02*
X202600884Y-193007614D01*
X202600884Y-193007614D02*
X202529455Y-192864757D01*
X202529455Y-192864757D02*
X202386598Y-192793328D01*
X202386598Y-192793328D02*
X202100884Y-192793328D01*
X202100884Y-192793328D02*
X201958026Y-192864757D01*
X202600884Y-193721900D02*
X202458026Y-193793328D01*
X202458026Y-193793328D02*
X202100884Y-193793328D01*
X202100884Y-193793328D02*
X201958026Y-193721900D01*
X201958026Y-193721900D02*
X201886598Y-193579042D01*
X201886598Y-193579042D02*
X201886598Y-193436185D01*
X201886598Y-193436185D02*
X201958026Y-193293328D01*
X201958026Y-193293328D02*
X202100884Y-193221900D01*
X202100884Y-193221900D02*
X202458026Y-193221900D01*
X202458026Y-193221900D02*
X202600884Y-193150471D01*
X203100884Y-192793328D02*
X203672312Y-192793328D01*
X203315169Y-192293328D02*
X203315169Y-193579042D01*
X203315169Y-193579042D02*
X203386598Y-193721900D01*
X203386598Y-193721900D02*
X203529455Y-193793328D01*
X203529455Y-193793328D02*
X203672312Y-193793328D01*
X204743741Y-193721900D02*
X204600884Y-193793328D01*
X204600884Y-193793328D02*
X204315170Y-193793328D01*
X204315170Y-193793328D02*
X204172312Y-193721900D01*
X204172312Y-193721900D02*
X204100884Y-193579042D01*
X204100884Y-193579042D02*
X204100884Y-193007614D01*
X204100884Y-193007614D02*
X204172312Y-192864757D01*
X204172312Y-192864757D02*
X204315170Y-192793328D01*
X204315170Y-192793328D02*
X204600884Y-192793328D01*
X204600884Y-192793328D02*
X204743741Y-192864757D01*
X204743741Y-192864757D02*
X204815170Y-193007614D01*
X204815170Y-193007614D02*
X204815170Y-193150471D01*
X204815170Y-193150471D02*
X204100884Y-193293328D01*
X205458026Y-193650471D02*
X205529455Y-193721900D01*
X205529455Y-193721900D02*
X205458026Y-193793328D01*
X205458026Y-193793328D02*
X205386598Y-193721900D01*
X205386598Y-193721900D02*
X205458026Y-193650471D01*
X205458026Y-193650471D02*
X205458026Y-193793328D01*
X205458026Y-192864757D02*
X205529455Y-192936185D01*
X205529455Y-192936185D02*
X205458026Y-193007614D01*
X205458026Y-193007614D02*
X205386598Y-192936185D01*
X205386598Y-192936185D02*
X205458026Y-192864757D01*
X205458026Y-192864757D02*
X205458026Y-193007614D01*
D10*
D11*
X177002200Y-194507200D02*
X285002200Y-194507200D01*
D10*
D11*
X178458026Y-196593328D02*
X178458026Y-195093328D01*
X179315169Y-196593328D02*
X178672312Y-195736185D01*
X179315169Y-195093328D02*
X178458026Y-195950471D01*
X179958026Y-196593328D02*
X179958026Y-195593328D01*
X179958026Y-195093328D02*
X179886598Y-195164757D01*
X179886598Y-195164757D02*
X179958026Y-195236185D01*
X179958026Y-195236185D02*
X180029455Y-195164757D01*
X180029455Y-195164757D02*
X179958026Y-195093328D01*
X179958026Y-195093328D02*
X179958026Y-195236185D01*
X181529455Y-196450471D02*
X181458027Y-196521900D01*
X181458027Y-196521900D02*
X181243741Y-196593328D01*
X181243741Y-196593328D02*
X181100884Y-196593328D01*
X181100884Y-196593328D02*
X180886598Y-196521900D01*
X180886598Y-196521900D02*
X180743741Y-196379042D01*
X180743741Y-196379042D02*
X180672312Y-196236185D01*
X180672312Y-196236185D02*
X180600884Y-195950471D01*
X180600884Y-195950471D02*
X180600884Y-195736185D01*
X180600884Y-195736185D02*
X180672312Y-195450471D01*
X180672312Y-195450471D02*
X180743741Y-195307614D01*
X180743741Y-195307614D02*
X180886598Y-195164757D01*
X180886598Y-195164757D02*
X181100884Y-195093328D01*
X181100884Y-195093328D02*
X181243741Y-195093328D01*
X181243741Y-195093328D02*
X181458027Y-195164757D01*
X181458027Y-195164757D02*
X181529455Y-195236185D01*
X182815170Y-196593328D02*
X182815170Y-195807614D01*
X182815170Y-195807614D02*
X182743741Y-195664757D01*
X182743741Y-195664757D02*
X182600884Y-195593328D01*
X182600884Y-195593328D02*
X182315170Y-195593328D01*
X182315170Y-195593328D02*
X182172312Y-195664757D01*
X182815170Y-196521900D02*
X182672312Y-196593328D01*
X182672312Y-196593328D02*
X182315170Y-196593328D01*
X182315170Y-196593328D02*
X182172312Y-196521900D01*
X182172312Y-196521900D02*
X182100884Y-196379042D01*
X182100884Y-196379042D02*
X182100884Y-196236185D01*
X182100884Y-196236185D02*
X182172312Y-196093328D01*
X182172312Y-196093328D02*
X182315170Y-196021900D01*
X182315170Y-196021900D02*
X182672312Y-196021900D01*
X182672312Y-196021900D02*
X182815170Y-195950471D01*
X184172313Y-196593328D02*
X184172313Y-195093328D01*
X184172313Y-196521900D02*
X184029455Y-196593328D01*
X184029455Y-196593328D02*
X183743741Y-196593328D01*
X183743741Y-196593328D02*
X183600884Y-196521900D01*
X183600884Y-196521900D02*
X183529455Y-196450471D01*
X183529455Y-196450471D02*
X183458027Y-196307614D01*
X183458027Y-196307614D02*
X183458027Y-195879042D01*
X183458027Y-195879042D02*
X183529455Y-195736185D01*
X183529455Y-195736185D02*
X183600884Y-195664757D01*
X183600884Y-195664757D02*
X183743741Y-195593328D01*
X183743741Y-195593328D02*
X184029455Y-195593328D01*
X184029455Y-195593328D02*
X184172313Y-195664757D01*
X186029455Y-195807614D02*
X186529455Y-195807614D01*
X186743741Y-196593328D02*
X186029455Y-196593328D01*
X186029455Y-196593328D02*
X186029455Y-195093328D01*
X186029455Y-195093328D02*
X186743741Y-195093328D01*
X187386598Y-196450471D02*
X187458027Y-196521900D01*
X187458027Y-196521900D02*
X187386598Y-196593328D01*
X187386598Y-196593328D02*
X187315170Y-196521900D01*
X187315170Y-196521900D02*
X187386598Y-196450471D01*
X187386598Y-196450471D02*
X187386598Y-196593328D01*
X188100884Y-196593328D02*
X188100884Y-195093328D01*
X188100884Y-195093328D02*
X188458027Y-195093328D01*
X188458027Y-195093328D02*
X188672313Y-195164757D01*
X188672313Y-195164757D02*
X188815170Y-195307614D01*
X188815170Y-195307614D02*
X188886599Y-195450471D01*
X188886599Y-195450471D02*
X188958027Y-195736185D01*
X188958027Y-195736185D02*
X188958027Y-195950471D01*
X188958027Y-195950471D02*
X188886599Y-196236185D01*
X188886599Y-196236185D02*
X188815170Y-196379042D01*
X188815170Y-196379042D02*
X188672313Y-196521900D01*
X188672313Y-196521900D02*
X188458027Y-196593328D01*
X188458027Y-196593328D02*
X188100884Y-196593328D01*
X189600884Y-196450471D02*
X189672313Y-196521900D01*
X189672313Y-196521900D02*
X189600884Y-196593328D01*
X189600884Y-196593328D02*
X189529456Y-196521900D01*
X189529456Y-196521900D02*
X189600884Y-196450471D01*
X189600884Y-196450471D02*
X189600884Y-196593328D01*
X190243742Y-196164757D02*
X190958028Y-196164757D01*
X190100885Y-196593328D02*
X190600885Y-195093328D01*
X190600885Y-195093328D02*
X191100885Y-196593328D01*
X191600884Y-196450471D02*
X191672313Y-196521900D01*
X191672313Y-196521900D02*
X191600884Y-196593328D01*
X191600884Y-196593328D02*
X191529456Y-196521900D01*
X191529456Y-196521900D02*
X191600884Y-196450471D01*
X191600884Y-196450471D02*
X191600884Y-196593328D01*
X193672313Y-195736185D02*
X193529456Y-195664757D01*
X193529456Y-195664757D02*
X193458027Y-195593328D01*
X193458027Y-195593328D02*
X193386599Y-195450471D01*
X193386599Y-195450471D02*
X193386599Y-195379042D01*
X193386599Y-195379042D02*
X193458027Y-195236185D01*
X193458027Y-195236185D02*
X193529456Y-195164757D01*
X193529456Y-195164757D02*
X193672313Y-195093328D01*
X193672313Y-195093328D02*
X193958027Y-195093328D01*
X193958027Y-195093328D02*
X194100885Y-195164757D01*
X194100885Y-195164757D02*
X194172313Y-195236185D01*
X194172313Y-195236185D02*
X194243742Y-195379042D01*
X194243742Y-195379042D02*
X194243742Y-195450471D01*
X194243742Y-195450471D02*
X194172313Y-195593328D01*
X194172313Y-195593328D02*
X194100885Y-195664757D01*
X194100885Y-195664757D02*
X193958027Y-195736185D01*
X193958027Y-195736185D02*
X193672313Y-195736185D01*
X193672313Y-195736185D02*
X193529456Y-195807614D01*
X193529456Y-195807614D02*
X193458027Y-195879042D01*
X193458027Y-195879042D02*
X193386599Y-196021900D01*
X193386599Y-196021900D02*
X193386599Y-196307614D01*
X193386599Y-196307614D02*
X193458027Y-196450471D01*
X193458027Y-196450471D02*
X193529456Y-196521900D01*
X193529456Y-196521900D02*
X193672313Y-196593328D01*
X193672313Y-196593328D02*
X193958027Y-196593328D01*
X193958027Y-196593328D02*
X194100885Y-196521900D01*
X194100885Y-196521900D02*
X194172313Y-196450471D01*
X194172313Y-196450471D02*
X194243742Y-196307614D01*
X194243742Y-196307614D02*
X194243742Y-196021900D01*
X194243742Y-196021900D02*
X194172313Y-195879042D01*
X194172313Y-195879042D02*
X194100885Y-195807614D01*
X194100885Y-195807614D02*
X193958027Y-195736185D01*
X194886598Y-196450471D02*
X194958027Y-196521900D01*
X194958027Y-196521900D02*
X194886598Y-196593328D01*
X194886598Y-196593328D02*
X194815170Y-196521900D01*
X194815170Y-196521900D02*
X194886598Y-196450471D01*
X194886598Y-196450471D02*
X194886598Y-196593328D01*
X195886599Y-195093328D02*
X196029456Y-195093328D01*
X196029456Y-195093328D02*
X196172313Y-195164757D01*
X196172313Y-195164757D02*
X196243742Y-195236185D01*
X196243742Y-195236185D02*
X196315170Y-195379042D01*
X196315170Y-195379042D02*
X196386599Y-195664757D01*
X196386599Y-195664757D02*
X196386599Y-196021900D01*
X196386599Y-196021900D02*
X196315170Y-196307614D01*
X196315170Y-196307614D02*
X196243742Y-196450471D01*
X196243742Y-196450471D02*
X196172313Y-196521900D01*
X196172313Y-196521900D02*
X196029456Y-196593328D01*
X196029456Y-196593328D02*
X195886599Y-196593328D01*
X195886599Y-196593328D02*
X195743742Y-196521900D01*
X195743742Y-196521900D02*
X195672313Y-196450471D01*
X195672313Y-196450471D02*
X195600884Y-196307614D01*
X195600884Y-196307614D02*
X195529456Y-196021900D01*
X195529456Y-196021900D02*
X195529456Y-195664757D01*
X195529456Y-195664757D02*
X195600884Y-195379042D01*
X195600884Y-195379042D02*
X195672313Y-195236185D01*
X195672313Y-195236185D02*
X195743742Y-195164757D01*
X195743742Y-195164757D02*
X195886599Y-195093328D01*
X197029455Y-196450471D02*
X197100884Y-196521900D01*
X197100884Y-196521900D02*
X197029455Y-196593328D01*
X197029455Y-196593328D02*
X196958027Y-196521900D01*
X196958027Y-196521900D02*
X197029455Y-196450471D01*
X197029455Y-196450471D02*
X197029455Y-196593328D01*
X197600884Y-195093328D02*
X198600884Y-195093328D01*
X198600884Y-195093328D02*
X197958027Y-196593328D01*
D10*
D11*
X177002200Y-191507200D02*
X285002200Y-191507200D01*
D10*
D12*
X264413853Y-193785528D02*
X263913853Y-193071242D01*
X263556710Y-193785528D02*
X263556710Y-192285528D01*
X263556710Y-192285528D02*
X264128139Y-192285528D01*
X264128139Y-192285528D02*
X264270996Y-192356957D01*
X264270996Y-192356957D02*
X264342425Y-192428385D01*
X264342425Y-192428385D02*
X264413853Y-192571242D01*
X264413853Y-192571242D02*
X264413853Y-192785528D01*
X264413853Y-192785528D02*
X264342425Y-192928385D01*
X264342425Y-192928385D02*
X264270996Y-192999814D01*
X264270996Y-192999814D02*
X264128139Y-193071242D01*
X264128139Y-193071242D02*
X263556710Y-193071242D01*
X265628139Y-193714100D02*
X265485282Y-193785528D01*
X265485282Y-193785528D02*
X265199568Y-193785528D01*
X265199568Y-193785528D02*
X265056710Y-193714100D01*
X265056710Y-193714100D02*
X264985282Y-193571242D01*
X264985282Y-193571242D02*
X264985282Y-192999814D01*
X264985282Y-192999814D02*
X265056710Y-192856957D01*
X265056710Y-192856957D02*
X265199568Y-192785528D01*
X265199568Y-192785528D02*
X265485282Y-192785528D01*
X265485282Y-192785528D02*
X265628139Y-192856957D01*
X265628139Y-192856957D02*
X265699568Y-192999814D01*
X265699568Y-192999814D02*
X265699568Y-193142671D01*
X265699568Y-193142671D02*
X264985282Y-193285528D01*
X266199567Y-192785528D02*
X266556710Y-193785528D01*
X266556710Y-193785528D02*
X266913853Y-192785528D01*
X267485281Y-193642671D02*
X267556710Y-193714100D01*
X267556710Y-193714100D02*
X267485281Y-193785528D01*
X267485281Y-193785528D02*
X267413853Y-193714100D01*
X267413853Y-193714100D02*
X267485281Y-193642671D01*
X267485281Y-193642671D02*
X267485281Y-193785528D01*
X267485281Y-192856957D02*
X267556710Y-192928385D01*
X267556710Y-192928385D02*
X267485281Y-192999814D01*
X267485281Y-192999814D02*
X267413853Y-192928385D01*
X267413853Y-192928385D02*
X267485281Y-192856957D01*
X267485281Y-192856957D02*
X267485281Y-192999814D01*
D10*
D11*
X178386598Y-193721900D02*
X178600884Y-193793328D01*
X178600884Y-193793328D02*
X178958026Y-193793328D01*
X178958026Y-193793328D02*
X179100884Y-193721900D01*
X179100884Y-193721900D02*
X179172312Y-193650471D01*
X179172312Y-193650471D02*
X179243741Y-193507614D01*
X179243741Y-193507614D02*
X179243741Y-193364757D01*
X179243741Y-193364757D02*
X179172312Y-193221900D01*
X179172312Y-193221900D02*
X179100884Y-193150471D01*
X179100884Y-193150471D02*
X178958026Y-193079042D01*
X178958026Y-193079042D02*
X178672312Y-193007614D01*
X178672312Y-193007614D02*
X178529455Y-192936185D01*
X178529455Y-192936185D02*
X178458026Y-192864757D01*
X178458026Y-192864757D02*
X178386598Y-192721900D01*
X178386598Y-192721900D02*
X178386598Y-192579042D01*
X178386598Y-192579042D02*
X178458026Y-192436185D01*
X178458026Y-192436185D02*
X178529455Y-192364757D01*
X178529455Y-192364757D02*
X178672312Y-192293328D01*
X178672312Y-192293328D02*
X179029455Y-192293328D01*
X179029455Y-192293328D02*
X179243741Y-192364757D01*
X179886597Y-193793328D02*
X179886597Y-192793328D01*
X179886597Y-192293328D02*
X179815169Y-192364757D01*
X179815169Y-192364757D02*
X179886597Y-192436185D01*
X179886597Y-192436185D02*
X179958026Y-192364757D01*
X179958026Y-192364757D02*
X179886597Y-192293328D01*
X179886597Y-192293328D02*
X179886597Y-192436185D01*
X180458026Y-192793328D02*
X181243741Y-192793328D01*
X181243741Y-192793328D02*
X180458026Y-193793328D01*
X180458026Y-193793328D02*
X181243741Y-193793328D01*
X182386598Y-193721900D02*
X182243741Y-193793328D01*
X182243741Y-193793328D02*
X181958027Y-193793328D01*
X181958027Y-193793328D02*
X181815169Y-193721900D01*
X181815169Y-193721900D02*
X181743741Y-193579042D01*
X181743741Y-193579042D02*
X181743741Y-193007614D01*
X181743741Y-193007614D02*
X181815169Y-192864757D01*
X181815169Y-192864757D02*
X181958027Y-192793328D01*
X181958027Y-192793328D02*
X182243741Y-192793328D01*
X182243741Y-192793328D02*
X182386598Y-192864757D01*
X182386598Y-192864757D02*
X182458027Y-193007614D01*
X182458027Y-193007614D02*
X182458027Y-193150471D01*
X182458027Y-193150471D02*
X181743741Y-193293328D01*
X183100883Y-193650471D02*
X183172312Y-193721900D01*
X183172312Y-193721900D02*
X183100883Y-193793328D01*
X183100883Y-193793328D02*
X183029455Y-193721900D01*
X183029455Y-193721900D02*
X183100883Y-193650471D01*
X183100883Y-193650471D02*
X183100883Y-193793328D01*
X183100883Y-192864757D02*
X183172312Y-192936185D01*
X183172312Y-192936185D02*
X183100883Y-193007614D01*
X183100883Y-193007614D02*
X183029455Y-192936185D01*
X183029455Y-192936185D02*
X183100883Y-192864757D01*
X183100883Y-192864757D02*
X183100883Y-193007614D01*
X184886598Y-193364757D02*
X185600884Y-193364757D01*
X184743741Y-193793328D02*
X185243741Y-192293328D01*
X185243741Y-192293328D02*
X185743741Y-193793328D01*
X186886598Y-192793328D02*
X186886598Y-193793328D01*
X186529455Y-192221900D02*
X186172312Y-193293328D01*
X186172312Y-193293328D02*
X187100883Y-193293328D01*
D10*
D11*
X263458026Y-196593328D02*
X263458026Y-195093328D01*
X264815170Y-196593328D02*
X264815170Y-195093328D01*
X264815170Y-196521900D02*
X264672312Y-196593328D01*
X264672312Y-196593328D02*
X264386598Y-196593328D01*
X264386598Y-196593328D02*
X264243741Y-196521900D01*
X264243741Y-196521900D02*
X264172312Y-196450471D01*
X264172312Y-196450471D02*
X264100884Y-196307614D01*
X264100884Y-196307614D02*
X264100884Y-195879042D01*
X264100884Y-195879042D02*
X264172312Y-195736185D01*
X264172312Y-195736185D02*
X264243741Y-195664757D01*
X264243741Y-195664757D02*
X264386598Y-195593328D01*
X264386598Y-195593328D02*
X264672312Y-195593328D01*
X264672312Y-195593328D02*
X264815170Y-195664757D01*
X265529455Y-196450471D02*
X265600884Y-196521900D01*
X265600884Y-196521900D02*
X265529455Y-196593328D01*
X265529455Y-196593328D02*
X265458027Y-196521900D01*
X265458027Y-196521900D02*
X265529455Y-196450471D01*
X265529455Y-196450471D02*
X265529455Y-196593328D01*
X265529455Y-195664757D02*
X265600884Y-195736185D01*
X265600884Y-195736185D02*
X265529455Y-195807614D01*
X265529455Y-195807614D02*
X265458027Y-195736185D01*
X265458027Y-195736185D02*
X265529455Y-195664757D01*
X265529455Y-195664757D02*
X265529455Y-195807614D01*
X268172313Y-196593328D02*
X267315170Y-196593328D01*
X267743741Y-196593328D02*
X267743741Y-195093328D01*
X267743741Y-195093328D02*
X267600884Y-195307614D01*
X267600884Y-195307614D02*
X267458027Y-195450471D01*
X267458027Y-195450471D02*
X267315170Y-195521900D01*
X269886598Y-195021900D02*
X268600884Y-196950471D01*
X271172313Y-196593328D02*
X270315170Y-196593328D01*
X270743741Y-196593328D02*
X270743741Y-195093328D01*
X270743741Y-195093328D02*
X270600884Y-195307614D01*
X270600884Y-195307614D02*
X270458027Y-195450471D01*
X270458027Y-195450471D02*
X270315170Y-195521900D01*
D10*
D11*
X177002200Y-187507200D02*
X285002200Y-187507200D01*
D10*
D13*
X178693928Y-188211638D02*
X179836785Y-188211638D01*
X179015357Y-190211638D02*
X179265357Y-188211638D01*
X180253452Y-190211638D02*
X180420119Y-188878304D01*
X180503452Y-188211638D02*
X180396309Y-188306876D01*
X180396309Y-188306876D02*
X180479643Y-188402114D01*
X180479643Y-188402114D02*
X180586786Y-188306876D01*
X180586786Y-188306876D02*
X180503452Y-188211638D01*
X180503452Y-188211638D02*
X180479643Y-188402114D01*
X181086786Y-188878304D02*
X181848690Y-188878304D01*
X181455833Y-188211638D02*
X181241548Y-189925923D01*
X181241548Y-189925923D02*
X181312976Y-190116400D01*
X181312976Y-190116400D02*
X181491548Y-190211638D01*
X181491548Y-190211638D02*
X181682024Y-190211638D01*
X182634405Y-190211638D02*
X182455833Y-190116400D01*
X182455833Y-190116400D02*
X182384405Y-189925923D01*
X182384405Y-189925923D02*
X182598690Y-188211638D01*
X184170119Y-190116400D02*
X183967738Y-190211638D01*
X183967738Y-190211638D02*
X183586785Y-190211638D01*
X183586785Y-190211638D02*
X183408214Y-190116400D01*
X183408214Y-190116400D02*
X183336785Y-189925923D01*
X183336785Y-189925923D02*
X183432024Y-189164019D01*
X183432024Y-189164019D02*
X183551071Y-188973542D01*
X183551071Y-188973542D02*
X183753452Y-188878304D01*
X183753452Y-188878304D02*
X184134404Y-188878304D01*
X184134404Y-188878304D02*
X184312976Y-188973542D01*
X184312976Y-188973542D02*
X184384404Y-189164019D01*
X184384404Y-189164019D02*
X184360595Y-189354495D01*
X184360595Y-189354495D02*
X183384404Y-189544971D01*
X185134405Y-190021161D02*
X185217738Y-190116400D01*
X185217738Y-190116400D02*
X185110595Y-190211638D01*
X185110595Y-190211638D02*
X185027262Y-190116400D01*
X185027262Y-190116400D02*
X185134405Y-190021161D01*
X185134405Y-190021161D02*
X185110595Y-190211638D01*
X185265357Y-188973542D02*
X185348690Y-189068780D01*
X185348690Y-189068780D02*
X185241548Y-189164019D01*
X185241548Y-189164019D02*
X185158214Y-189068780D01*
X185158214Y-189068780D02*
X185265357Y-188973542D01*
X185265357Y-188973542D02*
X185241548Y-189164019D01*
D10*
D11*
X178958026Y-185607614D02*
X178458026Y-185607614D01*
X178458026Y-186393328D02*
X178458026Y-184893328D01*
X178458026Y-184893328D02*
X179172312Y-184893328D01*
X179743740Y-186393328D02*
X179743740Y-185393328D01*
X179743740Y-184893328D02*
X179672312Y-184964757D01*
X179672312Y-184964757D02*
X179743740Y-185036185D01*
X179743740Y-185036185D02*
X179815169Y-184964757D01*
X179815169Y-184964757D02*
X179743740Y-184893328D01*
X179743740Y-184893328D02*
X179743740Y-185036185D01*
X180672312Y-186393328D02*
X180529455Y-186321900D01*
X180529455Y-186321900D02*
X180458026Y-186179042D01*
X180458026Y-186179042D02*
X180458026Y-184893328D01*
X181815169Y-186321900D02*
X181672312Y-186393328D01*
X181672312Y-186393328D02*
X181386598Y-186393328D01*
X181386598Y-186393328D02*
X181243740Y-186321900D01*
X181243740Y-186321900D02*
X181172312Y-186179042D01*
X181172312Y-186179042D02*
X181172312Y-185607614D01*
X181172312Y-185607614D02*
X181243740Y-185464757D01*
X181243740Y-185464757D02*
X181386598Y-185393328D01*
X181386598Y-185393328D02*
X181672312Y-185393328D01*
X181672312Y-185393328D02*
X181815169Y-185464757D01*
X181815169Y-185464757D02*
X181886598Y-185607614D01*
X181886598Y-185607614D02*
X181886598Y-185750471D01*
X181886598Y-185750471D02*
X181172312Y-185893328D01*
X182529454Y-186250471D02*
X182600883Y-186321900D01*
X182600883Y-186321900D02*
X182529454Y-186393328D01*
X182529454Y-186393328D02*
X182458026Y-186321900D01*
X182458026Y-186321900D02*
X182529454Y-186250471D01*
X182529454Y-186250471D02*
X182529454Y-186393328D01*
X182529454Y-185464757D02*
X182600883Y-185536185D01*
X182600883Y-185536185D02*
X182529454Y-185607614D01*
X182529454Y-185607614D02*
X182458026Y-185536185D01*
X182458026Y-185536185D02*
X182529454Y-185464757D01*
X182529454Y-185464757D02*
X182529454Y-185607614D01*
X184386597Y-186393328D02*
X184386597Y-184893328D01*
X184386597Y-184893328D02*
X184958026Y-184893328D01*
X184958026Y-184893328D02*
X185100883Y-184964757D01*
X185100883Y-184964757D02*
X185172312Y-185036185D01*
X185172312Y-185036185D02*
X185243740Y-185179042D01*
X185243740Y-185179042D02*
X185243740Y-185393328D01*
X185243740Y-185393328D02*
X185172312Y-185536185D01*
X185172312Y-185536185D02*
X185100883Y-185607614D01*
X185100883Y-185607614D02*
X184958026Y-185679042D01*
X184958026Y-185679042D02*
X184386597Y-185679042D01*
X185886597Y-186393328D02*
X185886597Y-184893328D01*
X185886597Y-184893328D02*
X186386597Y-185964757D01*
X186386597Y-185964757D02*
X186886597Y-184893328D01*
X186886597Y-184893328D02*
X186886597Y-186393328D01*
X187458026Y-184893328D02*
X187815169Y-186393328D01*
X187815169Y-186393328D02*
X188100883Y-185321900D01*
X188100883Y-185321900D02*
X188386598Y-186393328D01*
X188386598Y-186393328D02*
X188743741Y-184893328D01*
X189172312Y-184893328D02*
X190100884Y-184893328D01*
X190100884Y-184893328D02*
X189600884Y-185464757D01*
X189600884Y-185464757D02*
X189815169Y-185464757D01*
X189815169Y-185464757D02*
X189958027Y-185536185D01*
X189958027Y-185536185D02*
X190029455Y-185607614D01*
X190029455Y-185607614D02*
X190100884Y-185750471D01*
X190100884Y-185750471D02*
X190100884Y-186107614D01*
X190100884Y-186107614D02*
X190029455Y-186250471D01*
X190029455Y-186250471D02*
X189958027Y-186321900D01*
X189958027Y-186321900D02*
X189815169Y-186393328D01*
X189815169Y-186393328D02*
X189386598Y-186393328D01*
X189386598Y-186393328D02*
X189243741Y-186321900D01*
X189243741Y-186321900D02*
X189172312Y-186250471D01*
X190600883Y-184893328D02*
X191529455Y-184893328D01*
X191529455Y-184893328D02*
X191029455Y-185464757D01*
X191029455Y-185464757D02*
X191243740Y-185464757D01*
X191243740Y-185464757D02*
X191386598Y-185536185D01*
X191386598Y-185536185D02*
X191458026Y-185607614D01*
X191458026Y-185607614D02*
X191529455Y-185750471D01*
X191529455Y-185750471D02*
X191529455Y-186107614D01*
X191529455Y-186107614D02*
X191458026Y-186250471D01*
X191458026Y-186250471D02*
X191386598Y-186321900D01*
X191386598Y-186321900D02*
X191243740Y-186393328D01*
X191243740Y-186393328D02*
X190815169Y-186393328D01*
X190815169Y-186393328D02*
X190672312Y-186321900D01*
X190672312Y-186321900D02*
X190600883Y-186250471D01*
X192815169Y-184893328D02*
X192529454Y-184893328D01*
X192529454Y-184893328D02*
X192386597Y-184964757D01*
X192386597Y-184964757D02*
X192315169Y-185036185D01*
X192315169Y-185036185D02*
X192172311Y-185250471D01*
X192172311Y-185250471D02*
X192100883Y-185536185D01*
X192100883Y-185536185D02*
X192100883Y-186107614D01*
X192100883Y-186107614D02*
X192172311Y-186250471D01*
X192172311Y-186250471D02*
X192243740Y-186321900D01*
X192243740Y-186321900D02*
X192386597Y-186393328D01*
X192386597Y-186393328D02*
X192672311Y-186393328D01*
X192672311Y-186393328D02*
X192815169Y-186321900D01*
X192815169Y-186321900D02*
X192886597Y-186250471D01*
X192886597Y-186250471D02*
X192958026Y-186107614D01*
X192958026Y-186107614D02*
X192958026Y-185750471D01*
X192958026Y-185750471D02*
X192886597Y-185607614D01*
X192886597Y-185607614D02*
X192815169Y-185536185D01*
X192815169Y-185536185D02*
X192672311Y-185464757D01*
X192672311Y-185464757D02*
X192386597Y-185464757D01*
X192386597Y-185464757D02*
X192243740Y-185536185D01*
X192243740Y-185536185D02*
X192172311Y-185607614D01*
X192172311Y-185607614D02*
X192100883Y-185750471D01*
X193886597Y-184893328D02*
X194029454Y-184893328D01*
X194029454Y-184893328D02*
X194172311Y-184964757D01*
X194172311Y-184964757D02*
X194243740Y-185036185D01*
X194243740Y-185036185D02*
X194315168Y-185179042D01*
X194315168Y-185179042D02*
X194386597Y-185464757D01*
X194386597Y-185464757D02*
X194386597Y-185821900D01*
X194386597Y-185821900D02*
X194315168Y-186107614D01*
X194315168Y-186107614D02*
X194243740Y-186250471D01*
X194243740Y-186250471D02*
X194172311Y-186321900D01*
X194172311Y-186321900D02*
X194029454Y-186393328D01*
X194029454Y-186393328D02*
X193886597Y-186393328D01*
X193886597Y-186393328D02*
X193743740Y-186321900D01*
X193743740Y-186321900D02*
X193672311Y-186250471D01*
X193672311Y-186250471D02*
X193600882Y-186107614D01*
X193600882Y-186107614D02*
X193529454Y-185821900D01*
X193529454Y-185821900D02*
X193529454Y-185464757D01*
X193529454Y-185464757D02*
X193600882Y-185179042D01*
X193600882Y-185179042D02*
X193672311Y-185036185D01*
X193672311Y-185036185D02*
X193743740Y-184964757D01*
X193743740Y-184964757D02*
X193886597Y-184893328D01*
X195029453Y-186250471D02*
X195100882Y-186321900D01*
X195100882Y-186321900D02*
X195029453Y-186393328D01*
X195029453Y-186393328D02*
X194958025Y-186321900D01*
X194958025Y-186321900D02*
X195029453Y-186250471D01*
X195029453Y-186250471D02*
X195029453Y-186393328D01*
X195743739Y-186393328D02*
X195743739Y-184893328D01*
X195886597Y-185821900D02*
X196315168Y-186393328D01*
X196315168Y-185393328D02*
X195743739Y-185964757D01*
X196958025Y-186393328D02*
X196958025Y-185393328D01*
X196958025Y-184893328D02*
X196886597Y-184964757D01*
X196886597Y-184964757D02*
X196958025Y-185036185D01*
X196958025Y-185036185D02*
X197029454Y-184964757D01*
X197029454Y-184964757D02*
X196958025Y-184893328D01*
X196958025Y-184893328D02*
X196958025Y-185036185D01*
X198315169Y-186321900D02*
X198172311Y-186393328D01*
X198172311Y-186393328D02*
X197886597Y-186393328D01*
X197886597Y-186393328D02*
X197743740Y-186321900D01*
X197743740Y-186321900D02*
X197672311Y-186250471D01*
X197672311Y-186250471D02*
X197600883Y-186107614D01*
X197600883Y-186107614D02*
X197600883Y-185679042D01*
X197600883Y-185679042D02*
X197672311Y-185536185D01*
X197672311Y-185536185D02*
X197743740Y-185464757D01*
X197743740Y-185464757D02*
X197886597Y-185393328D01*
X197886597Y-185393328D02*
X198172311Y-185393328D01*
X198172311Y-185393328D02*
X198315169Y-185464757D01*
X199600883Y-186393328D02*
X199600883Y-185607614D01*
X199600883Y-185607614D02*
X199529454Y-185464757D01*
X199529454Y-185464757D02*
X199386597Y-185393328D01*
X199386597Y-185393328D02*
X199100883Y-185393328D01*
X199100883Y-185393328D02*
X198958025Y-185464757D01*
X199600883Y-186321900D02*
X199458025Y-186393328D01*
X199458025Y-186393328D02*
X199100883Y-186393328D01*
X199100883Y-186393328D02*
X198958025Y-186321900D01*
X198958025Y-186321900D02*
X198886597Y-186179042D01*
X198886597Y-186179042D02*
X198886597Y-186036185D01*
X198886597Y-186036185D02*
X198958025Y-185893328D01*
X198958025Y-185893328D02*
X199100883Y-185821900D01*
X199100883Y-185821900D02*
X199458025Y-185821900D01*
X199458025Y-185821900D02*
X199600883Y-185750471D01*
X200958026Y-186393328D02*
X200958026Y-184893328D01*
X200958026Y-186321900D02*
X200815168Y-186393328D01*
X200815168Y-186393328D02*
X200529454Y-186393328D01*
X200529454Y-186393328D02*
X200386597Y-186321900D01*
X200386597Y-186321900D02*
X200315168Y-186250471D01*
X200315168Y-186250471D02*
X200243740Y-186107614D01*
X200243740Y-186107614D02*
X200243740Y-185679042D01*
X200243740Y-185679042D02*
X200315168Y-185536185D01*
X200315168Y-185536185D02*
X200386597Y-185464757D01*
X200386597Y-185464757D02*
X200529454Y-185393328D01*
X200529454Y-185393328D02*
X200815168Y-185393328D01*
X200815168Y-185393328D02*
X200958026Y-185464757D01*
X201315169Y-186536185D02*
X202458026Y-186536185D01*
X202815168Y-185393328D02*
X202815168Y-186893328D01*
X202815168Y-185464757D02*
X202958026Y-185393328D01*
X202958026Y-185393328D02*
X203243740Y-185393328D01*
X203243740Y-185393328D02*
X203386597Y-185464757D01*
X203386597Y-185464757D02*
X203458026Y-185536185D01*
X203458026Y-185536185D02*
X203529454Y-185679042D01*
X203529454Y-185679042D02*
X203529454Y-186107614D01*
X203529454Y-186107614D02*
X203458026Y-186250471D01*
X203458026Y-186250471D02*
X203386597Y-186321900D01*
X203386597Y-186321900D02*
X203243740Y-186393328D01*
X203243740Y-186393328D02*
X202958026Y-186393328D01*
X202958026Y-186393328D02*
X202815168Y-186321900D01*
X204815169Y-186321900D02*
X204672311Y-186393328D01*
X204672311Y-186393328D02*
X204386597Y-186393328D01*
X204386597Y-186393328D02*
X204243740Y-186321900D01*
X204243740Y-186321900D02*
X204172311Y-186250471D01*
X204172311Y-186250471D02*
X204100883Y-186107614D01*
X204100883Y-186107614D02*
X204100883Y-185679042D01*
X204100883Y-185679042D02*
X204172311Y-185536185D01*
X204172311Y-185536185D02*
X204243740Y-185464757D01*
X204243740Y-185464757D02*
X204386597Y-185393328D01*
X204386597Y-185393328D02*
X204672311Y-185393328D01*
X204672311Y-185393328D02*
X204815169Y-185464757D01*
X205458025Y-186393328D02*
X205458025Y-184893328D01*
X205458025Y-185464757D02*
X205600883Y-185393328D01*
X205600883Y-185393328D02*
X205886597Y-185393328D01*
X205886597Y-185393328D02*
X206029454Y-185464757D01*
X206029454Y-185464757D02*
X206100883Y-185536185D01*
X206100883Y-185536185D02*
X206172311Y-185679042D01*
X206172311Y-185679042D02*
X206172311Y-186107614D01*
X206172311Y-186107614D02*
X206100883Y-186250471D01*
X206100883Y-186250471D02*
X206029454Y-186321900D01*
X206029454Y-186321900D02*
X205886597Y-186393328D01*
X205886597Y-186393328D02*
X205600883Y-186393328D01*
X205600883Y-186393328D02*
X205458025Y-186321900D01*
D10*
D11*
X177002200Y-181507200D02*
X285002200Y-181507200D01*
D10*
D11*
X178386598Y-183621900D02*
X178600884Y-183693328D01*
X178600884Y-183693328D02*
X178958026Y-183693328D01*
X178958026Y-183693328D02*
X179100884Y-183621900D01*
X179100884Y-183621900D02*
X179172312Y-183550471D01*
X179172312Y-183550471D02*
X179243741Y-183407614D01*
X179243741Y-183407614D02*
X179243741Y-183264757D01*
X179243741Y-183264757D02*
X179172312Y-183121900D01*
X179172312Y-183121900D02*
X179100884Y-183050471D01*
X179100884Y-183050471D02*
X178958026Y-182979042D01*
X178958026Y-182979042D02*
X178672312Y-182907614D01*
X178672312Y-182907614D02*
X178529455Y-182836185D01*
X178529455Y-182836185D02*
X178458026Y-182764757D01*
X178458026Y-182764757D02*
X178386598Y-182621900D01*
X178386598Y-182621900D02*
X178386598Y-182479042D01*
X178386598Y-182479042D02*
X178458026Y-182336185D01*
X178458026Y-182336185D02*
X178529455Y-182264757D01*
X178529455Y-182264757D02*
X178672312Y-182193328D01*
X178672312Y-182193328D02*
X179029455Y-182193328D01*
X179029455Y-182193328D02*
X179243741Y-182264757D01*
X179886597Y-183693328D02*
X179886597Y-182193328D01*
X180529455Y-183693328D02*
X180529455Y-182907614D01*
X180529455Y-182907614D02*
X180458026Y-182764757D01*
X180458026Y-182764757D02*
X180315169Y-182693328D01*
X180315169Y-182693328D02*
X180100883Y-182693328D01*
X180100883Y-182693328D02*
X179958026Y-182764757D01*
X179958026Y-182764757D02*
X179886597Y-182836185D01*
X181815169Y-183621900D02*
X181672312Y-183693328D01*
X181672312Y-183693328D02*
X181386598Y-183693328D01*
X181386598Y-183693328D02*
X181243740Y-183621900D01*
X181243740Y-183621900D02*
X181172312Y-183479042D01*
X181172312Y-183479042D02*
X181172312Y-182907614D01*
X181172312Y-182907614D02*
X181243740Y-182764757D01*
X181243740Y-182764757D02*
X181386598Y-182693328D01*
X181386598Y-182693328D02*
X181672312Y-182693328D01*
X181672312Y-182693328D02*
X181815169Y-182764757D01*
X181815169Y-182764757D02*
X181886598Y-182907614D01*
X181886598Y-182907614D02*
X181886598Y-183050471D01*
X181886598Y-183050471D02*
X181172312Y-183193328D01*
X183100883Y-183621900D02*
X182958026Y-183693328D01*
X182958026Y-183693328D02*
X182672312Y-183693328D01*
X182672312Y-183693328D02*
X182529454Y-183621900D01*
X182529454Y-183621900D02*
X182458026Y-183479042D01*
X182458026Y-183479042D02*
X182458026Y-182907614D01*
X182458026Y-182907614D02*
X182529454Y-182764757D01*
X182529454Y-182764757D02*
X182672312Y-182693328D01*
X182672312Y-182693328D02*
X182958026Y-182693328D01*
X182958026Y-182693328D02*
X183100883Y-182764757D01*
X183100883Y-182764757D02*
X183172312Y-182907614D01*
X183172312Y-182907614D02*
X183172312Y-183050471D01*
X183172312Y-183050471D02*
X182458026Y-183193328D01*
X183600883Y-182693328D02*
X184172311Y-182693328D01*
X183815168Y-182193328D02*
X183815168Y-183479042D01*
X183815168Y-183479042D02*
X183886597Y-183621900D01*
X183886597Y-183621900D02*
X184029454Y-183693328D01*
X184029454Y-183693328D02*
X184172311Y-183693328D01*
X184672311Y-183550471D02*
X184743740Y-183621900D01*
X184743740Y-183621900D02*
X184672311Y-183693328D01*
X184672311Y-183693328D02*
X184600883Y-183621900D01*
X184600883Y-183621900D02*
X184672311Y-183550471D01*
X184672311Y-183550471D02*
X184672311Y-183693328D01*
X184672311Y-182764757D02*
X184743740Y-182836185D01*
X184743740Y-182836185D02*
X184672311Y-182907614D01*
X184672311Y-182907614D02*
X184600883Y-182836185D01*
X184600883Y-182836185D02*
X184672311Y-182764757D01*
X184672311Y-182764757D02*
X184672311Y-182907614D01*
D10*
D11*
X197002200Y-191507200D02*
X197002200Y-194507200D01*
D10*
D11*
X261002200Y-191507200D02*
X261002200Y-198007200D01*
D14*
X159425000Y-107910000D03*
X159425000Y-106910000D03*
X159425000Y-105910000D03*
X159425000Y-104910000D03*
X159425000Y-103910000D03*
X159425000Y-102910000D03*
D15*
X156900000Y-109210000D03*
X156900000Y-101610000D03*
D16*
X157000000Y-113585000D03*
X157000000Y-115235000D03*
D17*
X143650000Y-100250000D03*
D18*
X143650000Y-102030000D03*
X143650000Y-103810000D03*
X143650000Y-105590000D03*
X143650000Y-107370000D03*
X143650000Y-109150000D03*
X143650000Y-110930000D03*
X143650000Y-112710000D03*
X154350000Y-113600000D03*
X154350000Y-111820000D03*
X154350000Y-110040000D03*
X154350000Y-108260000D03*
X154350000Y-106480000D03*
X154350000Y-104700000D03*
X154350000Y-102920000D03*
X154350000Y-101140000D03*
D16*
X157000000Y-96885000D03*
X157000000Y-98535000D03*
D19*
X139950000Y-114410000D03*
X141500000Y-114410000D03*
X139950000Y-112410000D03*
X141500000Y-112410000D03*
D20*
X142500000Y-118360000D03*
X142500000Y-117410000D03*
X142500000Y-116460000D03*
X140225000Y-116460000D03*
X140225000Y-118360000D03*
D21*
X141775000Y-103910000D03*
X140225000Y-103910000D03*
D22*
X141100000Y-101810000D03*
X157300000Y-103410000D03*
X140225000Y-106685306D03*
X141100000Y-117410000D03*
X153000000Y-96910000D03*
X157300000Y-104910000D03*
X157231992Y-107841992D03*
D23*
X141775000Y-103910000D02*
X143550000Y-103910000D01*
X143550000Y-103910000D02*
X143650000Y-103810000D01*
X155325000Y-100210000D02*
X155325000Y-101945000D01*
X157000000Y-98535000D02*
X155325000Y-100210000D01*
X155325000Y-101945000D02*
X154350000Y-102920000D01*
D24*
X141500000Y-109520000D02*
X143650000Y-107370000D01*
X141500000Y-112410000D02*
X141500000Y-109520000D01*
X142500000Y-116460000D02*
X142500000Y-113410000D01*
X142500000Y-113410000D02*
X141500000Y-112410000D01*
X141400000Y-117110000D02*
X141100000Y-117410000D01*
X143500000Y-112860000D02*
X143650000Y-112710000D01*
X141500000Y-114410000D02*
X141500000Y-113960000D01*
X141400000Y-114510000D02*
X141400000Y-117110000D01*
X142500000Y-117410000D02*
X141100000Y-117410000D01*
X141500000Y-114410000D02*
X141400000Y-114510000D01*
X140225000Y-103910000D02*
X140225000Y-106685306D01*
X159425000Y-103910000D02*
X157800000Y-103910000D01*
X141500000Y-113960000D02*
X139950000Y-112410000D01*
X157800000Y-103910000D02*
X157300000Y-103410000D01*
X139950000Y-114410000D02*
X139062500Y-113522500D01*
X139125000Y-117260000D02*
X139125000Y-115235000D01*
X139125000Y-115235000D02*
X139950000Y-114410000D01*
X153025000Y-96885000D02*
X153000000Y-96910000D01*
X157000000Y-96885000D02*
X153025000Y-96885000D01*
X140225000Y-118360000D02*
X139125000Y-117260000D01*
X139062500Y-110177500D02*
X143650000Y-105590000D01*
X139062500Y-113522500D02*
X139062500Y-110177500D01*
D23*
X159425000Y-104910000D02*
X157300000Y-104910000D01*
X156456992Y-107520976D02*
X156456992Y-107531867D01*
X157067968Y-106910000D02*
X156456992Y-107520976D01*
X156456992Y-107531867D02*
X154350000Y-109638859D01*
X159425000Y-106910000D02*
X157067968Y-106910000D01*
X154350000Y-109638859D02*
X154350000Y-110040000D01*
X160575000Y-110010000D02*
X160575000Y-106285001D01*
X160575000Y-106285001D02*
X160199999Y-105910000D01*
X160199999Y-105910000D02*
X159425000Y-105910000D01*
X156700000Y-105910000D02*
X154350000Y-108260000D01*
X159425000Y-105910000D02*
X157550000Y-105910000D01*
X157000000Y-113585000D02*
X160575000Y-110010000D01*
X157550000Y-105910000D02*
X156700000Y-105910000D01*
X159425000Y-107910000D02*
X157300000Y-107910000D01*
X157300000Y-107910000D02*
X157231992Y-107841992D01*
%TA.AperFunction,Conductor*%
G36*
X158490030Y-108641722D02*
G01*
X158536399Y-108669145D01*
X158578530Y-108681385D01*
X158696164Y-108715561D01*
X158696167Y-108715561D01*
X158696169Y-108715562D01*
X158733498Y-108718500D01*
X159817500Y-108718500D01*
X159884539Y-108738185D01*
X159930294Y-108790989D01*
X159941500Y-108842500D01*
X159941500Y-109696233D01*
X159921815Y-109763272D01*
X159905181Y-109783914D01*
X157048913Y-112640181D01*
X156987590Y-112673666D01*
X156961232Y-112676500D01*
X156667727Y-112676500D01*
X156596354Y-112682985D01*
X156596344Y-112682988D01*
X156432090Y-112734171D01*
X156284841Y-112823186D01*
X156163186Y-112944841D01*
X156074173Y-113092086D01*
X156022986Y-113256354D01*
X156019380Y-113296044D01*
X156016699Y-113325551D01*
X156016500Y-113327737D01*
X156016500Y-113842272D01*
X156022985Y-113913645D01*
X156022988Y-113913655D01*
X156074171Y-114077909D01*
X156074172Y-114077911D01*
X156074173Y-114077913D01*
X156163184Y-114225155D01*
X156266359Y-114328330D01*
X156299843Y-114389651D01*
X156294859Y-114459343D01*
X156266359Y-114503691D01*
X156169926Y-114600124D01*
X156081980Y-114745604D01*
X156031409Y-114907893D01*
X156025000Y-114978427D01*
X156025000Y-114985000D01*
X157974999Y-114985000D01*
X157974999Y-114978417D01*
X157968591Y-114907897D01*
X157968590Y-114907892D01*
X157918018Y-114745603D01*
X157830072Y-114600122D01*
X157733641Y-114503691D01*
X157700156Y-114442368D01*
X157705140Y-114372676D01*
X157733640Y-114328330D01*
X157836816Y-114225155D01*
X157925827Y-114077913D01*
X157977013Y-113913649D01*
X157983500Y-113842265D01*
X157983499Y-113548764D01*
X158003183Y-113481726D01*
X158019813Y-113461089D01*
X159262820Y-112218082D01*
X159324142Y-112184599D01*
X159393834Y-112189583D01*
X159449767Y-112231455D01*
X159474184Y-112296919D01*
X159474500Y-112305765D01*
X159474500Y-119860500D01*
X159454815Y-119927539D01*
X159402011Y-119973294D01*
X159350500Y-119984500D01*
X138649500Y-119984500D01*
X138582461Y-119964815D01*
X138536706Y-119912011D01*
X138525500Y-119860500D01*
X138525500Y-117944154D01*
X138545185Y-117877115D01*
X138597989Y-117831360D01*
X138667147Y-117821416D01*
X138730703Y-117850441D01*
X138737181Y-117856473D01*
X139017681Y-118136973D01*
X139051166Y-118198296D01*
X139054000Y-118224654D01*
X139054000Y-118576507D01*
X139056937Y-118613829D01*
X139056938Y-118613835D01*
X139103353Y-118773596D01*
X139103355Y-118773601D01*
X139188044Y-118916803D01*
X139188051Y-118916812D01*
X139305687Y-119034448D01*
X139305691Y-119034451D01*
X139305693Y-119034453D01*
X139448899Y-119119145D01*
X139491030Y-119131385D01*
X139608664Y-119165561D01*
X139608667Y-119165561D01*
X139608669Y-119165562D01*
X139645998Y-119168500D01*
X139646004Y-119168500D01*
X140803996Y-119168500D01*
X140804002Y-119168500D01*
X140841331Y-119165562D01*
X140841333Y-119165561D01*
X140841335Y-119165561D01*
X140883462Y-119153321D01*
X141001101Y-119119145D01*
X141144307Y-119034453D01*
X141261953Y-118916807D01*
X141261956Y-118916800D01*
X141266733Y-118910644D01*
X141268258Y-118911827D01*
X141311819Y-118871149D01*
X141380560Y-118858641D01*
X141445151Y-118885282D01*
X141465470Y-118905952D01*
X141469818Y-118911558D01*
X141585938Y-119027678D01*
X141585947Y-119027685D01*
X141727303Y-119111282D01*
X141727306Y-119111283D01*
X141885004Y-119157099D01*
X141885010Y-119157100D01*
X141921850Y-119159999D01*
X141921866Y-119160000D01*
X142250000Y-119160000D01*
X142750000Y-119160000D01*
X143078134Y-119160000D01*
X143078149Y-119159999D01*
X143114989Y-119157100D01*
X143114995Y-119157099D01*
X143272693Y-119111283D01*
X143272696Y-119111282D01*
X143414052Y-119027685D01*
X143414061Y-119027678D01*
X143530178Y-118911561D01*
X143530185Y-118911552D01*
X143613781Y-118770198D01*
X143659600Y-118612486D01*
X143659795Y-118610001D01*
X143659795Y-118610000D01*
X142750000Y-118610000D01*
X142750000Y-119160000D01*
X142250000Y-119160000D01*
X142250000Y-118484000D01*
X142269685Y-118416961D01*
X142322489Y-118371206D01*
X142374000Y-118360000D01*
X142500000Y-118360000D01*
X142500000Y-118342500D01*
X142519685Y-118275461D01*
X142572489Y-118229706D01*
X142624000Y-118218500D01*
X143078996Y-118218500D01*
X143079002Y-118218500D01*
X143116331Y-118215562D01*
X143116333Y-118215561D01*
X143116335Y-118215561D01*
X143166048Y-118201118D01*
X143276101Y-118169145D01*
X143346912Y-118127266D01*
X143410031Y-118110000D01*
X143659795Y-118110000D01*
X143659795Y-118109998D01*
X143659600Y-118107513D01*
X143613780Y-117949798D01*
X143610684Y-117942643D01*
X143614085Y-117941171D01*
X143600494Y-117890322D01*
X143617728Y-117830224D01*
X143621645Y-117823601D01*
X143627423Y-117803713D01*
X147649500Y-117803713D01*
X147649500Y-118016286D01*
X147681527Y-118218500D01*
X147682754Y-118226243D01*
X147744722Y-118416961D01*
X147748444Y-118428414D01*
X147844951Y-118617820D01*
X147969890Y-118789786D01*
X148120213Y-118940109D01*
X148292179Y-119065048D01*
X148292181Y-119065049D01*
X148292184Y-119065051D01*
X148481588Y-119161557D01*
X148683757Y-119227246D01*
X148893713Y-119260500D01*
X148893714Y-119260500D01*
X149106286Y-119260500D01*
X149106287Y-119260500D01*
X149316243Y-119227246D01*
X149518412Y-119161557D01*
X149707816Y-119065051D01*
X149759256Y-119027678D01*
X149879786Y-118940109D01*
X149879788Y-118940106D01*
X149879792Y-118940104D01*
X150030104Y-118789792D01*
X150030106Y-118789788D01*
X150030109Y-118789786D01*
X150155048Y-118617820D01*
X150155047Y-118617820D01*
X150155051Y-118617816D01*
X150251557Y-118428412D01*
X150317246Y-118226243D01*
X150350500Y-118016287D01*
X150350500Y-117803713D01*
X150317246Y-117593757D01*
X150251557Y-117391588D01*
X150155051Y-117202184D01*
X150155049Y-117202181D01*
X150155048Y-117202179D01*
X150030109Y-117030213D01*
X149879786Y-116879890D01*
X149707820Y-116754951D01*
X149518414Y-116658444D01*
X149518413Y-116658443D01*
X149518412Y-116658443D01*
X149316243Y-116592754D01*
X149316241Y-116592753D01*
X149316240Y-116592753D01*
X149154957Y-116567208D01*
X149106287Y-116559500D01*
X148893713Y-116559500D01*
X148845042Y-116567208D01*
X148683760Y-116592753D01*
X148481585Y-116658444D01*
X148292179Y-116754951D01*
X148120213Y-116879890D01*
X147969890Y-117030213D01*
X147844951Y-117202179D01*
X147748444Y-117391585D01*
X147682753Y-117593760D01*
X147649500Y-117803713D01*
X143627423Y-117803713D01*
X143668062Y-117663831D01*
X143671000Y-117626502D01*
X143671000Y-117193498D01*
X143668062Y-117156169D01*
X143621645Y-116996399D01*
X143621643Y-116996395D01*
X143617727Y-116989773D01*
X143600543Y-116922049D01*
X143613461Y-116878563D01*
X143610683Y-116877361D01*
X143613779Y-116870204D01*
X143659600Y-116712486D01*
X143659795Y-116710001D01*
X143659795Y-116710000D01*
X143410031Y-116710000D01*
X143346912Y-116692733D01*
X143276101Y-116650855D01*
X143276099Y-116650854D01*
X143276097Y-116650853D01*
X143116335Y-116604438D01*
X143116329Y-116604437D01*
X143079007Y-116601500D01*
X143079002Y-116601500D01*
X142624000Y-116601500D01*
X142556961Y-116581815D01*
X142511206Y-116529011D01*
X142500000Y-116477500D01*
X142500000Y-116460000D01*
X142374000Y-116460000D01*
X142306961Y-116440315D01*
X142261206Y-116387511D01*
X142250000Y-116336000D01*
X142250000Y-116210000D01*
X142750000Y-116210000D01*
X143659795Y-116210000D01*
X143659795Y-116209998D01*
X143659600Y-116207513D01*
X143613781Y-116049801D01*
X143530185Y-115908447D01*
X143530178Y-115908438D01*
X143414061Y-115792321D01*
X143414052Y-115792314D01*
X143272696Y-115708717D01*
X143272693Y-115708716D01*
X143114995Y-115662900D01*
X143114989Y-115662899D01*
X143078149Y-115660000D01*
X142750000Y-115660000D01*
X142750000Y-116210000D01*
X142250000Y-116210000D01*
X142250000Y-115660000D01*
X142220000Y-115660000D01*
X142152961Y-115640315D01*
X142107206Y-115587511D01*
X142096000Y-115536000D01*
X142096000Y-115491582D01*
X156025001Y-115491582D01*
X156031408Y-115562102D01*
X156031409Y-115562107D01*
X156081981Y-115724396D01*
X156169927Y-115869877D01*
X156290122Y-115990072D01*
X156435604Y-116078019D01*
X156435603Y-116078019D01*
X156597894Y-116128590D01*
X156597892Y-116128590D01*
X156668418Y-116134999D01*
X157250000Y-116134999D01*
X157331581Y-116134999D01*
X157402102Y-116128591D01*
X157402107Y-116128590D01*
X157564396Y-116078018D01*
X157709877Y-115990072D01*
X157830072Y-115869877D01*
X157918019Y-115724395D01*
X157968590Y-115562106D01*
X157975000Y-115491572D01*
X157975000Y-115485000D01*
X157250000Y-115485000D01*
X157250000Y-116134999D01*
X156668418Y-116134999D01*
X156749999Y-116134998D01*
X156750000Y-116134998D01*
X156750000Y-115485000D01*
X156025001Y-115485000D01*
X156025001Y-115491582D01*
X142096000Y-115491582D01*
X142096000Y-115362178D01*
X142115685Y-115295139D01*
X142154902Y-115256640D01*
X142183040Y-115239285D01*
X142304285Y-115118040D01*
X142394302Y-114972101D01*
X142448236Y-114809336D01*
X142458500Y-114708872D01*
X142458500Y-114111128D01*
X142448236Y-114010664D01*
X142394302Y-113847899D01*
X142394298Y-113847893D01*
X142394297Y-113847890D01*
X142304287Y-113701963D01*
X142304284Y-113701959D01*
X142183039Y-113580714D01*
X142069277Y-113510544D01*
X142022553Y-113458596D01*
X142011332Y-113389633D01*
X142039176Y-113325551D01*
X142069279Y-113299467D01*
X142177731Y-113232573D01*
X142297573Y-113112731D01*
X142365033Y-113003361D01*
X142416981Y-112956636D01*
X142485943Y-112945413D01*
X142550025Y-112973256D01*
X142588882Y-113031325D01*
X142589838Y-113034522D01*
X142611925Y-113112149D01*
X142611930Y-113112162D01*
X142703493Y-113296044D01*
X142703498Y-113296052D01*
X142827300Y-113459993D01*
X142957904Y-113579053D01*
X142979118Y-113598392D01*
X143153782Y-113706540D01*
X143345345Y-113780751D01*
X143547282Y-113818500D01*
X143547284Y-113818500D01*
X143752716Y-113818500D01*
X143752718Y-113818500D01*
X143954655Y-113780751D01*
X144146218Y-113706540D01*
X144146223Y-113706537D01*
X144146225Y-113706536D01*
X144285222Y-113620472D01*
X144352582Y-113601915D01*
X144419282Y-113622723D01*
X144464143Y-113676288D01*
X144474500Y-113725898D01*
X144474500Y-114659211D01*
X144500852Y-114774664D01*
X144552228Y-114881348D01*
X144552230Y-114881351D01*
X144552231Y-114881352D01*
X144626064Y-114973936D01*
X144718648Y-115047769D01*
X144718651Y-115047771D01*
X144825335Y-115099147D01*
X144825337Y-115099147D01*
X144825340Y-115099149D01*
X144940790Y-115125500D01*
X153059210Y-115125500D01*
X153174660Y-115099149D01*
X153281352Y-115047769D01*
X153373936Y-114973936D01*
X153447769Y-114881352D01*
X153499149Y-114774660D01*
X153525500Y-114659210D01*
X153525500Y-114615898D01*
X153545185Y-114548859D01*
X153597989Y-114503104D01*
X153667147Y-114493160D01*
X153714778Y-114510472D01*
X153853774Y-114596536D01*
X153853776Y-114596537D01*
X153853779Y-114596538D01*
X153853782Y-114596540D01*
X154045345Y-114670751D01*
X154247282Y-114708500D01*
X154247284Y-114708500D01*
X154452716Y-114708500D01*
X154452718Y-114708500D01*
X154654655Y-114670751D01*
X154846218Y-114596540D01*
X155020882Y-114488392D01*
X155172701Y-114349991D01*
X155296503Y-114186050D01*
X155388074Y-114002152D01*
X155444294Y-113804559D01*
X155463249Y-113600000D01*
X155444294Y-113395441D01*
X155388074Y-113197848D01*
X155388069Y-113197837D01*
X155296506Y-113013955D01*
X155296501Y-113013947D01*
X155244746Y-112945413D01*
X155172701Y-112850009D01*
X155119639Y-112801637D01*
X155083358Y-112741927D01*
X155085118Y-112672079D01*
X155119640Y-112618362D01*
X155172701Y-112569991D01*
X155296503Y-112406050D01*
X155388074Y-112222152D01*
X155444294Y-112024559D01*
X155463249Y-111820000D01*
X155444294Y-111615441D01*
X155388074Y-111417848D01*
X155388069Y-111417837D01*
X155296506Y-111233955D01*
X155296501Y-111233947D01*
X155252977Y-111176312D01*
X155172701Y-111070009D01*
X155119639Y-111021637D01*
X155083358Y-110961927D01*
X155085118Y-110892079D01*
X155119640Y-110838362D01*
X155172701Y-110789991D01*
X155296503Y-110626050D01*
X155388074Y-110442152D01*
X155444294Y-110244559D01*
X155455335Y-110125406D01*
X155481120Y-110060471D01*
X155537920Y-110019783D01*
X155607701Y-110016263D01*
X155666486Y-110049168D01*
X155776348Y-110159030D01*
X155927262Y-110252115D01*
X156095574Y-110307887D01*
X156199455Y-110318500D01*
X157600544Y-110318499D01*
X157704426Y-110307887D01*
X157872738Y-110252115D01*
X158023652Y-110159030D01*
X158149030Y-110033652D01*
X158242115Y-109882738D01*
X158297887Y-109714426D01*
X158308500Y-109610545D01*
X158308499Y-108809456D01*
X158303555Y-108761058D01*
X158316325Y-108692365D01*
X158364205Y-108641481D01*
X158431995Y-108624560D01*
X158490030Y-108641722D01*
G37*
%TD.AperFunction*%
%TA.AperFunction,Conductor*%
G36*
X143300000Y-107416078D02*
G01*
X143323852Y-107505095D01*
X143369930Y-107584905D01*
X143435095Y-107650070D01*
X143514905Y-107696148D01*
X143603922Y-107720000D01*
X143653552Y-107720000D01*
X143280524Y-108093028D01*
X143237637Y-108120973D01*
X143153791Y-108153455D01*
X143153781Y-108153460D01*
X142979116Y-108261609D01*
X142827300Y-108400006D01*
X142703498Y-108563947D01*
X142703493Y-108563955D01*
X142611930Y-108747837D01*
X142611924Y-108747852D01*
X142555706Y-108945439D01*
X142555705Y-108945441D01*
X142536751Y-109149999D01*
X142536751Y-109150000D01*
X142555705Y-109354558D01*
X142555706Y-109354560D01*
X142611924Y-109552147D01*
X142611930Y-109552162D01*
X142703493Y-109736044D01*
X142703498Y-109736052D01*
X142712216Y-109747596D01*
X142825499Y-109897608D01*
X142827301Y-109899993D01*
X142880360Y-109948364D01*
X142916641Y-110008075D01*
X142914880Y-110077923D01*
X142880360Y-110131636D01*
X142827301Y-110180006D01*
X142703498Y-110343947D01*
X142703493Y-110343955D01*
X142611930Y-110527837D01*
X142611924Y-110527852D01*
X142555706Y-110725439D01*
X142555705Y-110725441D01*
X142536751Y-110929999D01*
X142536751Y-110930000D01*
X142555705Y-111134558D01*
X142555706Y-111134560D01*
X142611924Y-111332147D01*
X142611930Y-111332162D01*
X142703493Y-111516044D01*
X142703498Y-111516052D01*
X142757396Y-111587424D01*
X142825499Y-111677608D01*
X142827301Y-111679993D01*
X142880360Y-111728364D01*
X142916641Y-111788075D01*
X142914880Y-111857923D01*
X142880360Y-111911636D01*
X142827301Y-111960006D01*
X142703498Y-112123947D01*
X142703496Y-112123951D01*
X142684874Y-112161349D01*
X142637370Y-112212585D01*
X142569707Y-112230006D01*
X142503367Y-112208080D01*
X142459412Y-112153768D01*
X142450582Y-112114800D01*
X142450320Y-112114827D01*
X142450099Y-112112667D01*
X142450034Y-112112379D01*
X142449998Y-112111678D01*
X142439855Y-112012392D01*
X142386547Y-111851518D01*
X142386542Y-111851507D01*
X142297575Y-111707271D01*
X142297572Y-111707267D01*
X142177732Y-111587427D01*
X142177728Y-111587424D01*
X142033492Y-111498457D01*
X142033481Y-111498452D01*
X141872606Y-111445144D01*
X141773322Y-111435000D01*
X141750000Y-111435000D01*
X141750000Y-112286000D01*
X141730315Y-112353039D01*
X141677511Y-112398794D01*
X141626000Y-112410000D01*
X141374000Y-112410000D01*
X141306961Y-112390315D01*
X141261206Y-112337511D01*
X141250000Y-112286000D01*
X141250000Y-111434999D01*
X141226693Y-111435000D01*
X141226674Y-111435001D01*
X141127392Y-111445144D01*
X140966518Y-111498452D01*
X140966507Y-111498457D01*
X140822271Y-111587424D01*
X140822267Y-111587427D01*
X140818691Y-111591004D01*
X140757368Y-111624489D01*
X140687676Y-111619505D01*
X140643329Y-111591004D01*
X140633040Y-111580715D01*
X140633036Y-111580712D01*
X140487109Y-111490702D01*
X140487103Y-111490699D01*
X140487101Y-111490698D01*
X140324336Y-111436764D01*
X140223879Y-111426500D01*
X140223872Y-111426500D01*
X139882500Y-111426500D01*
X139815461Y-111406815D01*
X139769706Y-111354011D01*
X139758500Y-111302500D01*
X139758500Y-110517153D01*
X139778185Y-110450114D01*
X139794814Y-110429477D01*
X142443290Y-107781001D01*
X142504609Y-107747519D01*
X142574301Y-107752503D01*
X142630234Y-107794375D01*
X142641967Y-107813414D01*
X142710749Y-107951549D01*
X142712533Y-107953911D01*
X142712534Y-107953912D01*
X143300000Y-107366446D01*
X143300000Y-107416078D01*
G37*
%TD.AperFunction*%
%TA.AperFunction,Conductor*%
G36*
X159417539Y-91855185D02*
G01*
X159463294Y-91907989D01*
X159474500Y-91959500D01*
X159474500Y-98870563D01*
X160938181Y-100334243D01*
X160971666Y-100395566D01*
X160974500Y-100421924D01*
X160974500Y-105489234D01*
X160954815Y-105556273D01*
X160902011Y-105602028D01*
X160832853Y-105611972D01*
X160769297Y-105582947D01*
X160762819Y-105576916D01*
X160737982Y-105552079D01*
X160671545Y-105485642D01*
X160638062Y-105424322D01*
X160643046Y-105354630D01*
X160652497Y-105334840D01*
X160659145Y-105323601D01*
X160705562Y-105163831D01*
X160708500Y-105126502D01*
X160708500Y-104693498D01*
X160705562Y-104656169D01*
X160659145Y-104496399D01*
X160645378Y-104473121D01*
X160628195Y-104405400D01*
X160645379Y-104346877D01*
X160659145Y-104323601D01*
X160705562Y-104163831D01*
X160708500Y-104126502D01*
X160708500Y-103693498D01*
X160705562Y-103656169D01*
X160690824Y-103605441D01*
X160659146Y-103496403D01*
X160659145Y-103496399D01*
X160640439Y-103464770D01*
X160623257Y-103397047D01*
X160640443Y-103338524D01*
X160651281Y-103320199D01*
X160697100Y-103162486D01*
X160697295Y-103160001D01*
X160697295Y-103160000D01*
X160360414Y-103160000D01*
X160321415Y-103151924D01*
X160321094Y-103153032D01*
X160153829Y-103104437D01*
X160116507Y-103101500D01*
X160116502Y-103101500D01*
X159549000Y-103101500D01*
X159481961Y-103081815D01*
X159436206Y-103029011D01*
X159425000Y-102977500D01*
X159425000Y-102910000D01*
X159299000Y-102910000D01*
X159231961Y-102890315D01*
X159186206Y-102837511D01*
X159175000Y-102786000D01*
X159175000Y-102660000D01*
X159675000Y-102660000D01*
X160697295Y-102660000D01*
X160697295Y-102659998D01*
X160697100Y-102657513D01*
X160651281Y-102499801D01*
X160567685Y-102358447D01*
X160567678Y-102358438D01*
X160451561Y-102242321D01*
X160451552Y-102242314D01*
X160310196Y-102158717D01*
X160310193Y-102158716D01*
X160152495Y-102112900D01*
X160152489Y-102112899D01*
X160115649Y-102110000D01*
X159675000Y-102110000D01*
X159675000Y-102660000D01*
X159175000Y-102660000D01*
X159175000Y-102110000D01*
X158734350Y-102110000D01*
X158697510Y-102112899D01*
X158697504Y-102112900D01*
X158539806Y-102158716D01*
X158539799Y-102158719D01*
X158488960Y-102188785D01*
X158421236Y-102205968D01*
X158354974Y-102183808D01*
X158311211Y-102129341D01*
X158302482Y-102069450D01*
X158306512Y-102029999D01*
X158308500Y-102010545D01*
X158308499Y-101209456D01*
X158297887Y-101105574D01*
X158242115Y-100937262D01*
X158149030Y-100786348D01*
X158023652Y-100660970D01*
X157872738Y-100567885D01*
X157830684Y-100553950D01*
X157704427Y-100512113D01*
X157600552Y-100501500D01*
X156228765Y-100501500D01*
X156161726Y-100481815D01*
X156115971Y-100429011D01*
X156106027Y-100359853D01*
X156135052Y-100296297D01*
X156141070Y-100289833D01*
X156951086Y-99479818D01*
X157012409Y-99446333D01*
X157038767Y-99443499D01*
X157332271Y-99443499D01*
X157403644Y-99437014D01*
X157403647Y-99437013D01*
X157403649Y-99437013D01*
X157567913Y-99385827D01*
X157715155Y-99296816D01*
X157836816Y-99175155D01*
X157925827Y-99027913D01*
X157977013Y-98863649D01*
X157983500Y-98792265D01*
X157983499Y-98277736D01*
X157983499Y-98277735D01*
X157983499Y-98277727D01*
X157977014Y-98206354D01*
X157977011Y-98206344D01*
X157925828Y-98042090D01*
X157925827Y-98042089D01*
X157925827Y-98042087D01*
X157836816Y-97894845D01*
X157836814Y-97894843D01*
X157836813Y-97894841D01*
X157739653Y-97797681D01*
X157706168Y-97736358D01*
X157711152Y-97666666D01*
X157739653Y-97622319D01*
X157836812Y-97525159D01*
X157836813Y-97525158D01*
X157836816Y-97525155D01*
X157925827Y-97377913D01*
X157977013Y-97213649D01*
X157983500Y-97142265D01*
X157983499Y-96627736D01*
X157983499Y-96627727D01*
X157977014Y-96556354D01*
X157977011Y-96556344D01*
X157925828Y-96392090D01*
X157925827Y-96392089D01*
X157925827Y-96392087D01*
X157836816Y-96244845D01*
X157836814Y-96244843D01*
X157836813Y-96244841D01*
X157715158Y-96123186D01*
X157708038Y-96118882D01*
X157567913Y-96034173D01*
X157403649Y-95982987D01*
X157403647Y-95982986D01*
X157403645Y-95982986D01*
X157353667Y-95978444D01*
X157332265Y-95976500D01*
X157332262Y-95976500D01*
X156667727Y-95976500D01*
X156596354Y-95982985D01*
X156596344Y-95982988D01*
X156432090Y-96034171D01*
X156284841Y-96123186D01*
X156284840Y-96123187D01*
X156255347Y-96152681D01*
X156194024Y-96186166D01*
X156167666Y-96189000D01*
X153593551Y-96189000D01*
X153526512Y-96169315D01*
X153520674Y-96165324D01*
X153493035Y-96145243D01*
X153456750Y-96118880D01*
X153322807Y-96059246D01*
X153282288Y-96041206D01*
X153282286Y-96041205D01*
X153095487Y-96001500D01*
X152904513Y-96001500D01*
X152717714Y-96041205D01*
X152717712Y-96041206D01*
X152543253Y-96118880D01*
X152543246Y-96118883D01*
X152388745Y-96231135D01*
X152260959Y-96373057D01*
X152165473Y-96538443D01*
X152165470Y-96538450D01*
X152106459Y-96720068D01*
X152106458Y-96720072D01*
X152086496Y-96910000D01*
X152106458Y-97099928D01*
X152120214Y-97142265D01*
X152142932Y-97212181D01*
X152144927Y-97282023D01*
X152108847Y-97341856D01*
X152046146Y-97372684D01*
X152025001Y-97374500D01*
X144940788Y-97374500D01*
X144825335Y-97400852D01*
X144718651Y-97452228D01*
X144626064Y-97526064D01*
X144552228Y-97618651D01*
X144500852Y-97725335D01*
X144474500Y-97840788D01*
X144474500Y-99022361D01*
X144454815Y-99089400D01*
X144402011Y-99135155D01*
X144337244Y-99145650D01*
X144298654Y-99141500D01*
X144298638Y-99141500D01*
X143001362Y-99141500D01*
X143001345Y-99141500D01*
X142940797Y-99148011D01*
X142940795Y-99148011D01*
X142803795Y-99199111D01*
X142686739Y-99286739D01*
X142599111Y-99403795D01*
X142548011Y-99540795D01*
X142548011Y-99540797D01*
X142541500Y-99601345D01*
X142541500Y-100898654D01*
X142548011Y-100959202D01*
X142548011Y-100959204D01*
X142599111Y-101096204D01*
X142686739Y-101213261D01*
X142705187Y-101227071D01*
X142709054Y-101229966D01*
X142750924Y-101285900D01*
X142755908Y-101355592D01*
X142733697Y-101403958D01*
X142703498Y-101443948D01*
X142703493Y-101443955D01*
X142611930Y-101627837D01*
X142611924Y-101627852D01*
X142555706Y-101825439D01*
X142555705Y-101825441D01*
X142536751Y-102029999D01*
X142536751Y-102030000D01*
X142555705Y-102234558D01*
X142555706Y-102234560D01*
X142611924Y-102432147D01*
X142611930Y-102432162D01*
X142703493Y-102616044D01*
X142703498Y-102616052D01*
X142730730Y-102652113D01*
X142825499Y-102777608D01*
X142827301Y-102779993D01*
X142880360Y-102828364D01*
X142916641Y-102888075D01*
X142914880Y-102957923D01*
X142880360Y-103011636D01*
X142827301Y-103060006D01*
X142745389Y-103168475D01*
X142689280Y-103210111D01*
X142619568Y-103214802D01*
X142558754Y-103181429D01*
X142458040Y-103080715D01*
X142458036Y-103080712D01*
X142312109Y-102990702D01*
X142312103Y-102990699D01*
X142312101Y-102990698D01*
X142149336Y-102936764D01*
X142048879Y-102926500D01*
X142048872Y-102926500D01*
X141501128Y-102926500D01*
X141501120Y-102926500D01*
X141400663Y-102936764D01*
X141237901Y-102990697D01*
X141237890Y-102990702D01*
X141091963Y-103080712D01*
X141091959Y-103080715D01*
X141087681Y-103084994D01*
X141026358Y-103118479D01*
X140956666Y-103113495D01*
X140912319Y-103084994D01*
X140908040Y-103080715D01*
X140908036Y-103080712D01*
X140762109Y-102990702D01*
X140762103Y-102990699D01*
X140762101Y-102990698D01*
X140599336Y-102936764D01*
X140498879Y-102926500D01*
X140498872Y-102926500D01*
X139951128Y-102926500D01*
X139951120Y-102926500D01*
X139850663Y-102936764D01*
X139687901Y-102990697D01*
X139687890Y-102990702D01*
X139541963Y-103080712D01*
X139541959Y-103080715D01*
X139420715Y-103201959D01*
X139420712Y-103201963D01*
X139330702Y-103347890D01*
X139330697Y-103347901D01*
X139276764Y-103510663D01*
X139266500Y-103611120D01*
X139266500Y-104208879D01*
X139276764Y-104309336D01*
X139330697Y-104472098D01*
X139330702Y-104472109D01*
X139420712Y-104618036D01*
X139420715Y-104618040D01*
X139492681Y-104690006D01*
X139526166Y-104751329D01*
X139529000Y-104777687D01*
X139529000Y-106052962D01*
X139509315Y-106120001D01*
X139497151Y-106135933D01*
X139485958Y-106148363D01*
X139390473Y-106313749D01*
X139390470Y-106313756D01*
X139331459Y-106495374D01*
X139331458Y-106495378D01*
X139311496Y-106685306D01*
X139331458Y-106875234D01*
X139331459Y-106875237D01*
X139390470Y-107056855D01*
X139390473Y-107056862D01*
X139485960Y-107222250D01*
X139613747Y-107364172D01*
X139768248Y-107476424D01*
X139942712Y-107554100D01*
X140129513Y-107593806D01*
X140320484Y-107593806D01*
X140320487Y-107593806D01*
X140344592Y-107588682D01*
X140414256Y-107593997D01*
X140469990Y-107636133D01*
X140494097Y-107701713D01*
X140478921Y-107769914D01*
X140458053Y-107797653D01*
X138737181Y-109518526D01*
X138675858Y-109552011D01*
X138606166Y-109547027D01*
X138550233Y-109505155D01*
X138525816Y-109439691D01*
X138525500Y-109430845D01*
X138525500Y-93803713D01*
X147649500Y-93803713D01*
X147649500Y-94016286D01*
X147682753Y-94226239D01*
X147748444Y-94428414D01*
X147844951Y-94617820D01*
X147969890Y-94789786D01*
X148120213Y-94940109D01*
X148292179Y-95065048D01*
X148292181Y-95065049D01*
X148292184Y-95065051D01*
X148481588Y-95161557D01*
X148683757Y-95227246D01*
X148893713Y-95260500D01*
X148893714Y-95260500D01*
X149106286Y-95260500D01*
X149106287Y-95260500D01*
X149316243Y-95227246D01*
X149518412Y-95161557D01*
X149707816Y-95065051D01*
X149729789Y-95049086D01*
X149879786Y-94940109D01*
X149879788Y-94940106D01*
X149879792Y-94940104D01*
X150030104Y-94789792D01*
X150030106Y-94789788D01*
X150030109Y-94789786D01*
X150155048Y-94617820D01*
X150155047Y-94617820D01*
X150155051Y-94617816D01*
X150251557Y-94428412D01*
X150317246Y-94226243D01*
X150350500Y-94016287D01*
X150350500Y-93803713D01*
X150317246Y-93593757D01*
X150251557Y-93391588D01*
X150155051Y-93202184D01*
X150155049Y-93202181D01*
X150155048Y-93202179D01*
X150030109Y-93030213D01*
X149879786Y-92879890D01*
X149707820Y-92754951D01*
X149518414Y-92658444D01*
X149518413Y-92658443D01*
X149518412Y-92658443D01*
X149316243Y-92592754D01*
X149316241Y-92592753D01*
X149316240Y-92592753D01*
X149154957Y-92567208D01*
X149106287Y-92559500D01*
X148893713Y-92559500D01*
X148845042Y-92567208D01*
X148683760Y-92592753D01*
X148481585Y-92658444D01*
X148292179Y-92754951D01*
X148120213Y-92879890D01*
X147969890Y-93030213D01*
X147844951Y-93202179D01*
X147748444Y-93391585D01*
X147682753Y-93593760D01*
X147649500Y-93803713D01*
X138525500Y-93803713D01*
X138525500Y-91959500D01*
X138545185Y-91892461D01*
X138597989Y-91846706D01*
X138649500Y-91835500D01*
X159350500Y-91835500D01*
X159417539Y-91855185D01*
G37*
%TD.AperFunction*%
M02*
