%TF.GenerationSoftware,KiCad,Pcbnew,8.0.7*%
%TF.CreationDate,2024-12-23T19:18:15-08:00*%
%TF.ProjectId,PMW3360,504d5733-3336-4302-9e6b-696361645f70,rev?*%
%TF.SameCoordinates,Original*%
%TF.FileFunction,Drillmap*%
%TF.FilePolarity,Positive*%
%FSLAX45Y45*%
G04 Gerber Fmt 4.5, Leading zero omitted, Abs format (unit mm)*
G04 Created by KiCad (PCBNEW 8.0.7) date 2024-12-23 19:18:15*
%MOMM*%
%LPD*%
G01*
G04 APERTURE LIST*
%ADD10C,0.050000*%
%ADD11C,0.200000*%
%ADD12C,0.100000*%
G04 APERTURE END LIST*
D10*
X15350000Y-9790000D02*
X15350000Y-11460000D01*
X15300000Y-11510000D02*
X14500000Y-11510000D01*
X14500000Y-11510000D02*
G75*
G02*
X14450000Y-11460000I0J50000D01*
G01*
X14500000Y-9740000D02*
X15300000Y-9740000D01*
X14450000Y-11460000D02*
X14450000Y-9790000D01*
X15300000Y-9740000D02*
G75*
G02*
X15350000Y-9790000I0J-50000D01*
G01*
X15350000Y-11460000D02*
G75*
G02*
X15300000Y-11510000I-50000J0D01*
G01*
X14450000Y-9790000D02*
G75*
G02*
X14500000Y-9740000I50000J0D01*
G01*
X13850000Y-9181000D02*
X16150000Y-9181000D01*
X16150000Y-12001000D01*
X13850000Y-12001000D01*
X13850000Y-9181000D01*
D11*
D12*
X14080000Y-10251000D02*
X14120000Y-10291000D01*
X14120000Y-10251000D02*
X14080000Y-10291000D01*
X14080000Y-11251000D02*
X14120000Y-11291000D01*
X14120000Y-11251000D02*
X14080000Y-11291000D01*
X15590000Y-10421000D02*
X15630000Y-10461000D01*
X15630000Y-10421000D02*
X15590000Y-10461000D01*
X15660000Y-10521000D02*
X15700000Y-10561000D01*
X15700000Y-10521000D02*
X15660000Y-10561000D01*
X15670000Y-10821000D02*
X15710000Y-10861000D01*
X15710000Y-10821000D02*
X15670000Y-10861000D01*
X15740000Y-10621000D02*
X15780000Y-10661000D01*
X15780000Y-10621000D02*
X15740000Y-10661000D01*
X15760000Y-10321000D02*
X15800000Y-10361000D01*
X15800000Y-10321000D02*
X15760000Y-10361000D01*
X14400000Y-10025000D02*
G75*
G02*
X14330000Y-10025000I-35000J0D01*
G01*
X14330000Y-10025000D02*
G75*
G02*
X14400000Y-10025000I35000J0D01*
G01*
X14400000Y-10203000D02*
G75*
G02*
X14330000Y-10203000I-35000J0D01*
G01*
X14330000Y-10203000D02*
G75*
G02*
X14400000Y-10203000I35000J0D01*
G01*
X14400000Y-10381000D02*
G75*
G02*
X14330000Y-10381000I-35000J0D01*
G01*
X14330000Y-10381000D02*
G75*
G02*
X14400000Y-10381000I35000J0D01*
G01*
X14400000Y-10559000D02*
G75*
G02*
X14330000Y-10559000I-35000J0D01*
G01*
X14330000Y-10559000D02*
G75*
G02*
X14400000Y-10559000I35000J0D01*
G01*
X14400000Y-10737000D02*
G75*
G02*
X14330000Y-10737000I-35000J0D01*
G01*
X14330000Y-10737000D02*
G75*
G02*
X14400000Y-10737000I35000J0D01*
G01*
X14400000Y-10915000D02*
G75*
G02*
X14330000Y-10915000I-35000J0D01*
G01*
X14330000Y-10915000D02*
G75*
G02*
X14400000Y-10915000I35000J0D01*
G01*
X14400000Y-11093000D02*
G75*
G02*
X14330000Y-11093000I-35000J0D01*
G01*
X14330000Y-11093000D02*
G75*
G02*
X14400000Y-11093000I35000J0D01*
G01*
X14400000Y-11271000D02*
G75*
G02*
X14330000Y-11271000I-35000J0D01*
G01*
X14330000Y-11271000D02*
G75*
G02*
X14400000Y-11271000I35000J0D01*
G01*
X15470000Y-10114000D02*
G75*
G02*
X15400000Y-10114000I-35000J0D01*
G01*
X15400000Y-10114000D02*
G75*
G02*
X15470000Y-10114000I35000J0D01*
G01*
X15470000Y-10292000D02*
G75*
G02*
X15400000Y-10292000I-35000J0D01*
G01*
X15400000Y-10292000D02*
G75*
G02*
X15470000Y-10292000I35000J0D01*
G01*
X15470000Y-10470000D02*
G75*
G02*
X15400000Y-10470000I-35000J0D01*
G01*
X15400000Y-10470000D02*
G75*
G02*
X15470000Y-10470000I35000J0D01*
G01*
X15470000Y-10648000D02*
G75*
G02*
X15400000Y-10648000I-35000J0D01*
G01*
X15400000Y-10648000D02*
G75*
G02*
X15470000Y-10648000I35000J0D01*
G01*
X15470000Y-10826000D02*
G75*
G02*
X15400000Y-10826000I-35000J0D01*
G01*
X15400000Y-10826000D02*
G75*
G02*
X15470000Y-10826000I35000J0D01*
G01*
X15470000Y-11004000D02*
G75*
G02*
X15400000Y-11004000I-35000J0D01*
G01*
X15400000Y-11004000D02*
G75*
G02*
X15470000Y-11004000I35000J0D01*
G01*
X15470000Y-11182000D02*
G75*
G02*
X15400000Y-11182000I-35000J0D01*
G01*
X15400000Y-11182000D02*
G75*
G02*
X15470000Y-11182000I35000J0D01*
G01*
X15470000Y-11360000D02*
G75*
G02*
X15400000Y-11360000I-35000J0D01*
G01*
X15400000Y-11360000D02*
G75*
G02*
X15470000Y-11360000I35000J0D01*
G01*
D11*
X14108277Y-12314984D02*
X14108277Y-12114984D01*
X14108277Y-12114984D02*
X14155896Y-12114984D01*
X14155896Y-12114984D02*
X14184467Y-12124508D01*
X14184467Y-12124508D02*
X14203515Y-12143555D01*
X14203515Y-12143555D02*
X14213039Y-12162603D01*
X14213039Y-12162603D02*
X14222562Y-12200698D01*
X14222562Y-12200698D02*
X14222562Y-12229269D01*
X14222562Y-12229269D02*
X14213039Y-12267365D01*
X14213039Y-12267365D02*
X14203515Y-12286412D01*
X14203515Y-12286412D02*
X14184467Y-12305460D01*
X14184467Y-12305460D02*
X14155896Y-12314984D01*
X14155896Y-12314984D02*
X14108277Y-12314984D01*
X14308277Y-12314984D02*
X14308277Y-12181650D01*
X14308277Y-12219746D02*
X14317801Y-12200698D01*
X14317801Y-12200698D02*
X14327324Y-12191174D01*
X14327324Y-12191174D02*
X14346372Y-12181650D01*
X14346372Y-12181650D02*
X14365420Y-12181650D01*
X14432086Y-12314984D02*
X14432086Y-12181650D01*
X14432086Y-12114984D02*
X14422562Y-12124508D01*
X14422562Y-12124508D02*
X14432086Y-12134031D01*
X14432086Y-12134031D02*
X14441610Y-12124508D01*
X14441610Y-12124508D02*
X14432086Y-12114984D01*
X14432086Y-12114984D02*
X14432086Y-12134031D01*
X14555896Y-12314984D02*
X14536848Y-12305460D01*
X14536848Y-12305460D02*
X14527324Y-12286412D01*
X14527324Y-12286412D02*
X14527324Y-12114984D01*
X14660658Y-12314984D02*
X14641610Y-12305460D01*
X14641610Y-12305460D02*
X14632086Y-12286412D01*
X14632086Y-12286412D02*
X14632086Y-12114984D01*
X14889229Y-12314984D02*
X14889229Y-12114984D01*
X14889229Y-12114984D02*
X14955896Y-12257841D01*
X14955896Y-12257841D02*
X15022562Y-12114984D01*
X15022562Y-12114984D02*
X15022562Y-12314984D01*
X15203515Y-12314984D02*
X15203515Y-12210222D01*
X15203515Y-12210222D02*
X15193991Y-12191174D01*
X15193991Y-12191174D02*
X15174943Y-12181650D01*
X15174943Y-12181650D02*
X15136848Y-12181650D01*
X15136848Y-12181650D02*
X15117801Y-12191174D01*
X15203515Y-12305460D02*
X15184467Y-12314984D01*
X15184467Y-12314984D02*
X15136848Y-12314984D01*
X15136848Y-12314984D02*
X15117801Y-12305460D01*
X15117801Y-12305460D02*
X15108277Y-12286412D01*
X15108277Y-12286412D02*
X15108277Y-12267365D01*
X15108277Y-12267365D02*
X15117801Y-12248317D01*
X15117801Y-12248317D02*
X15136848Y-12238793D01*
X15136848Y-12238793D02*
X15184467Y-12238793D01*
X15184467Y-12238793D02*
X15203515Y-12229269D01*
X15298753Y-12181650D02*
X15298753Y-12381650D01*
X15298753Y-12191174D02*
X15317801Y-12181650D01*
X15317801Y-12181650D02*
X15355896Y-12181650D01*
X15355896Y-12181650D02*
X15374943Y-12191174D01*
X15374943Y-12191174D02*
X15384467Y-12200698D01*
X15384467Y-12200698D02*
X15393991Y-12219746D01*
X15393991Y-12219746D02*
X15393991Y-12276888D01*
X15393991Y-12276888D02*
X15384467Y-12295936D01*
X15384467Y-12295936D02*
X15374943Y-12305460D01*
X15374943Y-12305460D02*
X15355896Y-12314984D01*
X15355896Y-12314984D02*
X15317801Y-12314984D01*
X15317801Y-12314984D02*
X15298753Y-12305460D01*
X15479705Y-12295936D02*
X15489229Y-12305460D01*
X15489229Y-12305460D02*
X15479705Y-12314984D01*
X15479705Y-12314984D02*
X15470182Y-12305460D01*
X15470182Y-12305460D02*
X15479705Y-12295936D01*
X15479705Y-12295936D02*
X15479705Y-12314984D01*
X15479705Y-12191174D02*
X15489229Y-12200698D01*
X15489229Y-12200698D02*
X15479705Y-12210222D01*
X15479705Y-12210222D02*
X15470182Y-12200698D01*
X15470182Y-12200698D02*
X15479705Y-12191174D01*
X15479705Y-12191174D02*
X15479705Y-12210222D01*
D12*
X13807500Y-12623500D02*
X13847500Y-12663500D01*
X13847500Y-12623500D02*
X13807500Y-12663500D01*
D11*
X14146372Y-12534984D02*
X14165420Y-12534984D01*
X14165420Y-12534984D02*
X14184467Y-12544508D01*
X14184467Y-12544508D02*
X14193991Y-12554031D01*
X14193991Y-12554031D02*
X14203515Y-12573079D01*
X14203515Y-12573079D02*
X14213039Y-12611174D01*
X14213039Y-12611174D02*
X14213039Y-12658793D01*
X14213039Y-12658793D02*
X14203515Y-12696888D01*
X14203515Y-12696888D02*
X14193991Y-12715936D01*
X14193991Y-12715936D02*
X14184467Y-12725460D01*
X14184467Y-12725460D02*
X14165420Y-12734984D01*
X14165420Y-12734984D02*
X14146372Y-12734984D01*
X14146372Y-12734984D02*
X14127324Y-12725460D01*
X14127324Y-12725460D02*
X14117801Y-12715936D01*
X14117801Y-12715936D02*
X14108277Y-12696888D01*
X14108277Y-12696888D02*
X14098753Y-12658793D01*
X14098753Y-12658793D02*
X14098753Y-12611174D01*
X14098753Y-12611174D02*
X14108277Y-12573079D01*
X14108277Y-12573079D02*
X14117801Y-12554031D01*
X14117801Y-12554031D02*
X14127324Y-12544508D01*
X14127324Y-12544508D02*
X14146372Y-12534984D01*
X14298753Y-12715936D02*
X14308277Y-12725460D01*
X14308277Y-12725460D02*
X14298753Y-12734984D01*
X14298753Y-12734984D02*
X14289229Y-12725460D01*
X14289229Y-12725460D02*
X14298753Y-12715936D01*
X14298753Y-12715936D02*
X14298753Y-12734984D01*
X14479705Y-12601650D02*
X14479705Y-12734984D01*
X14432086Y-12525460D02*
X14384467Y-12668317D01*
X14384467Y-12668317D02*
X14508277Y-12668317D01*
X14622562Y-12534984D02*
X14641610Y-12534984D01*
X14641610Y-12534984D02*
X14660658Y-12544508D01*
X14660658Y-12544508D02*
X14670182Y-12554031D01*
X14670182Y-12554031D02*
X14679705Y-12573079D01*
X14679705Y-12573079D02*
X14689229Y-12611174D01*
X14689229Y-12611174D02*
X14689229Y-12658793D01*
X14689229Y-12658793D02*
X14679705Y-12696888D01*
X14679705Y-12696888D02*
X14670182Y-12715936D01*
X14670182Y-12715936D02*
X14660658Y-12725460D01*
X14660658Y-12725460D02*
X14641610Y-12734984D01*
X14641610Y-12734984D02*
X14622562Y-12734984D01*
X14622562Y-12734984D02*
X14603515Y-12725460D01*
X14603515Y-12725460D02*
X14593991Y-12715936D01*
X14593991Y-12715936D02*
X14584467Y-12696888D01*
X14584467Y-12696888D02*
X14574943Y-12658793D01*
X14574943Y-12658793D02*
X14574943Y-12611174D01*
X14574943Y-12611174D02*
X14584467Y-12573079D01*
X14584467Y-12573079D02*
X14593991Y-12554031D01*
X14593991Y-12554031D02*
X14603515Y-12544508D01*
X14603515Y-12544508D02*
X14622562Y-12534984D01*
X14813039Y-12534984D02*
X14832086Y-12534984D01*
X14832086Y-12534984D02*
X14851134Y-12544508D01*
X14851134Y-12544508D02*
X14860658Y-12554031D01*
X14860658Y-12554031D02*
X14870182Y-12573079D01*
X14870182Y-12573079D02*
X14879705Y-12611174D01*
X14879705Y-12611174D02*
X14879705Y-12658793D01*
X14879705Y-12658793D02*
X14870182Y-12696888D01*
X14870182Y-12696888D02*
X14860658Y-12715936D01*
X14860658Y-12715936D02*
X14851134Y-12725460D01*
X14851134Y-12725460D02*
X14832086Y-12734984D01*
X14832086Y-12734984D02*
X14813039Y-12734984D01*
X14813039Y-12734984D02*
X14793991Y-12725460D01*
X14793991Y-12725460D02*
X14784467Y-12715936D01*
X14784467Y-12715936D02*
X14774943Y-12696888D01*
X14774943Y-12696888D02*
X14765420Y-12658793D01*
X14765420Y-12658793D02*
X14765420Y-12611174D01*
X14765420Y-12611174D02*
X14774943Y-12573079D01*
X14774943Y-12573079D02*
X14784467Y-12554031D01*
X14784467Y-12554031D02*
X14793991Y-12544508D01*
X14793991Y-12544508D02*
X14813039Y-12534984D01*
X14965420Y-12734984D02*
X14965420Y-12601650D01*
X14965420Y-12620698D02*
X14974943Y-12611174D01*
X14974943Y-12611174D02*
X14993991Y-12601650D01*
X14993991Y-12601650D02*
X15022563Y-12601650D01*
X15022563Y-12601650D02*
X15041610Y-12611174D01*
X15041610Y-12611174D02*
X15051134Y-12630222D01*
X15051134Y-12630222D02*
X15051134Y-12734984D01*
X15051134Y-12630222D02*
X15060658Y-12611174D01*
X15060658Y-12611174D02*
X15079705Y-12601650D01*
X15079705Y-12601650D02*
X15108277Y-12601650D01*
X15108277Y-12601650D02*
X15127324Y-12611174D01*
X15127324Y-12611174D02*
X15136848Y-12630222D01*
X15136848Y-12630222D02*
X15136848Y-12734984D01*
X15232086Y-12734984D02*
X15232086Y-12601650D01*
X15232086Y-12620698D02*
X15241610Y-12611174D01*
X15241610Y-12611174D02*
X15260658Y-12601650D01*
X15260658Y-12601650D02*
X15289229Y-12601650D01*
X15289229Y-12601650D02*
X15308277Y-12611174D01*
X15308277Y-12611174D02*
X15317801Y-12630222D01*
X15317801Y-12630222D02*
X15317801Y-12734984D01*
X15317801Y-12630222D02*
X15327324Y-12611174D01*
X15327324Y-12611174D02*
X15346372Y-12601650D01*
X15346372Y-12601650D02*
X15374943Y-12601650D01*
X15374943Y-12601650D02*
X15393991Y-12611174D01*
X15393991Y-12611174D02*
X15403515Y-12630222D01*
X15403515Y-12630222D02*
X15403515Y-12734984D01*
X15793991Y-12525460D02*
X15622563Y-12782603D01*
X16051134Y-12534984D02*
X16070182Y-12534984D01*
X16070182Y-12534984D02*
X16089229Y-12544508D01*
X16089229Y-12544508D02*
X16098753Y-12554031D01*
X16098753Y-12554031D02*
X16108277Y-12573079D01*
X16108277Y-12573079D02*
X16117801Y-12611174D01*
X16117801Y-12611174D02*
X16117801Y-12658793D01*
X16117801Y-12658793D02*
X16108277Y-12696888D01*
X16108277Y-12696888D02*
X16098753Y-12715936D01*
X16098753Y-12715936D02*
X16089229Y-12725460D01*
X16089229Y-12725460D02*
X16070182Y-12734984D01*
X16070182Y-12734984D02*
X16051134Y-12734984D01*
X16051134Y-12734984D02*
X16032086Y-12725460D01*
X16032086Y-12725460D02*
X16022563Y-12715936D01*
X16022563Y-12715936D02*
X16013039Y-12696888D01*
X16013039Y-12696888D02*
X16003515Y-12658793D01*
X16003515Y-12658793D02*
X16003515Y-12611174D01*
X16003515Y-12611174D02*
X16013039Y-12573079D01*
X16013039Y-12573079D02*
X16022563Y-12554031D01*
X16022563Y-12554031D02*
X16032086Y-12544508D01*
X16032086Y-12544508D02*
X16051134Y-12534984D01*
X16203515Y-12715936D02*
X16213039Y-12725460D01*
X16213039Y-12725460D02*
X16203515Y-12734984D01*
X16203515Y-12734984D02*
X16193991Y-12725460D01*
X16193991Y-12725460D02*
X16203515Y-12715936D01*
X16203515Y-12715936D02*
X16203515Y-12734984D01*
X16336848Y-12534984D02*
X16355896Y-12534984D01*
X16355896Y-12534984D02*
X16374944Y-12544508D01*
X16374944Y-12544508D02*
X16384467Y-12554031D01*
X16384467Y-12554031D02*
X16393991Y-12573079D01*
X16393991Y-12573079D02*
X16403515Y-12611174D01*
X16403515Y-12611174D02*
X16403515Y-12658793D01*
X16403515Y-12658793D02*
X16393991Y-12696888D01*
X16393991Y-12696888D02*
X16384467Y-12715936D01*
X16384467Y-12715936D02*
X16374944Y-12725460D01*
X16374944Y-12725460D02*
X16355896Y-12734984D01*
X16355896Y-12734984D02*
X16336848Y-12734984D01*
X16336848Y-12734984D02*
X16317801Y-12725460D01*
X16317801Y-12725460D02*
X16308277Y-12715936D01*
X16308277Y-12715936D02*
X16298753Y-12696888D01*
X16298753Y-12696888D02*
X16289229Y-12658793D01*
X16289229Y-12658793D02*
X16289229Y-12611174D01*
X16289229Y-12611174D02*
X16298753Y-12573079D01*
X16298753Y-12573079D02*
X16308277Y-12554031D01*
X16308277Y-12554031D02*
X16317801Y-12544508D01*
X16317801Y-12544508D02*
X16336848Y-12534984D01*
X16593991Y-12734984D02*
X16479706Y-12734984D01*
X16536848Y-12734984D02*
X16536848Y-12534984D01*
X16536848Y-12534984D02*
X16517801Y-12563555D01*
X16517801Y-12563555D02*
X16498753Y-12582603D01*
X16498753Y-12582603D02*
X16479706Y-12592127D01*
X16774944Y-12534984D02*
X16679706Y-12534984D01*
X16679706Y-12534984D02*
X16670182Y-12630222D01*
X16670182Y-12630222D02*
X16679706Y-12620698D01*
X16679706Y-12620698D02*
X16698753Y-12611174D01*
X16698753Y-12611174D02*
X16746372Y-12611174D01*
X16746372Y-12611174D02*
X16765420Y-12620698D01*
X16765420Y-12620698D02*
X16774944Y-12630222D01*
X16774944Y-12630222D02*
X16784468Y-12649269D01*
X16784468Y-12649269D02*
X16784468Y-12696888D01*
X16784468Y-12696888D02*
X16774944Y-12715936D01*
X16774944Y-12715936D02*
X16765420Y-12725460D01*
X16765420Y-12725460D02*
X16746372Y-12734984D01*
X16746372Y-12734984D02*
X16698753Y-12734984D01*
X16698753Y-12734984D02*
X16679706Y-12725460D01*
X16679706Y-12725460D02*
X16670182Y-12715936D01*
X16851134Y-12534984D02*
X16984468Y-12534984D01*
X16984468Y-12534984D02*
X16898753Y-12734984D01*
X17051134Y-12534984D02*
X17051134Y-12573079D01*
X17127325Y-12534984D02*
X17127325Y-12573079D01*
X17422563Y-12811174D02*
X17413039Y-12801650D01*
X17413039Y-12801650D02*
X17393991Y-12773079D01*
X17393991Y-12773079D02*
X17384468Y-12754031D01*
X17384468Y-12754031D02*
X17374944Y-12725460D01*
X17374944Y-12725460D02*
X17365420Y-12677841D01*
X17365420Y-12677841D02*
X17365420Y-12639746D01*
X17365420Y-12639746D02*
X17374944Y-12592127D01*
X17374944Y-12592127D02*
X17384468Y-12563555D01*
X17384468Y-12563555D02*
X17393991Y-12544508D01*
X17393991Y-12544508D02*
X17413039Y-12515936D01*
X17413039Y-12515936D02*
X17422563Y-12506412D01*
X17479706Y-12534984D02*
X17613039Y-12534984D01*
X17613039Y-12534984D02*
X17527325Y-12734984D01*
X17841611Y-12734984D02*
X17841611Y-12534984D01*
X17927325Y-12734984D02*
X17927325Y-12630222D01*
X17927325Y-12630222D02*
X17917801Y-12611174D01*
X17917801Y-12611174D02*
X17898753Y-12601650D01*
X17898753Y-12601650D02*
X17870182Y-12601650D01*
X17870182Y-12601650D02*
X17851134Y-12611174D01*
X17851134Y-12611174D02*
X17841611Y-12620698D01*
X18051134Y-12734984D02*
X18032087Y-12725460D01*
X18032087Y-12725460D02*
X18022563Y-12715936D01*
X18022563Y-12715936D02*
X18013039Y-12696888D01*
X18013039Y-12696888D02*
X18013039Y-12639746D01*
X18013039Y-12639746D02*
X18022563Y-12620698D01*
X18022563Y-12620698D02*
X18032087Y-12611174D01*
X18032087Y-12611174D02*
X18051134Y-12601650D01*
X18051134Y-12601650D02*
X18079706Y-12601650D01*
X18079706Y-12601650D02*
X18098753Y-12611174D01*
X18098753Y-12611174D02*
X18108277Y-12620698D01*
X18108277Y-12620698D02*
X18117801Y-12639746D01*
X18117801Y-12639746D02*
X18117801Y-12696888D01*
X18117801Y-12696888D02*
X18108277Y-12715936D01*
X18108277Y-12715936D02*
X18098753Y-12725460D01*
X18098753Y-12725460D02*
X18079706Y-12734984D01*
X18079706Y-12734984D02*
X18051134Y-12734984D01*
X18232087Y-12734984D02*
X18213039Y-12725460D01*
X18213039Y-12725460D02*
X18203515Y-12706412D01*
X18203515Y-12706412D02*
X18203515Y-12534984D01*
X18384468Y-12725460D02*
X18365420Y-12734984D01*
X18365420Y-12734984D02*
X18327325Y-12734984D01*
X18327325Y-12734984D02*
X18308277Y-12725460D01*
X18308277Y-12725460D02*
X18298753Y-12706412D01*
X18298753Y-12706412D02*
X18298753Y-12630222D01*
X18298753Y-12630222D02*
X18308277Y-12611174D01*
X18308277Y-12611174D02*
X18327325Y-12601650D01*
X18327325Y-12601650D02*
X18365420Y-12601650D01*
X18365420Y-12601650D02*
X18384468Y-12611174D01*
X18384468Y-12611174D02*
X18393992Y-12630222D01*
X18393992Y-12630222D02*
X18393992Y-12649269D01*
X18393992Y-12649269D02*
X18298753Y-12668317D01*
X18470182Y-12725460D02*
X18489230Y-12734984D01*
X18489230Y-12734984D02*
X18527325Y-12734984D01*
X18527325Y-12734984D02*
X18546373Y-12725460D01*
X18546373Y-12725460D02*
X18555896Y-12706412D01*
X18555896Y-12706412D02*
X18555896Y-12696888D01*
X18555896Y-12696888D02*
X18546373Y-12677841D01*
X18546373Y-12677841D02*
X18527325Y-12668317D01*
X18527325Y-12668317D02*
X18498753Y-12668317D01*
X18498753Y-12668317D02*
X18479706Y-12658793D01*
X18479706Y-12658793D02*
X18470182Y-12639746D01*
X18470182Y-12639746D02*
X18470182Y-12630222D01*
X18470182Y-12630222D02*
X18479706Y-12611174D01*
X18479706Y-12611174D02*
X18498753Y-12601650D01*
X18498753Y-12601650D02*
X18527325Y-12601650D01*
X18527325Y-12601650D02*
X18546373Y-12611174D01*
X18622563Y-12811174D02*
X18632087Y-12801650D01*
X18632087Y-12801650D02*
X18651134Y-12773079D01*
X18651134Y-12773079D02*
X18660658Y-12754031D01*
X18660658Y-12754031D02*
X18670182Y-12725460D01*
X18670182Y-12725460D02*
X18679706Y-12677841D01*
X18679706Y-12677841D02*
X18679706Y-12639746D01*
X18679706Y-12639746D02*
X18670182Y-12592127D01*
X18670182Y-12592127D02*
X18660658Y-12563555D01*
X18660658Y-12563555D02*
X18651134Y-12544508D01*
X18651134Y-12544508D02*
X18632087Y-12515936D01*
X18632087Y-12515936D02*
X18622563Y-12506412D01*
D12*
X13847500Y-12907500D02*
G75*
G02*
X13777500Y-12907500I-35000J0D01*
G01*
X13777500Y-12907500D02*
G75*
G02*
X13847500Y-12907500I35000J0D01*
G01*
D11*
X14146372Y-12798984D02*
X14165420Y-12798984D01*
X14165420Y-12798984D02*
X14184467Y-12808508D01*
X14184467Y-12808508D02*
X14193991Y-12818031D01*
X14193991Y-12818031D02*
X14203515Y-12837079D01*
X14203515Y-12837079D02*
X14213039Y-12875174D01*
X14213039Y-12875174D02*
X14213039Y-12922793D01*
X14213039Y-12922793D02*
X14203515Y-12960888D01*
X14203515Y-12960888D02*
X14193991Y-12979936D01*
X14193991Y-12979936D02*
X14184467Y-12989460D01*
X14184467Y-12989460D02*
X14165420Y-12998984D01*
X14165420Y-12998984D02*
X14146372Y-12998984D01*
X14146372Y-12998984D02*
X14127324Y-12989460D01*
X14127324Y-12989460D02*
X14117801Y-12979936D01*
X14117801Y-12979936D02*
X14108277Y-12960888D01*
X14108277Y-12960888D02*
X14098753Y-12922793D01*
X14098753Y-12922793D02*
X14098753Y-12875174D01*
X14098753Y-12875174D02*
X14108277Y-12837079D01*
X14108277Y-12837079D02*
X14117801Y-12818031D01*
X14117801Y-12818031D02*
X14127324Y-12808508D01*
X14127324Y-12808508D02*
X14146372Y-12798984D01*
X14298753Y-12979936D02*
X14308277Y-12989460D01*
X14308277Y-12989460D02*
X14298753Y-12998984D01*
X14298753Y-12998984D02*
X14289229Y-12989460D01*
X14289229Y-12989460D02*
X14298753Y-12979936D01*
X14298753Y-12979936D02*
X14298753Y-12998984D01*
X14374943Y-12798984D02*
X14508277Y-12798984D01*
X14508277Y-12798984D02*
X14422562Y-12998984D01*
X14622562Y-12798984D02*
X14641610Y-12798984D01*
X14641610Y-12798984D02*
X14660658Y-12808508D01*
X14660658Y-12808508D02*
X14670182Y-12818031D01*
X14670182Y-12818031D02*
X14679705Y-12837079D01*
X14679705Y-12837079D02*
X14689229Y-12875174D01*
X14689229Y-12875174D02*
X14689229Y-12922793D01*
X14689229Y-12922793D02*
X14679705Y-12960888D01*
X14679705Y-12960888D02*
X14670182Y-12979936D01*
X14670182Y-12979936D02*
X14660658Y-12989460D01*
X14660658Y-12989460D02*
X14641610Y-12998984D01*
X14641610Y-12998984D02*
X14622562Y-12998984D01*
X14622562Y-12998984D02*
X14603515Y-12989460D01*
X14603515Y-12989460D02*
X14593991Y-12979936D01*
X14593991Y-12979936D02*
X14584467Y-12960888D01*
X14584467Y-12960888D02*
X14574943Y-12922793D01*
X14574943Y-12922793D02*
X14574943Y-12875174D01*
X14574943Y-12875174D02*
X14584467Y-12837079D01*
X14584467Y-12837079D02*
X14593991Y-12818031D01*
X14593991Y-12818031D02*
X14603515Y-12808508D01*
X14603515Y-12808508D02*
X14622562Y-12798984D01*
X14813039Y-12798984D02*
X14832086Y-12798984D01*
X14832086Y-12798984D02*
X14851134Y-12808508D01*
X14851134Y-12808508D02*
X14860658Y-12818031D01*
X14860658Y-12818031D02*
X14870182Y-12837079D01*
X14870182Y-12837079D02*
X14879705Y-12875174D01*
X14879705Y-12875174D02*
X14879705Y-12922793D01*
X14879705Y-12922793D02*
X14870182Y-12960888D01*
X14870182Y-12960888D02*
X14860658Y-12979936D01*
X14860658Y-12979936D02*
X14851134Y-12989460D01*
X14851134Y-12989460D02*
X14832086Y-12998984D01*
X14832086Y-12998984D02*
X14813039Y-12998984D01*
X14813039Y-12998984D02*
X14793991Y-12989460D01*
X14793991Y-12989460D02*
X14784467Y-12979936D01*
X14784467Y-12979936D02*
X14774943Y-12960888D01*
X14774943Y-12960888D02*
X14765420Y-12922793D01*
X14765420Y-12922793D02*
X14765420Y-12875174D01*
X14765420Y-12875174D02*
X14774943Y-12837079D01*
X14774943Y-12837079D02*
X14784467Y-12818031D01*
X14784467Y-12818031D02*
X14793991Y-12808508D01*
X14793991Y-12808508D02*
X14813039Y-12798984D01*
X14965420Y-12998984D02*
X14965420Y-12865650D01*
X14965420Y-12884698D02*
X14974943Y-12875174D01*
X14974943Y-12875174D02*
X14993991Y-12865650D01*
X14993991Y-12865650D02*
X15022563Y-12865650D01*
X15022563Y-12865650D02*
X15041610Y-12875174D01*
X15041610Y-12875174D02*
X15051134Y-12894222D01*
X15051134Y-12894222D02*
X15051134Y-12998984D01*
X15051134Y-12894222D02*
X15060658Y-12875174D01*
X15060658Y-12875174D02*
X15079705Y-12865650D01*
X15079705Y-12865650D02*
X15108277Y-12865650D01*
X15108277Y-12865650D02*
X15127324Y-12875174D01*
X15127324Y-12875174D02*
X15136848Y-12894222D01*
X15136848Y-12894222D02*
X15136848Y-12998984D01*
X15232086Y-12998984D02*
X15232086Y-12865650D01*
X15232086Y-12884698D02*
X15241610Y-12875174D01*
X15241610Y-12875174D02*
X15260658Y-12865650D01*
X15260658Y-12865650D02*
X15289229Y-12865650D01*
X15289229Y-12865650D02*
X15308277Y-12875174D01*
X15308277Y-12875174D02*
X15317801Y-12894222D01*
X15317801Y-12894222D02*
X15317801Y-12998984D01*
X15317801Y-12894222D02*
X15327324Y-12875174D01*
X15327324Y-12875174D02*
X15346372Y-12865650D01*
X15346372Y-12865650D02*
X15374943Y-12865650D01*
X15374943Y-12865650D02*
X15393991Y-12875174D01*
X15393991Y-12875174D02*
X15403515Y-12894222D01*
X15403515Y-12894222D02*
X15403515Y-12998984D01*
X15793991Y-12789460D02*
X15622563Y-13046603D01*
X16051134Y-12798984D02*
X16070182Y-12798984D01*
X16070182Y-12798984D02*
X16089229Y-12808508D01*
X16089229Y-12808508D02*
X16098753Y-12818031D01*
X16098753Y-12818031D02*
X16108277Y-12837079D01*
X16108277Y-12837079D02*
X16117801Y-12875174D01*
X16117801Y-12875174D02*
X16117801Y-12922793D01*
X16117801Y-12922793D02*
X16108277Y-12960888D01*
X16108277Y-12960888D02*
X16098753Y-12979936D01*
X16098753Y-12979936D02*
X16089229Y-12989460D01*
X16089229Y-12989460D02*
X16070182Y-12998984D01*
X16070182Y-12998984D02*
X16051134Y-12998984D01*
X16051134Y-12998984D02*
X16032086Y-12989460D01*
X16032086Y-12989460D02*
X16022563Y-12979936D01*
X16022563Y-12979936D02*
X16013039Y-12960888D01*
X16013039Y-12960888D02*
X16003515Y-12922793D01*
X16003515Y-12922793D02*
X16003515Y-12875174D01*
X16003515Y-12875174D02*
X16013039Y-12837079D01*
X16013039Y-12837079D02*
X16022563Y-12818031D01*
X16022563Y-12818031D02*
X16032086Y-12808508D01*
X16032086Y-12808508D02*
X16051134Y-12798984D01*
X16203515Y-12979936D02*
X16213039Y-12989460D01*
X16213039Y-12989460D02*
X16203515Y-12998984D01*
X16203515Y-12998984D02*
X16193991Y-12989460D01*
X16193991Y-12989460D02*
X16203515Y-12979936D01*
X16203515Y-12979936D02*
X16203515Y-12998984D01*
X16336848Y-12798984D02*
X16355896Y-12798984D01*
X16355896Y-12798984D02*
X16374944Y-12808508D01*
X16374944Y-12808508D02*
X16384467Y-12818031D01*
X16384467Y-12818031D02*
X16393991Y-12837079D01*
X16393991Y-12837079D02*
X16403515Y-12875174D01*
X16403515Y-12875174D02*
X16403515Y-12922793D01*
X16403515Y-12922793D02*
X16393991Y-12960888D01*
X16393991Y-12960888D02*
X16384467Y-12979936D01*
X16384467Y-12979936D02*
X16374944Y-12989460D01*
X16374944Y-12989460D02*
X16355896Y-12998984D01*
X16355896Y-12998984D02*
X16336848Y-12998984D01*
X16336848Y-12998984D02*
X16317801Y-12989460D01*
X16317801Y-12989460D02*
X16308277Y-12979936D01*
X16308277Y-12979936D02*
X16298753Y-12960888D01*
X16298753Y-12960888D02*
X16289229Y-12922793D01*
X16289229Y-12922793D02*
X16289229Y-12875174D01*
X16289229Y-12875174D02*
X16298753Y-12837079D01*
X16298753Y-12837079D02*
X16308277Y-12818031D01*
X16308277Y-12818031D02*
X16317801Y-12808508D01*
X16317801Y-12808508D02*
X16336848Y-12798984D01*
X16479706Y-12818031D02*
X16489229Y-12808508D01*
X16489229Y-12808508D02*
X16508277Y-12798984D01*
X16508277Y-12798984D02*
X16555896Y-12798984D01*
X16555896Y-12798984D02*
X16574944Y-12808508D01*
X16574944Y-12808508D02*
X16584467Y-12818031D01*
X16584467Y-12818031D02*
X16593991Y-12837079D01*
X16593991Y-12837079D02*
X16593991Y-12856127D01*
X16593991Y-12856127D02*
X16584467Y-12884698D01*
X16584467Y-12884698D02*
X16470182Y-12998984D01*
X16470182Y-12998984D02*
X16593991Y-12998984D01*
X16660658Y-12798984D02*
X16793991Y-12798984D01*
X16793991Y-12798984D02*
X16708277Y-12998984D01*
X16955896Y-12798984D02*
X16917801Y-12798984D01*
X16917801Y-12798984D02*
X16898753Y-12808508D01*
X16898753Y-12808508D02*
X16889229Y-12818031D01*
X16889229Y-12818031D02*
X16870182Y-12846603D01*
X16870182Y-12846603D02*
X16860658Y-12884698D01*
X16860658Y-12884698D02*
X16860658Y-12960888D01*
X16860658Y-12960888D02*
X16870182Y-12979936D01*
X16870182Y-12979936D02*
X16879706Y-12989460D01*
X16879706Y-12989460D02*
X16898753Y-12998984D01*
X16898753Y-12998984D02*
X16936849Y-12998984D01*
X16936849Y-12998984D02*
X16955896Y-12989460D01*
X16955896Y-12989460D02*
X16965420Y-12979936D01*
X16965420Y-12979936D02*
X16974944Y-12960888D01*
X16974944Y-12960888D02*
X16974944Y-12913269D01*
X16974944Y-12913269D02*
X16965420Y-12894222D01*
X16965420Y-12894222D02*
X16955896Y-12884698D01*
X16955896Y-12884698D02*
X16936849Y-12875174D01*
X16936849Y-12875174D02*
X16898753Y-12875174D01*
X16898753Y-12875174D02*
X16879706Y-12884698D01*
X16879706Y-12884698D02*
X16870182Y-12894222D01*
X16870182Y-12894222D02*
X16860658Y-12913269D01*
X17051134Y-12798984D02*
X17051134Y-12837079D01*
X17127325Y-12798984D02*
X17127325Y-12837079D01*
X17422563Y-13075174D02*
X17413039Y-13065650D01*
X17413039Y-13065650D02*
X17393991Y-13037079D01*
X17393991Y-13037079D02*
X17384468Y-13018031D01*
X17384468Y-13018031D02*
X17374944Y-12989460D01*
X17374944Y-12989460D02*
X17365420Y-12941841D01*
X17365420Y-12941841D02*
X17365420Y-12903746D01*
X17365420Y-12903746D02*
X17374944Y-12856127D01*
X17374944Y-12856127D02*
X17384468Y-12827555D01*
X17384468Y-12827555D02*
X17393991Y-12808508D01*
X17393991Y-12808508D02*
X17413039Y-12779936D01*
X17413039Y-12779936D02*
X17422563Y-12770412D01*
X17603515Y-12998984D02*
X17489230Y-12998984D01*
X17546372Y-12998984D02*
X17546372Y-12798984D01*
X17546372Y-12798984D02*
X17527325Y-12827555D01*
X17527325Y-12827555D02*
X17508277Y-12846603D01*
X17508277Y-12846603D02*
X17489230Y-12856127D01*
X17774944Y-12798984D02*
X17736849Y-12798984D01*
X17736849Y-12798984D02*
X17717801Y-12808508D01*
X17717801Y-12808508D02*
X17708277Y-12818031D01*
X17708277Y-12818031D02*
X17689230Y-12846603D01*
X17689230Y-12846603D02*
X17679706Y-12884698D01*
X17679706Y-12884698D02*
X17679706Y-12960888D01*
X17679706Y-12960888D02*
X17689230Y-12979936D01*
X17689230Y-12979936D02*
X17698753Y-12989460D01*
X17698753Y-12989460D02*
X17717801Y-12998984D01*
X17717801Y-12998984D02*
X17755896Y-12998984D01*
X17755896Y-12998984D02*
X17774944Y-12989460D01*
X17774944Y-12989460D02*
X17784468Y-12979936D01*
X17784468Y-12979936D02*
X17793991Y-12960888D01*
X17793991Y-12960888D02*
X17793991Y-12913269D01*
X17793991Y-12913269D02*
X17784468Y-12894222D01*
X17784468Y-12894222D02*
X17774944Y-12884698D01*
X17774944Y-12884698D02*
X17755896Y-12875174D01*
X17755896Y-12875174D02*
X17717801Y-12875174D01*
X17717801Y-12875174D02*
X17698753Y-12884698D01*
X17698753Y-12884698D02*
X17689230Y-12894222D01*
X17689230Y-12894222D02*
X17679706Y-12913269D01*
X18032087Y-12998984D02*
X18032087Y-12798984D01*
X18117801Y-12998984D02*
X18117801Y-12894222D01*
X18117801Y-12894222D02*
X18108277Y-12875174D01*
X18108277Y-12875174D02*
X18089230Y-12865650D01*
X18089230Y-12865650D02*
X18060658Y-12865650D01*
X18060658Y-12865650D02*
X18041611Y-12875174D01*
X18041611Y-12875174D02*
X18032087Y-12884698D01*
X18241611Y-12998984D02*
X18222563Y-12989460D01*
X18222563Y-12989460D02*
X18213039Y-12979936D01*
X18213039Y-12979936D02*
X18203515Y-12960888D01*
X18203515Y-12960888D02*
X18203515Y-12903746D01*
X18203515Y-12903746D02*
X18213039Y-12884698D01*
X18213039Y-12884698D02*
X18222563Y-12875174D01*
X18222563Y-12875174D02*
X18241611Y-12865650D01*
X18241611Y-12865650D02*
X18270182Y-12865650D01*
X18270182Y-12865650D02*
X18289230Y-12875174D01*
X18289230Y-12875174D02*
X18298753Y-12884698D01*
X18298753Y-12884698D02*
X18308277Y-12903746D01*
X18308277Y-12903746D02*
X18308277Y-12960888D01*
X18308277Y-12960888D02*
X18298753Y-12979936D01*
X18298753Y-12979936D02*
X18289230Y-12989460D01*
X18289230Y-12989460D02*
X18270182Y-12998984D01*
X18270182Y-12998984D02*
X18241611Y-12998984D01*
X18422563Y-12998984D02*
X18403515Y-12989460D01*
X18403515Y-12989460D02*
X18393992Y-12970412D01*
X18393992Y-12970412D02*
X18393992Y-12798984D01*
X18574944Y-12989460D02*
X18555896Y-12998984D01*
X18555896Y-12998984D02*
X18517801Y-12998984D01*
X18517801Y-12998984D02*
X18498753Y-12989460D01*
X18498753Y-12989460D02*
X18489230Y-12970412D01*
X18489230Y-12970412D02*
X18489230Y-12894222D01*
X18489230Y-12894222D02*
X18498753Y-12875174D01*
X18498753Y-12875174D02*
X18517801Y-12865650D01*
X18517801Y-12865650D02*
X18555896Y-12865650D01*
X18555896Y-12865650D02*
X18574944Y-12875174D01*
X18574944Y-12875174D02*
X18584468Y-12894222D01*
X18584468Y-12894222D02*
X18584468Y-12913269D01*
X18584468Y-12913269D02*
X18489230Y-12932317D01*
X18660658Y-12989460D02*
X18679706Y-12998984D01*
X18679706Y-12998984D02*
X18717801Y-12998984D01*
X18717801Y-12998984D02*
X18736849Y-12989460D01*
X18736849Y-12989460D02*
X18746373Y-12970412D01*
X18746373Y-12970412D02*
X18746373Y-12960888D01*
X18746373Y-12960888D02*
X18736849Y-12941841D01*
X18736849Y-12941841D02*
X18717801Y-12932317D01*
X18717801Y-12932317D02*
X18689230Y-12932317D01*
X18689230Y-12932317D02*
X18670182Y-12922793D01*
X18670182Y-12922793D02*
X18660658Y-12903746D01*
X18660658Y-12903746D02*
X18660658Y-12894222D01*
X18660658Y-12894222D02*
X18670182Y-12875174D01*
X18670182Y-12875174D02*
X18689230Y-12865650D01*
X18689230Y-12865650D02*
X18717801Y-12865650D01*
X18717801Y-12865650D02*
X18736849Y-12875174D01*
X18813039Y-13075174D02*
X18822563Y-13065650D01*
X18822563Y-13065650D02*
X18841611Y-13037079D01*
X18841611Y-13037079D02*
X18851134Y-13018031D01*
X18851134Y-13018031D02*
X18860658Y-12989460D01*
X18860658Y-12989460D02*
X18870182Y-12941841D01*
X18870182Y-12941841D02*
X18870182Y-12903746D01*
X18870182Y-12903746D02*
X18860658Y-12856127D01*
X18860658Y-12856127D02*
X18851134Y-12827555D01*
X18851134Y-12827555D02*
X18841611Y-12808508D01*
X18841611Y-12808508D02*
X18822563Y-12779936D01*
X18822563Y-12779936D02*
X18813039Y-12770412D01*
M02*
