%TF.GenerationSoftware,KiCad,Pcbnew,8.0.7*%
%TF.CreationDate,2024-12-25T19:13:16-08:00*%
%TF.ProjectId,PMW3360,504d5733-3336-4302-9e6b-696361645f70,rev?*%
%TF.SameCoordinates,Original*%
%TF.FileFunction,Copper,L2,Bot*%
%TF.FilePolarity,Positive*%
%FSLAX46Y46*%
G04 Gerber Fmt 4.6, Leading zero omitted, Abs format (unit mm)*
G04 Created by KiCad (PCBNEW 8.0.7) date 2024-12-25 19:13:16*
%MOMM*%
%LPD*%
G01*
G04 APERTURE LIST*
%ADD10C,0.100000*%
%ADD11C,0.150000*%
%ADD12C,0.300000*%
%ADD13C,0.400000*%
%TA.AperFunction,ComponentPad*%
%ADD14R,1.200000X1.200000*%
%TD*%
%TA.AperFunction,ComponentPad*%
%ADD15C,1.200000*%
%TD*%
%TA.AperFunction,ViaPad*%
%ADD16C,0.800000*%
%TD*%
%TA.AperFunction,Conductor*%
%ADD17C,0.250000*%
%TD*%
%TA.AperFunction,Conductor*%
%ADD18C,0.375000*%
%TD*%
G04 APERTURE END LIST*
D10*
D11*
X177002200Y-166007200D02*
X285002200Y-166007200D01*
X285002200Y-198007200D01*
X177002200Y-198007200D01*
X177002200Y-166007200D01*
D10*
D11*
X10000000Y-10000000D02*
X287002200Y-10000000D01*
X287002200Y-200007200D01*
X10000000Y-200007200D01*
X10000000Y-10000000D01*
D10*
D11*
X12000000Y-12000000D02*
X285002200Y-12000000D01*
X285002200Y-198007200D01*
X12000000Y-198007200D01*
X12000000Y-12000000D01*
D10*
D11*
X60000000Y-12000000D02*
X60000000Y-10000000D01*
D10*
D11*
X110000000Y-12000000D02*
X110000000Y-10000000D01*
D10*
D11*
X160000000Y-12000000D02*
X160000000Y-10000000D01*
D10*
D11*
X210000000Y-12000000D02*
X210000000Y-10000000D01*
D10*
D11*
X260000000Y-12000000D02*
X260000000Y-10000000D01*
D10*
D11*
X36089160Y-11593604D02*
X35346303Y-11593604D01*
X35717731Y-11593604D02*
X35717731Y-10293604D01*
X35717731Y-10293604D02*
X35593922Y-10479319D01*
X35593922Y-10479319D02*
X35470112Y-10603128D01*
X35470112Y-10603128D02*
X35346303Y-10665033D01*
D10*
D11*
X85346303Y-10417414D02*
X85408207Y-10355509D01*
X85408207Y-10355509D02*
X85532017Y-10293604D01*
X85532017Y-10293604D02*
X85841541Y-10293604D01*
X85841541Y-10293604D02*
X85965350Y-10355509D01*
X85965350Y-10355509D02*
X86027255Y-10417414D01*
X86027255Y-10417414D02*
X86089160Y-10541223D01*
X86089160Y-10541223D02*
X86089160Y-10665033D01*
X86089160Y-10665033D02*
X86027255Y-10850747D01*
X86027255Y-10850747D02*
X85284398Y-11593604D01*
X85284398Y-11593604D02*
X86089160Y-11593604D01*
D10*
D11*
X135284398Y-10293604D02*
X136089160Y-10293604D01*
X136089160Y-10293604D02*
X135655826Y-10788842D01*
X135655826Y-10788842D02*
X135841541Y-10788842D01*
X135841541Y-10788842D02*
X135965350Y-10850747D01*
X135965350Y-10850747D02*
X136027255Y-10912652D01*
X136027255Y-10912652D02*
X136089160Y-11036461D01*
X136089160Y-11036461D02*
X136089160Y-11345985D01*
X136089160Y-11345985D02*
X136027255Y-11469795D01*
X136027255Y-11469795D02*
X135965350Y-11531700D01*
X135965350Y-11531700D02*
X135841541Y-11593604D01*
X135841541Y-11593604D02*
X135470112Y-11593604D01*
X135470112Y-11593604D02*
X135346303Y-11531700D01*
X135346303Y-11531700D02*
X135284398Y-11469795D01*
D10*
D11*
X185965350Y-10726938D02*
X185965350Y-11593604D01*
X185655826Y-10231700D02*
X185346303Y-11160271D01*
X185346303Y-11160271D02*
X186151064Y-11160271D01*
D10*
D11*
X236027255Y-10293604D02*
X235408207Y-10293604D01*
X235408207Y-10293604D02*
X235346303Y-10912652D01*
X235346303Y-10912652D02*
X235408207Y-10850747D01*
X235408207Y-10850747D02*
X235532017Y-10788842D01*
X235532017Y-10788842D02*
X235841541Y-10788842D01*
X235841541Y-10788842D02*
X235965350Y-10850747D01*
X235965350Y-10850747D02*
X236027255Y-10912652D01*
X236027255Y-10912652D02*
X236089160Y-11036461D01*
X236089160Y-11036461D02*
X236089160Y-11345985D01*
X236089160Y-11345985D02*
X236027255Y-11469795D01*
X236027255Y-11469795D02*
X235965350Y-11531700D01*
X235965350Y-11531700D02*
X235841541Y-11593604D01*
X235841541Y-11593604D02*
X235532017Y-11593604D01*
X235532017Y-11593604D02*
X235408207Y-11531700D01*
X235408207Y-11531700D02*
X235346303Y-11469795D01*
D10*
D11*
X285965350Y-10293604D02*
X285717731Y-10293604D01*
X285717731Y-10293604D02*
X285593922Y-10355509D01*
X285593922Y-10355509D02*
X285532017Y-10417414D01*
X285532017Y-10417414D02*
X285408207Y-10603128D01*
X285408207Y-10603128D02*
X285346303Y-10850747D01*
X285346303Y-10850747D02*
X285346303Y-11345985D01*
X285346303Y-11345985D02*
X285408207Y-11469795D01*
X285408207Y-11469795D02*
X285470112Y-11531700D01*
X285470112Y-11531700D02*
X285593922Y-11593604D01*
X285593922Y-11593604D02*
X285841541Y-11593604D01*
X285841541Y-11593604D02*
X285965350Y-11531700D01*
X285965350Y-11531700D02*
X286027255Y-11469795D01*
X286027255Y-11469795D02*
X286089160Y-11345985D01*
X286089160Y-11345985D02*
X286089160Y-11036461D01*
X286089160Y-11036461D02*
X286027255Y-10912652D01*
X286027255Y-10912652D02*
X285965350Y-10850747D01*
X285965350Y-10850747D02*
X285841541Y-10788842D01*
X285841541Y-10788842D02*
X285593922Y-10788842D01*
X285593922Y-10788842D02*
X285470112Y-10850747D01*
X285470112Y-10850747D02*
X285408207Y-10912652D01*
X285408207Y-10912652D02*
X285346303Y-11036461D01*
D10*
D11*
X60000000Y-198007200D02*
X60000000Y-200007200D01*
D10*
D11*
X110000000Y-198007200D02*
X110000000Y-200007200D01*
D10*
D11*
X160000000Y-198007200D02*
X160000000Y-200007200D01*
D10*
D11*
X210000000Y-198007200D02*
X210000000Y-200007200D01*
D10*
D11*
X260000000Y-198007200D02*
X260000000Y-200007200D01*
D10*
D11*
X36089160Y-199600804D02*
X35346303Y-199600804D01*
X35717731Y-199600804D02*
X35717731Y-198300804D01*
X35717731Y-198300804D02*
X35593922Y-198486519D01*
X35593922Y-198486519D02*
X35470112Y-198610328D01*
X35470112Y-198610328D02*
X35346303Y-198672233D01*
D10*
D11*
X85346303Y-198424614D02*
X85408207Y-198362709D01*
X85408207Y-198362709D02*
X85532017Y-198300804D01*
X85532017Y-198300804D02*
X85841541Y-198300804D01*
X85841541Y-198300804D02*
X85965350Y-198362709D01*
X85965350Y-198362709D02*
X86027255Y-198424614D01*
X86027255Y-198424614D02*
X86089160Y-198548423D01*
X86089160Y-198548423D02*
X86089160Y-198672233D01*
X86089160Y-198672233D02*
X86027255Y-198857947D01*
X86027255Y-198857947D02*
X85284398Y-199600804D01*
X85284398Y-199600804D02*
X86089160Y-199600804D01*
D10*
D11*
X135284398Y-198300804D02*
X136089160Y-198300804D01*
X136089160Y-198300804D02*
X135655826Y-198796042D01*
X135655826Y-198796042D02*
X135841541Y-198796042D01*
X135841541Y-198796042D02*
X135965350Y-198857947D01*
X135965350Y-198857947D02*
X136027255Y-198919852D01*
X136027255Y-198919852D02*
X136089160Y-199043661D01*
X136089160Y-199043661D02*
X136089160Y-199353185D01*
X136089160Y-199353185D02*
X136027255Y-199476995D01*
X136027255Y-199476995D02*
X135965350Y-199538900D01*
X135965350Y-199538900D02*
X135841541Y-199600804D01*
X135841541Y-199600804D02*
X135470112Y-199600804D01*
X135470112Y-199600804D02*
X135346303Y-199538900D01*
X135346303Y-199538900D02*
X135284398Y-199476995D01*
D10*
D11*
X185965350Y-198734138D02*
X185965350Y-199600804D01*
X185655826Y-198238900D02*
X185346303Y-199167471D01*
X185346303Y-199167471D02*
X186151064Y-199167471D01*
D10*
D11*
X236027255Y-198300804D02*
X235408207Y-198300804D01*
X235408207Y-198300804D02*
X235346303Y-198919852D01*
X235346303Y-198919852D02*
X235408207Y-198857947D01*
X235408207Y-198857947D02*
X235532017Y-198796042D01*
X235532017Y-198796042D02*
X235841541Y-198796042D01*
X235841541Y-198796042D02*
X235965350Y-198857947D01*
X235965350Y-198857947D02*
X236027255Y-198919852D01*
X236027255Y-198919852D02*
X236089160Y-199043661D01*
X236089160Y-199043661D02*
X236089160Y-199353185D01*
X236089160Y-199353185D02*
X236027255Y-199476995D01*
X236027255Y-199476995D02*
X235965350Y-199538900D01*
X235965350Y-199538900D02*
X235841541Y-199600804D01*
X235841541Y-199600804D02*
X235532017Y-199600804D01*
X235532017Y-199600804D02*
X235408207Y-199538900D01*
X235408207Y-199538900D02*
X235346303Y-199476995D01*
D10*
D11*
X285965350Y-198300804D02*
X285717731Y-198300804D01*
X285717731Y-198300804D02*
X285593922Y-198362709D01*
X285593922Y-198362709D02*
X285532017Y-198424614D01*
X285532017Y-198424614D02*
X285408207Y-198610328D01*
X285408207Y-198610328D02*
X285346303Y-198857947D01*
X285346303Y-198857947D02*
X285346303Y-199353185D01*
X285346303Y-199353185D02*
X285408207Y-199476995D01*
X285408207Y-199476995D02*
X285470112Y-199538900D01*
X285470112Y-199538900D02*
X285593922Y-199600804D01*
X285593922Y-199600804D02*
X285841541Y-199600804D01*
X285841541Y-199600804D02*
X285965350Y-199538900D01*
X285965350Y-199538900D02*
X286027255Y-199476995D01*
X286027255Y-199476995D02*
X286089160Y-199353185D01*
X286089160Y-199353185D02*
X286089160Y-199043661D01*
X286089160Y-199043661D02*
X286027255Y-198919852D01*
X286027255Y-198919852D02*
X285965350Y-198857947D01*
X285965350Y-198857947D02*
X285841541Y-198796042D01*
X285841541Y-198796042D02*
X285593922Y-198796042D01*
X285593922Y-198796042D02*
X285470112Y-198857947D01*
X285470112Y-198857947D02*
X285408207Y-198919852D01*
X285408207Y-198919852D02*
X285346303Y-199043661D01*
D10*
D11*
X10000000Y-60000000D02*
X12000000Y-60000000D01*
D10*
D11*
X10000000Y-110000000D02*
X12000000Y-110000000D01*
D10*
D11*
X10000000Y-160000000D02*
X12000000Y-160000000D01*
D10*
D11*
X10690476Y-35222176D02*
X11309523Y-35222176D01*
X10566666Y-35593604D02*
X10999999Y-34293604D01*
X10999999Y-34293604D02*
X11433333Y-35593604D01*
D10*
D11*
X11092857Y-84912652D02*
X11278571Y-84974557D01*
X11278571Y-84974557D02*
X11340476Y-85036461D01*
X11340476Y-85036461D02*
X11402380Y-85160271D01*
X11402380Y-85160271D02*
X11402380Y-85345985D01*
X11402380Y-85345985D02*
X11340476Y-85469795D01*
X11340476Y-85469795D02*
X11278571Y-85531700D01*
X11278571Y-85531700D02*
X11154761Y-85593604D01*
X11154761Y-85593604D02*
X10659523Y-85593604D01*
X10659523Y-85593604D02*
X10659523Y-84293604D01*
X10659523Y-84293604D02*
X11092857Y-84293604D01*
X11092857Y-84293604D02*
X11216666Y-84355509D01*
X11216666Y-84355509D02*
X11278571Y-84417414D01*
X11278571Y-84417414D02*
X11340476Y-84541223D01*
X11340476Y-84541223D02*
X11340476Y-84665033D01*
X11340476Y-84665033D02*
X11278571Y-84788842D01*
X11278571Y-84788842D02*
X11216666Y-84850747D01*
X11216666Y-84850747D02*
X11092857Y-84912652D01*
X11092857Y-84912652D02*
X10659523Y-84912652D01*
D10*
D11*
X11402380Y-135469795D02*
X11340476Y-135531700D01*
X11340476Y-135531700D02*
X11154761Y-135593604D01*
X11154761Y-135593604D02*
X11030952Y-135593604D01*
X11030952Y-135593604D02*
X10845238Y-135531700D01*
X10845238Y-135531700D02*
X10721428Y-135407890D01*
X10721428Y-135407890D02*
X10659523Y-135284080D01*
X10659523Y-135284080D02*
X10597619Y-135036461D01*
X10597619Y-135036461D02*
X10597619Y-134850747D01*
X10597619Y-134850747D02*
X10659523Y-134603128D01*
X10659523Y-134603128D02*
X10721428Y-134479319D01*
X10721428Y-134479319D02*
X10845238Y-134355509D01*
X10845238Y-134355509D02*
X11030952Y-134293604D01*
X11030952Y-134293604D02*
X11154761Y-134293604D01*
X11154761Y-134293604D02*
X11340476Y-134355509D01*
X11340476Y-134355509D02*
X11402380Y-134417414D01*
D10*
D11*
X10659523Y-185593604D02*
X10659523Y-184293604D01*
X10659523Y-184293604D02*
X10969047Y-184293604D01*
X10969047Y-184293604D02*
X11154761Y-184355509D01*
X11154761Y-184355509D02*
X11278571Y-184479319D01*
X11278571Y-184479319D02*
X11340476Y-184603128D01*
X11340476Y-184603128D02*
X11402380Y-184850747D01*
X11402380Y-184850747D02*
X11402380Y-185036461D01*
X11402380Y-185036461D02*
X11340476Y-185284080D01*
X11340476Y-185284080D02*
X11278571Y-185407890D01*
X11278571Y-185407890D02*
X11154761Y-185531700D01*
X11154761Y-185531700D02*
X10969047Y-185593604D01*
X10969047Y-185593604D02*
X10659523Y-185593604D01*
D10*
D11*
X287002200Y-60000000D02*
X285002200Y-60000000D01*
D10*
D11*
X287002200Y-110000000D02*
X285002200Y-110000000D01*
D10*
D11*
X287002200Y-160000000D02*
X285002200Y-160000000D01*
D10*
D11*
X285692676Y-35222176D02*
X286311723Y-35222176D01*
X285568866Y-35593604D02*
X286002199Y-34293604D01*
X286002199Y-34293604D02*
X286435533Y-35593604D01*
D10*
D11*
X286095057Y-84912652D02*
X286280771Y-84974557D01*
X286280771Y-84974557D02*
X286342676Y-85036461D01*
X286342676Y-85036461D02*
X286404580Y-85160271D01*
X286404580Y-85160271D02*
X286404580Y-85345985D01*
X286404580Y-85345985D02*
X286342676Y-85469795D01*
X286342676Y-85469795D02*
X286280771Y-85531700D01*
X286280771Y-85531700D02*
X286156961Y-85593604D01*
X286156961Y-85593604D02*
X285661723Y-85593604D01*
X285661723Y-85593604D02*
X285661723Y-84293604D01*
X285661723Y-84293604D02*
X286095057Y-84293604D01*
X286095057Y-84293604D02*
X286218866Y-84355509D01*
X286218866Y-84355509D02*
X286280771Y-84417414D01*
X286280771Y-84417414D02*
X286342676Y-84541223D01*
X286342676Y-84541223D02*
X286342676Y-84665033D01*
X286342676Y-84665033D02*
X286280771Y-84788842D01*
X286280771Y-84788842D02*
X286218866Y-84850747D01*
X286218866Y-84850747D02*
X286095057Y-84912652D01*
X286095057Y-84912652D02*
X285661723Y-84912652D01*
D10*
D11*
X286404580Y-135469795D02*
X286342676Y-135531700D01*
X286342676Y-135531700D02*
X286156961Y-135593604D01*
X286156961Y-135593604D02*
X286033152Y-135593604D01*
X286033152Y-135593604D02*
X285847438Y-135531700D01*
X285847438Y-135531700D02*
X285723628Y-135407890D01*
X285723628Y-135407890D02*
X285661723Y-135284080D01*
X285661723Y-135284080D02*
X285599819Y-135036461D01*
X285599819Y-135036461D02*
X285599819Y-134850747D01*
X285599819Y-134850747D02*
X285661723Y-134603128D01*
X285661723Y-134603128D02*
X285723628Y-134479319D01*
X285723628Y-134479319D02*
X285847438Y-134355509D01*
X285847438Y-134355509D02*
X286033152Y-134293604D01*
X286033152Y-134293604D02*
X286156961Y-134293604D01*
X286156961Y-134293604D02*
X286342676Y-134355509D01*
X286342676Y-134355509D02*
X286404580Y-134417414D01*
D10*
D11*
X285661723Y-185593604D02*
X285661723Y-184293604D01*
X285661723Y-184293604D02*
X285971247Y-184293604D01*
X285971247Y-184293604D02*
X286156961Y-184355509D01*
X286156961Y-184355509D02*
X286280771Y-184479319D01*
X286280771Y-184479319D02*
X286342676Y-184603128D01*
X286342676Y-184603128D02*
X286404580Y-184850747D01*
X286404580Y-184850747D02*
X286404580Y-185036461D01*
X286404580Y-185036461D02*
X286342676Y-185284080D01*
X286342676Y-185284080D02*
X286280771Y-185407890D01*
X286280771Y-185407890D02*
X286156961Y-185531700D01*
X286156961Y-185531700D02*
X285971247Y-185593604D01*
X285971247Y-185593604D02*
X285661723Y-185593604D01*
D10*
D11*
X200458026Y-193793328D02*
X200458026Y-192293328D01*
X200458026Y-192293328D02*
X200815169Y-192293328D01*
X200815169Y-192293328D02*
X201029455Y-192364757D01*
X201029455Y-192364757D02*
X201172312Y-192507614D01*
X201172312Y-192507614D02*
X201243741Y-192650471D01*
X201243741Y-192650471D02*
X201315169Y-192936185D01*
X201315169Y-192936185D02*
X201315169Y-193150471D01*
X201315169Y-193150471D02*
X201243741Y-193436185D01*
X201243741Y-193436185D02*
X201172312Y-193579042D01*
X201172312Y-193579042D02*
X201029455Y-193721900D01*
X201029455Y-193721900D02*
X200815169Y-193793328D01*
X200815169Y-193793328D02*
X200458026Y-193793328D01*
X202600884Y-193793328D02*
X202600884Y-193007614D01*
X202600884Y-193007614D02*
X202529455Y-192864757D01*
X202529455Y-192864757D02*
X202386598Y-192793328D01*
X202386598Y-192793328D02*
X202100884Y-192793328D01*
X202100884Y-192793328D02*
X201958026Y-192864757D01*
X202600884Y-193721900D02*
X202458026Y-193793328D01*
X202458026Y-193793328D02*
X202100884Y-193793328D01*
X202100884Y-193793328D02*
X201958026Y-193721900D01*
X201958026Y-193721900D02*
X201886598Y-193579042D01*
X201886598Y-193579042D02*
X201886598Y-193436185D01*
X201886598Y-193436185D02*
X201958026Y-193293328D01*
X201958026Y-193293328D02*
X202100884Y-193221900D01*
X202100884Y-193221900D02*
X202458026Y-193221900D01*
X202458026Y-193221900D02*
X202600884Y-193150471D01*
X203100884Y-192793328D02*
X203672312Y-192793328D01*
X203315169Y-192293328D02*
X203315169Y-193579042D01*
X203315169Y-193579042D02*
X203386598Y-193721900D01*
X203386598Y-193721900D02*
X203529455Y-193793328D01*
X203529455Y-193793328D02*
X203672312Y-193793328D01*
X204743741Y-193721900D02*
X204600884Y-193793328D01*
X204600884Y-193793328D02*
X204315170Y-193793328D01*
X204315170Y-193793328D02*
X204172312Y-193721900D01*
X204172312Y-193721900D02*
X204100884Y-193579042D01*
X204100884Y-193579042D02*
X204100884Y-193007614D01*
X204100884Y-193007614D02*
X204172312Y-192864757D01*
X204172312Y-192864757D02*
X204315170Y-192793328D01*
X204315170Y-192793328D02*
X204600884Y-192793328D01*
X204600884Y-192793328D02*
X204743741Y-192864757D01*
X204743741Y-192864757D02*
X204815170Y-193007614D01*
X204815170Y-193007614D02*
X204815170Y-193150471D01*
X204815170Y-193150471D02*
X204100884Y-193293328D01*
X205458026Y-193650471D02*
X205529455Y-193721900D01*
X205529455Y-193721900D02*
X205458026Y-193793328D01*
X205458026Y-193793328D02*
X205386598Y-193721900D01*
X205386598Y-193721900D02*
X205458026Y-193650471D01*
X205458026Y-193650471D02*
X205458026Y-193793328D01*
X205458026Y-192864757D02*
X205529455Y-192936185D01*
X205529455Y-192936185D02*
X205458026Y-193007614D01*
X205458026Y-193007614D02*
X205386598Y-192936185D01*
X205386598Y-192936185D02*
X205458026Y-192864757D01*
X205458026Y-192864757D02*
X205458026Y-193007614D01*
D10*
D11*
X177002200Y-194507200D02*
X285002200Y-194507200D01*
D10*
D11*
X178458026Y-196593328D02*
X178458026Y-195093328D01*
X179315169Y-196593328D02*
X178672312Y-195736185D01*
X179315169Y-195093328D02*
X178458026Y-195950471D01*
X179958026Y-196593328D02*
X179958026Y-195593328D01*
X179958026Y-195093328D02*
X179886598Y-195164757D01*
X179886598Y-195164757D02*
X179958026Y-195236185D01*
X179958026Y-195236185D02*
X180029455Y-195164757D01*
X180029455Y-195164757D02*
X179958026Y-195093328D01*
X179958026Y-195093328D02*
X179958026Y-195236185D01*
X181529455Y-196450471D02*
X181458027Y-196521900D01*
X181458027Y-196521900D02*
X181243741Y-196593328D01*
X181243741Y-196593328D02*
X181100884Y-196593328D01*
X181100884Y-196593328D02*
X180886598Y-196521900D01*
X180886598Y-196521900D02*
X180743741Y-196379042D01*
X180743741Y-196379042D02*
X180672312Y-196236185D01*
X180672312Y-196236185D02*
X180600884Y-195950471D01*
X180600884Y-195950471D02*
X180600884Y-195736185D01*
X180600884Y-195736185D02*
X180672312Y-195450471D01*
X180672312Y-195450471D02*
X180743741Y-195307614D01*
X180743741Y-195307614D02*
X180886598Y-195164757D01*
X180886598Y-195164757D02*
X181100884Y-195093328D01*
X181100884Y-195093328D02*
X181243741Y-195093328D01*
X181243741Y-195093328D02*
X181458027Y-195164757D01*
X181458027Y-195164757D02*
X181529455Y-195236185D01*
X182815170Y-196593328D02*
X182815170Y-195807614D01*
X182815170Y-195807614D02*
X182743741Y-195664757D01*
X182743741Y-195664757D02*
X182600884Y-195593328D01*
X182600884Y-195593328D02*
X182315170Y-195593328D01*
X182315170Y-195593328D02*
X182172312Y-195664757D01*
X182815170Y-196521900D02*
X182672312Y-196593328D01*
X182672312Y-196593328D02*
X182315170Y-196593328D01*
X182315170Y-196593328D02*
X182172312Y-196521900D01*
X182172312Y-196521900D02*
X182100884Y-196379042D01*
X182100884Y-196379042D02*
X182100884Y-196236185D01*
X182100884Y-196236185D02*
X182172312Y-196093328D01*
X182172312Y-196093328D02*
X182315170Y-196021900D01*
X182315170Y-196021900D02*
X182672312Y-196021900D01*
X182672312Y-196021900D02*
X182815170Y-195950471D01*
X184172313Y-196593328D02*
X184172313Y-195093328D01*
X184172313Y-196521900D02*
X184029455Y-196593328D01*
X184029455Y-196593328D02*
X183743741Y-196593328D01*
X183743741Y-196593328D02*
X183600884Y-196521900D01*
X183600884Y-196521900D02*
X183529455Y-196450471D01*
X183529455Y-196450471D02*
X183458027Y-196307614D01*
X183458027Y-196307614D02*
X183458027Y-195879042D01*
X183458027Y-195879042D02*
X183529455Y-195736185D01*
X183529455Y-195736185D02*
X183600884Y-195664757D01*
X183600884Y-195664757D02*
X183743741Y-195593328D01*
X183743741Y-195593328D02*
X184029455Y-195593328D01*
X184029455Y-195593328D02*
X184172313Y-195664757D01*
X186029455Y-195807614D02*
X186529455Y-195807614D01*
X186743741Y-196593328D02*
X186029455Y-196593328D01*
X186029455Y-196593328D02*
X186029455Y-195093328D01*
X186029455Y-195093328D02*
X186743741Y-195093328D01*
X187386598Y-196450471D02*
X187458027Y-196521900D01*
X187458027Y-196521900D02*
X187386598Y-196593328D01*
X187386598Y-196593328D02*
X187315170Y-196521900D01*
X187315170Y-196521900D02*
X187386598Y-196450471D01*
X187386598Y-196450471D02*
X187386598Y-196593328D01*
X188100884Y-196593328D02*
X188100884Y-195093328D01*
X188100884Y-195093328D02*
X188458027Y-195093328D01*
X188458027Y-195093328D02*
X188672313Y-195164757D01*
X188672313Y-195164757D02*
X188815170Y-195307614D01*
X188815170Y-195307614D02*
X188886599Y-195450471D01*
X188886599Y-195450471D02*
X188958027Y-195736185D01*
X188958027Y-195736185D02*
X188958027Y-195950471D01*
X188958027Y-195950471D02*
X188886599Y-196236185D01*
X188886599Y-196236185D02*
X188815170Y-196379042D01*
X188815170Y-196379042D02*
X188672313Y-196521900D01*
X188672313Y-196521900D02*
X188458027Y-196593328D01*
X188458027Y-196593328D02*
X188100884Y-196593328D01*
X189600884Y-196450471D02*
X189672313Y-196521900D01*
X189672313Y-196521900D02*
X189600884Y-196593328D01*
X189600884Y-196593328D02*
X189529456Y-196521900D01*
X189529456Y-196521900D02*
X189600884Y-196450471D01*
X189600884Y-196450471D02*
X189600884Y-196593328D01*
X190243742Y-196164757D02*
X190958028Y-196164757D01*
X190100885Y-196593328D02*
X190600885Y-195093328D01*
X190600885Y-195093328D02*
X191100885Y-196593328D01*
X191600884Y-196450471D02*
X191672313Y-196521900D01*
X191672313Y-196521900D02*
X191600884Y-196593328D01*
X191600884Y-196593328D02*
X191529456Y-196521900D01*
X191529456Y-196521900D02*
X191600884Y-196450471D01*
X191600884Y-196450471D02*
X191600884Y-196593328D01*
X193672313Y-195736185D02*
X193529456Y-195664757D01*
X193529456Y-195664757D02*
X193458027Y-195593328D01*
X193458027Y-195593328D02*
X193386599Y-195450471D01*
X193386599Y-195450471D02*
X193386599Y-195379042D01*
X193386599Y-195379042D02*
X193458027Y-195236185D01*
X193458027Y-195236185D02*
X193529456Y-195164757D01*
X193529456Y-195164757D02*
X193672313Y-195093328D01*
X193672313Y-195093328D02*
X193958027Y-195093328D01*
X193958027Y-195093328D02*
X194100885Y-195164757D01*
X194100885Y-195164757D02*
X194172313Y-195236185D01*
X194172313Y-195236185D02*
X194243742Y-195379042D01*
X194243742Y-195379042D02*
X194243742Y-195450471D01*
X194243742Y-195450471D02*
X194172313Y-195593328D01*
X194172313Y-195593328D02*
X194100885Y-195664757D01*
X194100885Y-195664757D02*
X193958027Y-195736185D01*
X193958027Y-195736185D02*
X193672313Y-195736185D01*
X193672313Y-195736185D02*
X193529456Y-195807614D01*
X193529456Y-195807614D02*
X193458027Y-195879042D01*
X193458027Y-195879042D02*
X193386599Y-196021900D01*
X193386599Y-196021900D02*
X193386599Y-196307614D01*
X193386599Y-196307614D02*
X193458027Y-196450471D01*
X193458027Y-196450471D02*
X193529456Y-196521900D01*
X193529456Y-196521900D02*
X193672313Y-196593328D01*
X193672313Y-196593328D02*
X193958027Y-196593328D01*
X193958027Y-196593328D02*
X194100885Y-196521900D01*
X194100885Y-196521900D02*
X194172313Y-196450471D01*
X194172313Y-196450471D02*
X194243742Y-196307614D01*
X194243742Y-196307614D02*
X194243742Y-196021900D01*
X194243742Y-196021900D02*
X194172313Y-195879042D01*
X194172313Y-195879042D02*
X194100885Y-195807614D01*
X194100885Y-195807614D02*
X193958027Y-195736185D01*
X194886598Y-196450471D02*
X194958027Y-196521900D01*
X194958027Y-196521900D02*
X194886598Y-196593328D01*
X194886598Y-196593328D02*
X194815170Y-196521900D01*
X194815170Y-196521900D02*
X194886598Y-196450471D01*
X194886598Y-196450471D02*
X194886598Y-196593328D01*
X195886599Y-195093328D02*
X196029456Y-195093328D01*
X196029456Y-195093328D02*
X196172313Y-195164757D01*
X196172313Y-195164757D02*
X196243742Y-195236185D01*
X196243742Y-195236185D02*
X196315170Y-195379042D01*
X196315170Y-195379042D02*
X196386599Y-195664757D01*
X196386599Y-195664757D02*
X196386599Y-196021900D01*
X196386599Y-196021900D02*
X196315170Y-196307614D01*
X196315170Y-196307614D02*
X196243742Y-196450471D01*
X196243742Y-196450471D02*
X196172313Y-196521900D01*
X196172313Y-196521900D02*
X196029456Y-196593328D01*
X196029456Y-196593328D02*
X195886599Y-196593328D01*
X195886599Y-196593328D02*
X195743742Y-196521900D01*
X195743742Y-196521900D02*
X195672313Y-196450471D01*
X195672313Y-196450471D02*
X195600884Y-196307614D01*
X195600884Y-196307614D02*
X195529456Y-196021900D01*
X195529456Y-196021900D02*
X195529456Y-195664757D01*
X195529456Y-195664757D02*
X195600884Y-195379042D01*
X195600884Y-195379042D02*
X195672313Y-195236185D01*
X195672313Y-195236185D02*
X195743742Y-195164757D01*
X195743742Y-195164757D02*
X195886599Y-195093328D01*
X197029455Y-196450471D02*
X197100884Y-196521900D01*
X197100884Y-196521900D02*
X197029455Y-196593328D01*
X197029455Y-196593328D02*
X196958027Y-196521900D01*
X196958027Y-196521900D02*
X197029455Y-196450471D01*
X197029455Y-196450471D02*
X197029455Y-196593328D01*
X197600884Y-195093328D02*
X198600884Y-195093328D01*
X198600884Y-195093328D02*
X197958027Y-196593328D01*
D10*
D11*
X177002200Y-191507200D02*
X285002200Y-191507200D01*
D10*
D12*
X264413853Y-193785528D02*
X263913853Y-193071242D01*
X263556710Y-193785528D02*
X263556710Y-192285528D01*
X263556710Y-192285528D02*
X264128139Y-192285528D01*
X264128139Y-192285528D02*
X264270996Y-192356957D01*
X264270996Y-192356957D02*
X264342425Y-192428385D01*
X264342425Y-192428385D02*
X264413853Y-192571242D01*
X264413853Y-192571242D02*
X264413853Y-192785528D01*
X264413853Y-192785528D02*
X264342425Y-192928385D01*
X264342425Y-192928385D02*
X264270996Y-192999814D01*
X264270996Y-192999814D02*
X264128139Y-193071242D01*
X264128139Y-193071242D02*
X263556710Y-193071242D01*
X265628139Y-193714100D02*
X265485282Y-193785528D01*
X265485282Y-193785528D02*
X265199568Y-193785528D01*
X265199568Y-193785528D02*
X265056710Y-193714100D01*
X265056710Y-193714100D02*
X264985282Y-193571242D01*
X264985282Y-193571242D02*
X264985282Y-192999814D01*
X264985282Y-192999814D02*
X265056710Y-192856957D01*
X265056710Y-192856957D02*
X265199568Y-192785528D01*
X265199568Y-192785528D02*
X265485282Y-192785528D01*
X265485282Y-192785528D02*
X265628139Y-192856957D01*
X265628139Y-192856957D02*
X265699568Y-192999814D01*
X265699568Y-192999814D02*
X265699568Y-193142671D01*
X265699568Y-193142671D02*
X264985282Y-193285528D01*
X266199567Y-192785528D02*
X266556710Y-193785528D01*
X266556710Y-193785528D02*
X266913853Y-192785528D01*
X267485281Y-193642671D02*
X267556710Y-193714100D01*
X267556710Y-193714100D02*
X267485281Y-193785528D01*
X267485281Y-193785528D02*
X267413853Y-193714100D01*
X267413853Y-193714100D02*
X267485281Y-193642671D01*
X267485281Y-193642671D02*
X267485281Y-193785528D01*
X267485281Y-192856957D02*
X267556710Y-192928385D01*
X267556710Y-192928385D02*
X267485281Y-192999814D01*
X267485281Y-192999814D02*
X267413853Y-192928385D01*
X267413853Y-192928385D02*
X267485281Y-192856957D01*
X267485281Y-192856957D02*
X267485281Y-192999814D01*
D10*
D11*
X178386598Y-193721900D02*
X178600884Y-193793328D01*
X178600884Y-193793328D02*
X178958026Y-193793328D01*
X178958026Y-193793328D02*
X179100884Y-193721900D01*
X179100884Y-193721900D02*
X179172312Y-193650471D01*
X179172312Y-193650471D02*
X179243741Y-193507614D01*
X179243741Y-193507614D02*
X179243741Y-193364757D01*
X179243741Y-193364757D02*
X179172312Y-193221900D01*
X179172312Y-193221900D02*
X179100884Y-193150471D01*
X179100884Y-193150471D02*
X178958026Y-193079042D01*
X178958026Y-193079042D02*
X178672312Y-193007614D01*
X178672312Y-193007614D02*
X178529455Y-192936185D01*
X178529455Y-192936185D02*
X178458026Y-192864757D01*
X178458026Y-192864757D02*
X178386598Y-192721900D01*
X178386598Y-192721900D02*
X178386598Y-192579042D01*
X178386598Y-192579042D02*
X178458026Y-192436185D01*
X178458026Y-192436185D02*
X178529455Y-192364757D01*
X178529455Y-192364757D02*
X178672312Y-192293328D01*
X178672312Y-192293328D02*
X179029455Y-192293328D01*
X179029455Y-192293328D02*
X179243741Y-192364757D01*
X179886597Y-193793328D02*
X179886597Y-192793328D01*
X179886597Y-192293328D02*
X179815169Y-192364757D01*
X179815169Y-192364757D02*
X179886597Y-192436185D01*
X179886597Y-192436185D02*
X179958026Y-192364757D01*
X179958026Y-192364757D02*
X179886597Y-192293328D01*
X179886597Y-192293328D02*
X179886597Y-192436185D01*
X180458026Y-192793328D02*
X181243741Y-192793328D01*
X181243741Y-192793328D02*
X180458026Y-193793328D01*
X180458026Y-193793328D02*
X181243741Y-193793328D01*
X182386598Y-193721900D02*
X182243741Y-193793328D01*
X182243741Y-193793328D02*
X181958027Y-193793328D01*
X181958027Y-193793328D02*
X181815169Y-193721900D01*
X181815169Y-193721900D02*
X181743741Y-193579042D01*
X181743741Y-193579042D02*
X181743741Y-193007614D01*
X181743741Y-193007614D02*
X181815169Y-192864757D01*
X181815169Y-192864757D02*
X181958027Y-192793328D01*
X181958027Y-192793328D02*
X182243741Y-192793328D01*
X182243741Y-192793328D02*
X182386598Y-192864757D01*
X182386598Y-192864757D02*
X182458027Y-193007614D01*
X182458027Y-193007614D02*
X182458027Y-193150471D01*
X182458027Y-193150471D02*
X181743741Y-193293328D01*
X183100883Y-193650471D02*
X183172312Y-193721900D01*
X183172312Y-193721900D02*
X183100883Y-193793328D01*
X183100883Y-193793328D02*
X183029455Y-193721900D01*
X183029455Y-193721900D02*
X183100883Y-193650471D01*
X183100883Y-193650471D02*
X183100883Y-193793328D01*
X183100883Y-192864757D02*
X183172312Y-192936185D01*
X183172312Y-192936185D02*
X183100883Y-193007614D01*
X183100883Y-193007614D02*
X183029455Y-192936185D01*
X183029455Y-192936185D02*
X183100883Y-192864757D01*
X183100883Y-192864757D02*
X183100883Y-193007614D01*
X184886598Y-193364757D02*
X185600884Y-193364757D01*
X184743741Y-193793328D02*
X185243741Y-192293328D01*
X185243741Y-192293328D02*
X185743741Y-193793328D01*
X186886598Y-192793328D02*
X186886598Y-193793328D01*
X186529455Y-192221900D02*
X186172312Y-193293328D01*
X186172312Y-193293328D02*
X187100883Y-193293328D01*
D10*
D11*
X263458026Y-196593328D02*
X263458026Y-195093328D01*
X264815170Y-196593328D02*
X264815170Y-195093328D01*
X264815170Y-196521900D02*
X264672312Y-196593328D01*
X264672312Y-196593328D02*
X264386598Y-196593328D01*
X264386598Y-196593328D02*
X264243741Y-196521900D01*
X264243741Y-196521900D02*
X264172312Y-196450471D01*
X264172312Y-196450471D02*
X264100884Y-196307614D01*
X264100884Y-196307614D02*
X264100884Y-195879042D01*
X264100884Y-195879042D02*
X264172312Y-195736185D01*
X264172312Y-195736185D02*
X264243741Y-195664757D01*
X264243741Y-195664757D02*
X264386598Y-195593328D01*
X264386598Y-195593328D02*
X264672312Y-195593328D01*
X264672312Y-195593328D02*
X264815170Y-195664757D01*
X265529455Y-196450471D02*
X265600884Y-196521900D01*
X265600884Y-196521900D02*
X265529455Y-196593328D01*
X265529455Y-196593328D02*
X265458027Y-196521900D01*
X265458027Y-196521900D02*
X265529455Y-196450471D01*
X265529455Y-196450471D02*
X265529455Y-196593328D01*
X265529455Y-195664757D02*
X265600884Y-195736185D01*
X265600884Y-195736185D02*
X265529455Y-195807614D01*
X265529455Y-195807614D02*
X265458027Y-195736185D01*
X265458027Y-195736185D02*
X265529455Y-195664757D01*
X265529455Y-195664757D02*
X265529455Y-195807614D01*
X268172313Y-196593328D02*
X267315170Y-196593328D01*
X267743741Y-196593328D02*
X267743741Y-195093328D01*
X267743741Y-195093328D02*
X267600884Y-195307614D01*
X267600884Y-195307614D02*
X267458027Y-195450471D01*
X267458027Y-195450471D02*
X267315170Y-195521900D01*
X269886598Y-195021900D02*
X268600884Y-196950471D01*
X271172313Y-196593328D02*
X270315170Y-196593328D01*
X270743741Y-196593328D02*
X270743741Y-195093328D01*
X270743741Y-195093328D02*
X270600884Y-195307614D01*
X270600884Y-195307614D02*
X270458027Y-195450471D01*
X270458027Y-195450471D02*
X270315170Y-195521900D01*
D10*
D11*
X177002200Y-187507200D02*
X285002200Y-187507200D01*
D10*
D13*
X178693928Y-188211638D02*
X179836785Y-188211638D01*
X179015357Y-190211638D02*
X179265357Y-188211638D01*
X180253452Y-190211638D02*
X180420119Y-188878304D01*
X180503452Y-188211638D02*
X180396309Y-188306876D01*
X180396309Y-188306876D02*
X180479643Y-188402114D01*
X180479643Y-188402114D02*
X180586786Y-188306876D01*
X180586786Y-188306876D02*
X180503452Y-188211638D01*
X180503452Y-188211638D02*
X180479643Y-188402114D01*
X181086786Y-188878304D02*
X181848690Y-188878304D01*
X181455833Y-188211638D02*
X181241548Y-189925923D01*
X181241548Y-189925923D02*
X181312976Y-190116400D01*
X181312976Y-190116400D02*
X181491548Y-190211638D01*
X181491548Y-190211638D02*
X181682024Y-190211638D01*
X182634405Y-190211638D02*
X182455833Y-190116400D01*
X182455833Y-190116400D02*
X182384405Y-189925923D01*
X182384405Y-189925923D02*
X182598690Y-188211638D01*
X184170119Y-190116400D02*
X183967738Y-190211638D01*
X183967738Y-190211638D02*
X183586785Y-190211638D01*
X183586785Y-190211638D02*
X183408214Y-190116400D01*
X183408214Y-190116400D02*
X183336785Y-189925923D01*
X183336785Y-189925923D02*
X183432024Y-189164019D01*
X183432024Y-189164019D02*
X183551071Y-188973542D01*
X183551071Y-188973542D02*
X183753452Y-188878304D01*
X183753452Y-188878304D02*
X184134404Y-188878304D01*
X184134404Y-188878304D02*
X184312976Y-188973542D01*
X184312976Y-188973542D02*
X184384404Y-189164019D01*
X184384404Y-189164019D02*
X184360595Y-189354495D01*
X184360595Y-189354495D02*
X183384404Y-189544971D01*
X185134405Y-190021161D02*
X185217738Y-190116400D01*
X185217738Y-190116400D02*
X185110595Y-190211638D01*
X185110595Y-190211638D02*
X185027262Y-190116400D01*
X185027262Y-190116400D02*
X185134405Y-190021161D01*
X185134405Y-190021161D02*
X185110595Y-190211638D01*
X185265357Y-188973542D02*
X185348690Y-189068780D01*
X185348690Y-189068780D02*
X185241548Y-189164019D01*
X185241548Y-189164019D02*
X185158214Y-189068780D01*
X185158214Y-189068780D02*
X185265357Y-188973542D01*
X185265357Y-188973542D02*
X185241548Y-189164019D01*
D10*
D11*
X178958026Y-185607614D02*
X178458026Y-185607614D01*
X178458026Y-186393328D02*
X178458026Y-184893328D01*
X178458026Y-184893328D02*
X179172312Y-184893328D01*
X179743740Y-186393328D02*
X179743740Y-185393328D01*
X179743740Y-184893328D02*
X179672312Y-184964757D01*
X179672312Y-184964757D02*
X179743740Y-185036185D01*
X179743740Y-185036185D02*
X179815169Y-184964757D01*
X179815169Y-184964757D02*
X179743740Y-184893328D01*
X179743740Y-184893328D02*
X179743740Y-185036185D01*
X180672312Y-186393328D02*
X180529455Y-186321900D01*
X180529455Y-186321900D02*
X180458026Y-186179042D01*
X180458026Y-186179042D02*
X180458026Y-184893328D01*
X181815169Y-186321900D02*
X181672312Y-186393328D01*
X181672312Y-186393328D02*
X181386598Y-186393328D01*
X181386598Y-186393328D02*
X181243740Y-186321900D01*
X181243740Y-186321900D02*
X181172312Y-186179042D01*
X181172312Y-186179042D02*
X181172312Y-185607614D01*
X181172312Y-185607614D02*
X181243740Y-185464757D01*
X181243740Y-185464757D02*
X181386598Y-185393328D01*
X181386598Y-185393328D02*
X181672312Y-185393328D01*
X181672312Y-185393328D02*
X181815169Y-185464757D01*
X181815169Y-185464757D02*
X181886598Y-185607614D01*
X181886598Y-185607614D02*
X181886598Y-185750471D01*
X181886598Y-185750471D02*
X181172312Y-185893328D01*
X182529454Y-186250471D02*
X182600883Y-186321900D01*
X182600883Y-186321900D02*
X182529454Y-186393328D01*
X182529454Y-186393328D02*
X182458026Y-186321900D01*
X182458026Y-186321900D02*
X182529454Y-186250471D01*
X182529454Y-186250471D02*
X182529454Y-186393328D01*
X182529454Y-185464757D02*
X182600883Y-185536185D01*
X182600883Y-185536185D02*
X182529454Y-185607614D01*
X182529454Y-185607614D02*
X182458026Y-185536185D01*
X182458026Y-185536185D02*
X182529454Y-185464757D01*
X182529454Y-185464757D02*
X182529454Y-185607614D01*
X184386597Y-186393328D02*
X184386597Y-184893328D01*
X184386597Y-184893328D02*
X184958026Y-184893328D01*
X184958026Y-184893328D02*
X185100883Y-184964757D01*
X185100883Y-184964757D02*
X185172312Y-185036185D01*
X185172312Y-185036185D02*
X185243740Y-185179042D01*
X185243740Y-185179042D02*
X185243740Y-185393328D01*
X185243740Y-185393328D02*
X185172312Y-185536185D01*
X185172312Y-185536185D02*
X185100883Y-185607614D01*
X185100883Y-185607614D02*
X184958026Y-185679042D01*
X184958026Y-185679042D02*
X184386597Y-185679042D01*
X185886597Y-186393328D02*
X185886597Y-184893328D01*
X185886597Y-184893328D02*
X186386597Y-185964757D01*
X186386597Y-185964757D02*
X186886597Y-184893328D01*
X186886597Y-184893328D02*
X186886597Y-186393328D01*
X187458026Y-184893328D02*
X187815169Y-186393328D01*
X187815169Y-186393328D02*
X188100883Y-185321900D01*
X188100883Y-185321900D02*
X188386598Y-186393328D01*
X188386598Y-186393328D02*
X188743741Y-184893328D01*
X189172312Y-184893328D02*
X190100884Y-184893328D01*
X190100884Y-184893328D02*
X189600884Y-185464757D01*
X189600884Y-185464757D02*
X189815169Y-185464757D01*
X189815169Y-185464757D02*
X189958027Y-185536185D01*
X189958027Y-185536185D02*
X190029455Y-185607614D01*
X190029455Y-185607614D02*
X190100884Y-185750471D01*
X190100884Y-185750471D02*
X190100884Y-186107614D01*
X190100884Y-186107614D02*
X190029455Y-186250471D01*
X190029455Y-186250471D02*
X189958027Y-186321900D01*
X189958027Y-186321900D02*
X189815169Y-186393328D01*
X189815169Y-186393328D02*
X189386598Y-186393328D01*
X189386598Y-186393328D02*
X189243741Y-186321900D01*
X189243741Y-186321900D02*
X189172312Y-186250471D01*
X190600883Y-184893328D02*
X191529455Y-184893328D01*
X191529455Y-184893328D02*
X191029455Y-185464757D01*
X191029455Y-185464757D02*
X191243740Y-185464757D01*
X191243740Y-185464757D02*
X191386598Y-185536185D01*
X191386598Y-185536185D02*
X191458026Y-185607614D01*
X191458026Y-185607614D02*
X191529455Y-185750471D01*
X191529455Y-185750471D02*
X191529455Y-186107614D01*
X191529455Y-186107614D02*
X191458026Y-186250471D01*
X191458026Y-186250471D02*
X191386598Y-186321900D01*
X191386598Y-186321900D02*
X191243740Y-186393328D01*
X191243740Y-186393328D02*
X190815169Y-186393328D01*
X190815169Y-186393328D02*
X190672312Y-186321900D01*
X190672312Y-186321900D02*
X190600883Y-186250471D01*
X192815169Y-184893328D02*
X192529454Y-184893328D01*
X192529454Y-184893328D02*
X192386597Y-184964757D01*
X192386597Y-184964757D02*
X192315169Y-185036185D01*
X192315169Y-185036185D02*
X192172311Y-185250471D01*
X192172311Y-185250471D02*
X192100883Y-185536185D01*
X192100883Y-185536185D02*
X192100883Y-186107614D01*
X192100883Y-186107614D02*
X192172311Y-186250471D01*
X192172311Y-186250471D02*
X192243740Y-186321900D01*
X192243740Y-186321900D02*
X192386597Y-186393328D01*
X192386597Y-186393328D02*
X192672311Y-186393328D01*
X192672311Y-186393328D02*
X192815169Y-186321900D01*
X192815169Y-186321900D02*
X192886597Y-186250471D01*
X192886597Y-186250471D02*
X192958026Y-186107614D01*
X192958026Y-186107614D02*
X192958026Y-185750471D01*
X192958026Y-185750471D02*
X192886597Y-185607614D01*
X192886597Y-185607614D02*
X192815169Y-185536185D01*
X192815169Y-185536185D02*
X192672311Y-185464757D01*
X192672311Y-185464757D02*
X192386597Y-185464757D01*
X192386597Y-185464757D02*
X192243740Y-185536185D01*
X192243740Y-185536185D02*
X192172311Y-185607614D01*
X192172311Y-185607614D02*
X192100883Y-185750471D01*
X193886597Y-184893328D02*
X194029454Y-184893328D01*
X194029454Y-184893328D02*
X194172311Y-184964757D01*
X194172311Y-184964757D02*
X194243740Y-185036185D01*
X194243740Y-185036185D02*
X194315168Y-185179042D01*
X194315168Y-185179042D02*
X194386597Y-185464757D01*
X194386597Y-185464757D02*
X194386597Y-185821900D01*
X194386597Y-185821900D02*
X194315168Y-186107614D01*
X194315168Y-186107614D02*
X194243740Y-186250471D01*
X194243740Y-186250471D02*
X194172311Y-186321900D01*
X194172311Y-186321900D02*
X194029454Y-186393328D01*
X194029454Y-186393328D02*
X193886597Y-186393328D01*
X193886597Y-186393328D02*
X193743740Y-186321900D01*
X193743740Y-186321900D02*
X193672311Y-186250471D01*
X193672311Y-186250471D02*
X193600882Y-186107614D01*
X193600882Y-186107614D02*
X193529454Y-185821900D01*
X193529454Y-185821900D02*
X193529454Y-185464757D01*
X193529454Y-185464757D02*
X193600882Y-185179042D01*
X193600882Y-185179042D02*
X193672311Y-185036185D01*
X193672311Y-185036185D02*
X193743740Y-184964757D01*
X193743740Y-184964757D02*
X193886597Y-184893328D01*
X195029453Y-186250471D02*
X195100882Y-186321900D01*
X195100882Y-186321900D02*
X195029453Y-186393328D01*
X195029453Y-186393328D02*
X194958025Y-186321900D01*
X194958025Y-186321900D02*
X195029453Y-186250471D01*
X195029453Y-186250471D02*
X195029453Y-186393328D01*
X195743739Y-186393328D02*
X195743739Y-184893328D01*
X195886597Y-185821900D02*
X196315168Y-186393328D01*
X196315168Y-185393328D02*
X195743739Y-185964757D01*
X196958025Y-186393328D02*
X196958025Y-185393328D01*
X196958025Y-184893328D02*
X196886597Y-184964757D01*
X196886597Y-184964757D02*
X196958025Y-185036185D01*
X196958025Y-185036185D02*
X197029454Y-184964757D01*
X197029454Y-184964757D02*
X196958025Y-184893328D01*
X196958025Y-184893328D02*
X196958025Y-185036185D01*
X198315169Y-186321900D02*
X198172311Y-186393328D01*
X198172311Y-186393328D02*
X197886597Y-186393328D01*
X197886597Y-186393328D02*
X197743740Y-186321900D01*
X197743740Y-186321900D02*
X197672311Y-186250471D01*
X197672311Y-186250471D02*
X197600883Y-186107614D01*
X197600883Y-186107614D02*
X197600883Y-185679042D01*
X197600883Y-185679042D02*
X197672311Y-185536185D01*
X197672311Y-185536185D02*
X197743740Y-185464757D01*
X197743740Y-185464757D02*
X197886597Y-185393328D01*
X197886597Y-185393328D02*
X198172311Y-185393328D01*
X198172311Y-185393328D02*
X198315169Y-185464757D01*
X199600883Y-186393328D02*
X199600883Y-185607614D01*
X199600883Y-185607614D02*
X199529454Y-185464757D01*
X199529454Y-185464757D02*
X199386597Y-185393328D01*
X199386597Y-185393328D02*
X199100883Y-185393328D01*
X199100883Y-185393328D02*
X198958025Y-185464757D01*
X199600883Y-186321900D02*
X199458025Y-186393328D01*
X199458025Y-186393328D02*
X199100883Y-186393328D01*
X199100883Y-186393328D02*
X198958025Y-186321900D01*
X198958025Y-186321900D02*
X198886597Y-186179042D01*
X198886597Y-186179042D02*
X198886597Y-186036185D01*
X198886597Y-186036185D02*
X198958025Y-185893328D01*
X198958025Y-185893328D02*
X199100883Y-185821900D01*
X199100883Y-185821900D02*
X199458025Y-185821900D01*
X199458025Y-185821900D02*
X199600883Y-185750471D01*
X200958026Y-186393328D02*
X200958026Y-184893328D01*
X200958026Y-186321900D02*
X200815168Y-186393328D01*
X200815168Y-186393328D02*
X200529454Y-186393328D01*
X200529454Y-186393328D02*
X200386597Y-186321900D01*
X200386597Y-186321900D02*
X200315168Y-186250471D01*
X200315168Y-186250471D02*
X200243740Y-186107614D01*
X200243740Y-186107614D02*
X200243740Y-185679042D01*
X200243740Y-185679042D02*
X200315168Y-185536185D01*
X200315168Y-185536185D02*
X200386597Y-185464757D01*
X200386597Y-185464757D02*
X200529454Y-185393328D01*
X200529454Y-185393328D02*
X200815168Y-185393328D01*
X200815168Y-185393328D02*
X200958026Y-185464757D01*
X201315169Y-186536185D02*
X202458026Y-186536185D01*
X202815168Y-185393328D02*
X202815168Y-186893328D01*
X202815168Y-185464757D02*
X202958026Y-185393328D01*
X202958026Y-185393328D02*
X203243740Y-185393328D01*
X203243740Y-185393328D02*
X203386597Y-185464757D01*
X203386597Y-185464757D02*
X203458026Y-185536185D01*
X203458026Y-185536185D02*
X203529454Y-185679042D01*
X203529454Y-185679042D02*
X203529454Y-186107614D01*
X203529454Y-186107614D02*
X203458026Y-186250471D01*
X203458026Y-186250471D02*
X203386597Y-186321900D01*
X203386597Y-186321900D02*
X203243740Y-186393328D01*
X203243740Y-186393328D02*
X202958026Y-186393328D01*
X202958026Y-186393328D02*
X202815168Y-186321900D01*
X204815169Y-186321900D02*
X204672311Y-186393328D01*
X204672311Y-186393328D02*
X204386597Y-186393328D01*
X204386597Y-186393328D02*
X204243740Y-186321900D01*
X204243740Y-186321900D02*
X204172311Y-186250471D01*
X204172311Y-186250471D02*
X204100883Y-186107614D01*
X204100883Y-186107614D02*
X204100883Y-185679042D01*
X204100883Y-185679042D02*
X204172311Y-185536185D01*
X204172311Y-185536185D02*
X204243740Y-185464757D01*
X204243740Y-185464757D02*
X204386597Y-185393328D01*
X204386597Y-185393328D02*
X204672311Y-185393328D01*
X204672311Y-185393328D02*
X204815169Y-185464757D01*
X205458025Y-186393328D02*
X205458025Y-184893328D01*
X205458025Y-185464757D02*
X205600883Y-185393328D01*
X205600883Y-185393328D02*
X205886597Y-185393328D01*
X205886597Y-185393328D02*
X206029454Y-185464757D01*
X206029454Y-185464757D02*
X206100883Y-185536185D01*
X206100883Y-185536185D02*
X206172311Y-185679042D01*
X206172311Y-185679042D02*
X206172311Y-186107614D01*
X206172311Y-186107614D02*
X206100883Y-186250471D01*
X206100883Y-186250471D02*
X206029454Y-186321900D01*
X206029454Y-186321900D02*
X205886597Y-186393328D01*
X205886597Y-186393328D02*
X205600883Y-186393328D01*
X205600883Y-186393328D02*
X205458025Y-186321900D01*
D10*
D11*
X177002200Y-181507200D02*
X285002200Y-181507200D01*
D10*
D11*
X178386598Y-183621900D02*
X178600884Y-183693328D01*
X178600884Y-183693328D02*
X178958026Y-183693328D01*
X178958026Y-183693328D02*
X179100884Y-183621900D01*
X179100884Y-183621900D02*
X179172312Y-183550471D01*
X179172312Y-183550471D02*
X179243741Y-183407614D01*
X179243741Y-183407614D02*
X179243741Y-183264757D01*
X179243741Y-183264757D02*
X179172312Y-183121900D01*
X179172312Y-183121900D02*
X179100884Y-183050471D01*
X179100884Y-183050471D02*
X178958026Y-182979042D01*
X178958026Y-182979042D02*
X178672312Y-182907614D01*
X178672312Y-182907614D02*
X178529455Y-182836185D01*
X178529455Y-182836185D02*
X178458026Y-182764757D01*
X178458026Y-182764757D02*
X178386598Y-182621900D01*
X178386598Y-182621900D02*
X178386598Y-182479042D01*
X178386598Y-182479042D02*
X178458026Y-182336185D01*
X178458026Y-182336185D02*
X178529455Y-182264757D01*
X178529455Y-182264757D02*
X178672312Y-182193328D01*
X178672312Y-182193328D02*
X179029455Y-182193328D01*
X179029455Y-182193328D02*
X179243741Y-182264757D01*
X179886597Y-183693328D02*
X179886597Y-182193328D01*
X180529455Y-183693328D02*
X180529455Y-182907614D01*
X180529455Y-182907614D02*
X180458026Y-182764757D01*
X180458026Y-182764757D02*
X180315169Y-182693328D01*
X180315169Y-182693328D02*
X180100883Y-182693328D01*
X180100883Y-182693328D02*
X179958026Y-182764757D01*
X179958026Y-182764757D02*
X179886597Y-182836185D01*
X181815169Y-183621900D02*
X181672312Y-183693328D01*
X181672312Y-183693328D02*
X181386598Y-183693328D01*
X181386598Y-183693328D02*
X181243740Y-183621900D01*
X181243740Y-183621900D02*
X181172312Y-183479042D01*
X181172312Y-183479042D02*
X181172312Y-182907614D01*
X181172312Y-182907614D02*
X181243740Y-182764757D01*
X181243740Y-182764757D02*
X181386598Y-182693328D01*
X181386598Y-182693328D02*
X181672312Y-182693328D01*
X181672312Y-182693328D02*
X181815169Y-182764757D01*
X181815169Y-182764757D02*
X181886598Y-182907614D01*
X181886598Y-182907614D02*
X181886598Y-183050471D01*
X181886598Y-183050471D02*
X181172312Y-183193328D01*
X183100883Y-183621900D02*
X182958026Y-183693328D01*
X182958026Y-183693328D02*
X182672312Y-183693328D01*
X182672312Y-183693328D02*
X182529454Y-183621900D01*
X182529454Y-183621900D02*
X182458026Y-183479042D01*
X182458026Y-183479042D02*
X182458026Y-182907614D01*
X182458026Y-182907614D02*
X182529454Y-182764757D01*
X182529454Y-182764757D02*
X182672312Y-182693328D01*
X182672312Y-182693328D02*
X182958026Y-182693328D01*
X182958026Y-182693328D02*
X183100883Y-182764757D01*
X183100883Y-182764757D02*
X183172312Y-182907614D01*
X183172312Y-182907614D02*
X183172312Y-183050471D01*
X183172312Y-183050471D02*
X182458026Y-183193328D01*
X183600883Y-182693328D02*
X184172311Y-182693328D01*
X183815168Y-182193328D02*
X183815168Y-183479042D01*
X183815168Y-183479042D02*
X183886597Y-183621900D01*
X183886597Y-183621900D02*
X184029454Y-183693328D01*
X184029454Y-183693328D02*
X184172311Y-183693328D01*
X184672311Y-183550471D02*
X184743740Y-183621900D01*
X184743740Y-183621900D02*
X184672311Y-183693328D01*
X184672311Y-183693328D02*
X184600883Y-183621900D01*
X184600883Y-183621900D02*
X184672311Y-183550471D01*
X184672311Y-183550471D02*
X184672311Y-183693328D01*
X184672311Y-182764757D02*
X184743740Y-182836185D01*
X184743740Y-182836185D02*
X184672311Y-182907614D01*
X184672311Y-182907614D02*
X184600883Y-182836185D01*
X184600883Y-182836185D02*
X184672311Y-182764757D01*
X184672311Y-182764757D02*
X184672311Y-182907614D01*
D10*
D11*
X197002200Y-191507200D02*
X197002200Y-194507200D01*
D10*
D11*
X261002200Y-191507200D02*
X261002200Y-198007200D01*
D14*
X143650000Y-100250000D03*
D15*
X143650000Y-102030000D03*
X143650000Y-103810000D03*
X143650000Y-105590000D03*
X143650000Y-107370000D03*
X143650000Y-109150000D03*
X143650000Y-110930000D03*
X143650000Y-112710000D03*
X154350000Y-113600000D03*
X154350000Y-111820000D03*
X154350000Y-110040000D03*
X154350000Y-108260000D03*
X154350000Y-106480000D03*
X154350000Y-104700000D03*
X154350000Y-102920000D03*
X154350000Y-101140000D03*
D16*
X158875000Y-104035000D03*
X140225000Y-106685306D03*
X140500000Y-117410000D03*
X153000000Y-96910000D03*
X158875000Y-105285000D03*
X156500000Y-113410000D03*
X159875000Y-106535000D03*
X157150000Y-110260000D03*
D17*
X143550000Y-103910000D02*
X143650000Y-103810000D01*
D18*
X143385000Y-107635000D02*
X143650000Y-107370000D01*
X142612500Y-104552500D02*
X143650000Y-105590000D01*
X143555000Y-105685000D02*
X143650000Y-105590000D01*
X153000000Y-96910000D02*
X144978326Y-96910000D01*
X144978326Y-96910000D02*
X142612500Y-99275826D01*
X142612500Y-99275826D02*
X142612500Y-104552500D01*
D17*
X158875000Y-105285000D02*
X158875000Y-109631016D01*
X158875000Y-109631016D02*
X156686016Y-111820000D01*
X156686016Y-111820000D02*
X154350000Y-111820000D01*
X156500000Y-113410000D02*
X159875000Y-110035000D01*
X159875000Y-110035000D02*
X159875000Y-106535000D01*
X154475000Y-108135000D02*
X154350000Y-108260000D01*
X157150000Y-109280000D02*
X154350000Y-106480000D01*
X157150000Y-110260000D02*
X157150000Y-109280000D01*
%TA.AperFunction,Conductor*%
G36*
X159416621Y-91855502D02*
G01*
X159463114Y-91909158D01*
X159474500Y-91961500D01*
X159474500Y-96620564D01*
X162437595Y-99583658D01*
X162471621Y-99645970D01*
X162474500Y-99672753D01*
X162474500Y-112047246D01*
X162454498Y-112115367D01*
X162437595Y-112136341D01*
X159474500Y-115099435D01*
X159474500Y-119858500D01*
X159454498Y-119926621D01*
X159400842Y-119973114D01*
X159348500Y-119984500D01*
X138651500Y-119984500D01*
X138583379Y-119964498D01*
X138536886Y-119910842D01*
X138525500Y-119858500D01*
X138525500Y-117803713D01*
X147649500Y-117803713D01*
X147649500Y-118016287D01*
X147682754Y-118226243D01*
X147748443Y-118428412D01*
X147844949Y-118617816D01*
X147969896Y-118789792D01*
X147969898Y-118789794D01*
X147969900Y-118789797D01*
X148120202Y-118940099D01*
X148120205Y-118940101D01*
X148120208Y-118940104D01*
X148292184Y-119065051D01*
X148481588Y-119161557D01*
X148683757Y-119227246D01*
X148893713Y-119260500D01*
X148893716Y-119260500D01*
X149106284Y-119260500D01*
X149106287Y-119260500D01*
X149316243Y-119227246D01*
X149518412Y-119161557D01*
X149707816Y-119065051D01*
X149879792Y-118940104D01*
X150030104Y-118789792D01*
X150155051Y-118617816D01*
X150251557Y-118428412D01*
X150317246Y-118226243D01*
X150350500Y-118016287D01*
X150350500Y-117803713D01*
X150317246Y-117593757D01*
X150251557Y-117391588D01*
X150155051Y-117202184D01*
X150030104Y-117030208D01*
X150030101Y-117030205D01*
X150030099Y-117030202D01*
X149879797Y-116879900D01*
X149879794Y-116879898D01*
X149879792Y-116879896D01*
X149707816Y-116754949D01*
X149518412Y-116658443D01*
X149316243Y-116592754D01*
X149106287Y-116559500D01*
X148893713Y-116559500D01*
X148683757Y-116592754D01*
X148683754Y-116592754D01*
X148683753Y-116592755D01*
X148481588Y-116658443D01*
X148481586Y-116658444D01*
X148292180Y-116754951D01*
X148120205Y-116879898D01*
X148120202Y-116879900D01*
X147969900Y-117030202D01*
X147969898Y-117030205D01*
X147844951Y-117202180D01*
X147844949Y-117202184D01*
X147748443Y-117391588D01*
X147682754Y-117593757D01*
X147649500Y-117803713D01*
X138525500Y-117803713D01*
X138525500Y-112709995D01*
X142537253Y-112709995D01*
X142537253Y-112710004D01*
X142556199Y-112914461D01*
X142556199Y-112914465D01*
X142612391Y-113111962D01*
X142612394Y-113111970D01*
X142703925Y-113295789D01*
X142704386Y-113296400D01*
X142704387Y-113296400D01*
X143290789Y-112709999D01*
X142704387Y-112123597D01*
X142704386Y-112123597D01*
X142703926Y-112124208D01*
X142612394Y-112308029D01*
X142612391Y-112308037D01*
X142556199Y-112505534D01*
X142556199Y-112505538D01*
X142537253Y-112709995D01*
X138525500Y-112709995D01*
X138525500Y-99207268D01*
X141916500Y-99207268D01*
X141916500Y-104621055D01*
X141932523Y-104701608D01*
X141943246Y-104755516D01*
X141964381Y-104806540D01*
X141995712Y-104882180D01*
X142016603Y-104913445D01*
X142071880Y-104996173D01*
X142071885Y-104996179D01*
X142176001Y-105100295D01*
X142176015Y-105100307D01*
X142505861Y-105430153D01*
X142539887Y-105492465D01*
X142542229Y-105530871D01*
X142536900Y-105588392D01*
X142536751Y-105590000D01*
X142545379Y-105683115D01*
X142555706Y-105794562D01*
X142611923Y-105992144D01*
X142611929Y-105992160D01*
X142703493Y-106176045D01*
X142703497Y-106176050D01*
X142827298Y-106339990D01*
X142878738Y-106386885D01*
X142915604Y-106447560D01*
X142913815Y-106518534D01*
X142878738Y-106573115D01*
X142827298Y-106620009D01*
X142703497Y-106783949D01*
X142703493Y-106783954D01*
X142611929Y-106967839D01*
X142611923Y-106967855D01*
X142555706Y-107165437D01*
X142536751Y-107370000D01*
X142555706Y-107574562D01*
X142611923Y-107772144D01*
X142611929Y-107772160D01*
X142703493Y-107956045D01*
X142703497Y-107956050D01*
X142827298Y-108119990D01*
X142878738Y-108166885D01*
X142915604Y-108227560D01*
X142913815Y-108298534D01*
X142878738Y-108353115D01*
X142827298Y-108400009D01*
X142703497Y-108563949D01*
X142703493Y-108563954D01*
X142611929Y-108747839D01*
X142611923Y-108747855D01*
X142555706Y-108945437D01*
X142536751Y-109150000D01*
X142555706Y-109354562D01*
X142611923Y-109552144D01*
X142611929Y-109552160D01*
X142703493Y-109736045D01*
X142703497Y-109736050D01*
X142827298Y-109899990D01*
X142878738Y-109946885D01*
X142915604Y-110007560D01*
X142913815Y-110078534D01*
X142878738Y-110133115D01*
X142827298Y-110180009D01*
X142703497Y-110343949D01*
X142703493Y-110343954D01*
X142611929Y-110527839D01*
X142611923Y-110527855D01*
X142555706Y-110725437D01*
X142536751Y-110930000D01*
X142555706Y-111134562D01*
X142611923Y-111332144D01*
X142611929Y-111332160D01*
X142703493Y-111516045D01*
X142703497Y-111516050D01*
X142827297Y-111679990D01*
X142979116Y-111818391D01*
X142979118Y-111818392D01*
X143153782Y-111926540D01*
X143246480Y-111962450D01*
X143290057Y-111990846D01*
X143659210Y-112360000D01*
X143603922Y-112360000D01*
X143514905Y-112383852D01*
X143435095Y-112429930D01*
X143369930Y-112495095D01*
X143323852Y-112574905D01*
X143300000Y-112663922D01*
X143300000Y-112756078D01*
X143323852Y-112845095D01*
X143369930Y-112924905D01*
X143435095Y-112990070D01*
X143514905Y-113036148D01*
X143603922Y-113060000D01*
X143659209Y-113060000D01*
X143066994Y-113652214D01*
X143154002Y-113706087D01*
X143154011Y-113706092D01*
X143345474Y-113780266D01*
X143345477Y-113780267D01*
X143547331Y-113818000D01*
X143752669Y-113818000D01*
X143954522Y-113780267D01*
X143954525Y-113780266D01*
X144145988Y-113706092D01*
X144145997Y-113706087D01*
X144282169Y-113621774D01*
X144350617Y-113602919D01*
X144418392Y-113624062D01*
X144463977Y-113678491D01*
X144474500Y-113728901D01*
X144474500Y-114591715D01*
X144474500Y-114600000D01*
X144474500Y-114659210D01*
X144500851Y-114774660D01*
X144552231Y-114881352D01*
X144626064Y-114973936D01*
X144718648Y-115047769D01*
X144825340Y-115099149D01*
X144940790Y-115125500D01*
X144940793Y-115125500D01*
X153059207Y-115125500D01*
X153059210Y-115125500D01*
X153174660Y-115099149D01*
X153281352Y-115047769D01*
X153373936Y-114973936D01*
X153447769Y-114881352D01*
X153499149Y-114774660D01*
X153525500Y-114659210D01*
X153525500Y-114619489D01*
X153545502Y-114551368D01*
X153599158Y-114504875D01*
X153669432Y-114494771D01*
X153717830Y-114512361D01*
X153853782Y-114596540D01*
X154045345Y-114670751D01*
X154247282Y-114708500D01*
X154247285Y-114708500D01*
X154452715Y-114708500D01*
X154452718Y-114708500D01*
X154654655Y-114670751D01*
X154846218Y-114596540D01*
X155020882Y-114488392D01*
X155172701Y-114349991D01*
X155296503Y-114186050D01*
X155296504Y-114186046D01*
X155296506Y-114186045D01*
X155388070Y-114002160D01*
X155388069Y-114002160D01*
X155388074Y-114002152D01*
X155440229Y-113818844D01*
X155478108Y-113758801D01*
X155542439Y-113728766D01*
X155612795Y-113738278D01*
X155666840Y-113784319D01*
X155670537Y-113790328D01*
X155760958Y-113946941D01*
X155760965Y-113946951D01*
X155888744Y-114088864D01*
X155888747Y-114088866D01*
X156043248Y-114201118D01*
X156217712Y-114278794D01*
X156404513Y-114318500D01*
X156595487Y-114318500D01*
X156782288Y-114278794D01*
X156956752Y-114201118D01*
X157111253Y-114088866D01*
X157111255Y-114088864D01*
X157239034Y-113946951D01*
X157239035Y-113946949D01*
X157239040Y-113946944D01*
X157334527Y-113781556D01*
X157393542Y-113599928D01*
X157410907Y-113434704D01*
X157437920Y-113369049D01*
X157447104Y-113358799D01*
X160367072Y-110438833D01*
X160436401Y-110335075D01*
X160484155Y-110219785D01*
X160508500Y-110097394D01*
X160508500Y-109972606D01*
X160508500Y-107237524D01*
X160528502Y-107169403D01*
X160540858Y-107153220D01*
X160614040Y-107071944D01*
X160709527Y-106906556D01*
X160768542Y-106724928D01*
X160788504Y-106535000D01*
X160768542Y-106345072D01*
X160709527Y-106163444D01*
X160614040Y-105998056D01*
X160614038Y-105998054D01*
X160614034Y-105998048D01*
X160486255Y-105856135D01*
X160331752Y-105743882D01*
X160157288Y-105666206D01*
X159970487Y-105626500D01*
X159891922Y-105626500D01*
X159823801Y-105606498D01*
X159777308Y-105552842D01*
X159767204Y-105482568D01*
X159768511Y-105475224D01*
X159777947Y-105385441D01*
X159788504Y-105285000D01*
X159768542Y-105095072D01*
X159709527Y-104913444D01*
X159614040Y-104748056D01*
X159614038Y-104748054D01*
X159614034Y-104748048D01*
X159486255Y-104606135D01*
X159331752Y-104493882D01*
X159157288Y-104416206D01*
X158970487Y-104376500D01*
X158779513Y-104376500D01*
X158592711Y-104416206D01*
X158418247Y-104493882D01*
X158263744Y-104606135D01*
X158135965Y-104748048D01*
X158135958Y-104748058D01*
X158040476Y-104913438D01*
X158040473Y-104913445D01*
X157981457Y-105095072D01*
X157961496Y-105285000D01*
X157981457Y-105474927D01*
X157981554Y-105475224D01*
X158040473Y-105656556D01*
X158135960Y-105821944D01*
X158209137Y-105903215D01*
X158239853Y-105967220D01*
X158241500Y-105987524D01*
X158241500Y-109316420D01*
X158221498Y-109384541D01*
X158204595Y-109405515D01*
X157998595Y-109611515D01*
X157936283Y-109645541D01*
X157865468Y-109640476D01*
X157808632Y-109597929D01*
X157783821Y-109531409D01*
X157783500Y-109522420D01*
X157783500Y-109217607D01*
X157783499Y-109217603D01*
X157776505Y-109182441D01*
X157759155Y-109095215D01*
X157711400Y-108979925D01*
X157642071Y-108876167D01*
X157553833Y-108787929D01*
X155486642Y-106720738D01*
X155452616Y-106658426D01*
X155450274Y-106620020D01*
X155463249Y-106480000D01*
X155444294Y-106275441D01*
X155416013Y-106176045D01*
X155388076Y-106077855D01*
X155388075Y-106077854D01*
X155388074Y-106077848D01*
X155388070Y-106077839D01*
X155296506Y-105893954D01*
X155296502Y-105893949D01*
X155267946Y-105856135D01*
X155221447Y-105794559D01*
X155172699Y-105730006D01*
X155121262Y-105683115D01*
X155084395Y-105622441D01*
X155086184Y-105551467D01*
X155121262Y-105496885D01*
X155172699Y-105449993D01*
X155172701Y-105449991D01*
X155296503Y-105286050D01*
X155296504Y-105286046D01*
X155296506Y-105286045D01*
X155388070Y-105102160D01*
X155388069Y-105102160D01*
X155388074Y-105102152D01*
X155444294Y-104904559D01*
X155463249Y-104700000D01*
X155444294Y-104495441D01*
X155443850Y-104493882D01*
X155388076Y-104297855D01*
X155388075Y-104297854D01*
X155388074Y-104297848D01*
X155388070Y-104297839D01*
X155296506Y-104113954D01*
X155296502Y-104113949D01*
X155172699Y-103950006D01*
X155121262Y-103903115D01*
X155084395Y-103842441D01*
X155086184Y-103771467D01*
X155121262Y-103716885D01*
X155172699Y-103669993D01*
X155172701Y-103669991D01*
X155296503Y-103506050D01*
X155296504Y-103506046D01*
X155296506Y-103506045D01*
X155388070Y-103322160D01*
X155388069Y-103322160D01*
X155388074Y-103322152D01*
X155444294Y-103124559D01*
X155463249Y-102920000D01*
X155444294Y-102715441D01*
X155388074Y-102517848D01*
X155388070Y-102517839D01*
X155296506Y-102333954D01*
X155296502Y-102333949D01*
X155172699Y-102170006D01*
X155121262Y-102123115D01*
X155084395Y-102062441D01*
X155086184Y-101991467D01*
X155121262Y-101936885D01*
X155172699Y-101889993D01*
X155172701Y-101889991D01*
X155296503Y-101726050D01*
X155296504Y-101726046D01*
X155296506Y-101726045D01*
X155388070Y-101542160D01*
X155388069Y-101542160D01*
X155388074Y-101542152D01*
X155444294Y-101344559D01*
X155463249Y-101140000D01*
X155444294Y-100935441D01*
X155388074Y-100737848D01*
X155388070Y-100737839D01*
X155296506Y-100553954D01*
X155296502Y-100553949D01*
X155172702Y-100390009D01*
X155020883Y-100251608D01*
X154846223Y-100143463D01*
X154846222Y-100143462D01*
X154846218Y-100143460D01*
X154728867Y-100097998D01*
X154654656Y-100069249D01*
X154604170Y-100059811D01*
X154452718Y-100031500D01*
X154247282Y-100031500D01*
X154126119Y-100054149D01*
X154045343Y-100069249D01*
X153913023Y-100120510D01*
X153853782Y-100143460D01*
X153853781Y-100143460D01*
X153853780Y-100143461D01*
X153853770Y-100143466D01*
X153717830Y-100227637D01*
X153649383Y-100246492D01*
X153581608Y-100225349D01*
X153536023Y-100170919D01*
X153525500Y-100120510D01*
X153525500Y-97840792D01*
X153520412Y-97818500D01*
X153506883Y-97759225D01*
X153511225Y-97688364D01*
X153553190Y-97631098D01*
X153555625Y-97629281D01*
X153611253Y-97588866D01*
X153739040Y-97446944D01*
X153834527Y-97281556D01*
X153893542Y-97099928D01*
X153913504Y-96910000D01*
X153893542Y-96720072D01*
X153834527Y-96538444D01*
X153739040Y-96373056D01*
X153739038Y-96373054D01*
X153739034Y-96373048D01*
X153611255Y-96231135D01*
X153456752Y-96118882D01*
X153282288Y-96041206D01*
X153095487Y-96001500D01*
X152904513Y-96001500D01*
X152717711Y-96041206D01*
X152543247Y-96118882D01*
X152445451Y-96189936D01*
X152378583Y-96213795D01*
X152371390Y-96214000D01*
X144909769Y-96214000D01*
X144794519Y-96236925D01*
X144775310Y-96240746D01*
X144775307Y-96240746D01*
X144775304Y-96240748D01*
X144722844Y-96262478D01*
X144648646Y-96293212D01*
X144534652Y-96369380D01*
X144486180Y-96417853D01*
X144437707Y-96466326D01*
X144437704Y-96466329D01*
X142168829Y-98735204D01*
X142168826Y-98735207D01*
X142120353Y-98783680D01*
X142071880Y-98832152D01*
X141995712Y-98946146D01*
X141964978Y-99020344D01*
X141943245Y-99072811D01*
X141943244Y-99072814D01*
X141918124Y-99199111D01*
X141918123Y-99199115D01*
X141916500Y-99207268D01*
X138525500Y-99207268D01*
X138525500Y-93803713D01*
X147649500Y-93803713D01*
X147649500Y-94016287D01*
X147682754Y-94226243D01*
X147748443Y-94428412D01*
X147844949Y-94617816D01*
X147969896Y-94789792D01*
X147969898Y-94789794D01*
X147969900Y-94789797D01*
X148120202Y-94940099D01*
X148120205Y-94940101D01*
X148120208Y-94940104D01*
X148292184Y-95065051D01*
X148481588Y-95161557D01*
X148683757Y-95227246D01*
X148893713Y-95260500D01*
X148893716Y-95260500D01*
X149106284Y-95260500D01*
X149106287Y-95260500D01*
X149316243Y-95227246D01*
X149518412Y-95161557D01*
X149707816Y-95065051D01*
X149879792Y-94940104D01*
X150030104Y-94789792D01*
X150155051Y-94617816D01*
X150251557Y-94428412D01*
X150317246Y-94226243D01*
X150350500Y-94016287D01*
X150350500Y-93803713D01*
X150317246Y-93593757D01*
X150251557Y-93391588D01*
X150155051Y-93202184D01*
X150030104Y-93030208D01*
X150030101Y-93030205D01*
X150030099Y-93030202D01*
X149879797Y-92879900D01*
X149879794Y-92879898D01*
X149879792Y-92879896D01*
X149707816Y-92754949D01*
X149518412Y-92658443D01*
X149316243Y-92592754D01*
X149106287Y-92559500D01*
X148893713Y-92559500D01*
X148683757Y-92592754D01*
X148683754Y-92592754D01*
X148683753Y-92592755D01*
X148481588Y-92658443D01*
X148481586Y-92658444D01*
X148292180Y-92754951D01*
X148120205Y-92879898D01*
X148120202Y-92879900D01*
X147969900Y-93030202D01*
X147969898Y-93030205D01*
X147844951Y-93202180D01*
X147844949Y-93202184D01*
X147748443Y-93391588D01*
X147682754Y-93593757D01*
X147649500Y-93803713D01*
X138525500Y-93803713D01*
X138525500Y-91961500D01*
X138545502Y-91893379D01*
X138599158Y-91846886D01*
X138651500Y-91835500D01*
X159348500Y-91835500D01*
X159416621Y-91855502D01*
G37*
%TD.AperFunction*%
M02*
