M48
; DRILL file {KiCad 8.0.7} date 2024-12-27T17:18:58-0800
; FORMAT={-:-/ absolute / metric / decimal}
; #@! TF.CreationDate,2024-12-27T17:18:58-08:00
; #@! TF.GenerationSoftware,Kicad,Pcbnew,8.0.7
; #@! TF.FileFunction,Plated,1,2,PTH
FMAT,2
METRIC
; #@! TA.AperFunction,Plated,PTH,ViaDrill
T1C0.400
; #@! TA.AperFunction,Plated,PTH,ComponentDrill
T2C0.700
%
G90
G05
T1
X140.225Y-106.685
X141.1Y-101.81
X141.1Y-117.41
X153.0Y-96.91
X157.232Y-107.842
X157.3Y-103.41
X157.3Y-104.91
T2
X143.65Y-100.25
X143.65Y-102.03
X143.65Y-103.81
X143.65Y-105.59
X143.65Y-107.37
X143.65Y-109.15
X143.65Y-110.93
X143.65Y-112.71
X154.35Y-101.14
X154.35Y-102.92
X154.35Y-104.7
X154.35Y-106.48
X154.35Y-108.26
X154.35Y-110.04
X154.35Y-111.82
X154.35Y-113.6
M30
