%TF.GenerationSoftware,KiCad,Pcbnew,8.0.7*%
%TF.CreationDate,2025-01-01T17:11:47-08:00*%
%TF.ProjectId,PMW3360,504d5733-3336-4302-9e6b-696361645f70,rev?*%
%TF.SameCoordinates,Original*%
%TF.FileFunction,Legend,Bot*%
%TF.FilePolarity,Positive*%
%FSLAX46Y46*%
G04 Gerber Fmt 4.6, Leading zero omitted, Abs format (unit mm)*
G04 Created by KiCad (PCBNEW 8.0.7) date 2025-01-01 17:11:47*
%MOMM*%
%LPD*%
G01*
G04 APERTURE LIST*
%ADD10C,0.100000*%
%ADD11C,0.150000*%
%ADD12C,0.300000*%
%ADD13C,0.400000*%
%ADD14R,1.200000X1.200000*%
%ADD15C,1.200000*%
%ADD16C,2.200000*%
G04 APERTURE END LIST*
D10*
D11*
X177002200Y-166007200D02*
X285002200Y-166007200D01*
X285002200Y-198007200D01*
X177002200Y-198007200D01*
X177002200Y-166007200D01*
D10*
D11*
X10000000Y-10000000D02*
X287002200Y-10000000D01*
X287002200Y-200007200D01*
X10000000Y-200007200D01*
X10000000Y-10000000D01*
D10*
D11*
X12000000Y-12000000D02*
X285002200Y-12000000D01*
X285002200Y-198007200D01*
X12000000Y-198007200D01*
X12000000Y-12000000D01*
D10*
D11*
X60000000Y-12000000D02*
X60000000Y-10000000D01*
D10*
D11*
X110000000Y-12000000D02*
X110000000Y-10000000D01*
D10*
D11*
X160000000Y-12000000D02*
X160000000Y-10000000D01*
D10*
D11*
X210000000Y-12000000D02*
X210000000Y-10000000D01*
D10*
D11*
X260000000Y-12000000D02*
X260000000Y-10000000D01*
D10*
D11*
X36089160Y-11593604D02*
X35346303Y-11593604D01*
X35717731Y-11593604D02*
X35717731Y-10293604D01*
X35717731Y-10293604D02*
X35593922Y-10479319D01*
X35593922Y-10479319D02*
X35470112Y-10603128D01*
X35470112Y-10603128D02*
X35346303Y-10665033D01*
D10*
D11*
X85346303Y-10417414D02*
X85408207Y-10355509D01*
X85408207Y-10355509D02*
X85532017Y-10293604D01*
X85532017Y-10293604D02*
X85841541Y-10293604D01*
X85841541Y-10293604D02*
X85965350Y-10355509D01*
X85965350Y-10355509D02*
X86027255Y-10417414D01*
X86027255Y-10417414D02*
X86089160Y-10541223D01*
X86089160Y-10541223D02*
X86089160Y-10665033D01*
X86089160Y-10665033D02*
X86027255Y-10850747D01*
X86027255Y-10850747D02*
X85284398Y-11593604D01*
X85284398Y-11593604D02*
X86089160Y-11593604D01*
D10*
D11*
X135284398Y-10293604D02*
X136089160Y-10293604D01*
X136089160Y-10293604D02*
X135655826Y-10788842D01*
X135655826Y-10788842D02*
X135841541Y-10788842D01*
X135841541Y-10788842D02*
X135965350Y-10850747D01*
X135965350Y-10850747D02*
X136027255Y-10912652D01*
X136027255Y-10912652D02*
X136089160Y-11036461D01*
X136089160Y-11036461D02*
X136089160Y-11345985D01*
X136089160Y-11345985D02*
X136027255Y-11469795D01*
X136027255Y-11469795D02*
X135965350Y-11531700D01*
X135965350Y-11531700D02*
X135841541Y-11593604D01*
X135841541Y-11593604D02*
X135470112Y-11593604D01*
X135470112Y-11593604D02*
X135346303Y-11531700D01*
X135346303Y-11531700D02*
X135284398Y-11469795D01*
D10*
D11*
X185965350Y-10726938D02*
X185965350Y-11593604D01*
X185655826Y-10231700D02*
X185346303Y-11160271D01*
X185346303Y-11160271D02*
X186151064Y-11160271D01*
D10*
D11*
X236027255Y-10293604D02*
X235408207Y-10293604D01*
X235408207Y-10293604D02*
X235346303Y-10912652D01*
X235346303Y-10912652D02*
X235408207Y-10850747D01*
X235408207Y-10850747D02*
X235532017Y-10788842D01*
X235532017Y-10788842D02*
X235841541Y-10788842D01*
X235841541Y-10788842D02*
X235965350Y-10850747D01*
X235965350Y-10850747D02*
X236027255Y-10912652D01*
X236027255Y-10912652D02*
X236089160Y-11036461D01*
X236089160Y-11036461D02*
X236089160Y-11345985D01*
X236089160Y-11345985D02*
X236027255Y-11469795D01*
X236027255Y-11469795D02*
X235965350Y-11531700D01*
X235965350Y-11531700D02*
X235841541Y-11593604D01*
X235841541Y-11593604D02*
X235532017Y-11593604D01*
X235532017Y-11593604D02*
X235408207Y-11531700D01*
X235408207Y-11531700D02*
X235346303Y-11469795D01*
D10*
D11*
X285965350Y-10293604D02*
X285717731Y-10293604D01*
X285717731Y-10293604D02*
X285593922Y-10355509D01*
X285593922Y-10355509D02*
X285532017Y-10417414D01*
X285532017Y-10417414D02*
X285408207Y-10603128D01*
X285408207Y-10603128D02*
X285346303Y-10850747D01*
X285346303Y-10850747D02*
X285346303Y-11345985D01*
X285346303Y-11345985D02*
X285408207Y-11469795D01*
X285408207Y-11469795D02*
X285470112Y-11531700D01*
X285470112Y-11531700D02*
X285593922Y-11593604D01*
X285593922Y-11593604D02*
X285841541Y-11593604D01*
X285841541Y-11593604D02*
X285965350Y-11531700D01*
X285965350Y-11531700D02*
X286027255Y-11469795D01*
X286027255Y-11469795D02*
X286089160Y-11345985D01*
X286089160Y-11345985D02*
X286089160Y-11036461D01*
X286089160Y-11036461D02*
X286027255Y-10912652D01*
X286027255Y-10912652D02*
X285965350Y-10850747D01*
X285965350Y-10850747D02*
X285841541Y-10788842D01*
X285841541Y-10788842D02*
X285593922Y-10788842D01*
X285593922Y-10788842D02*
X285470112Y-10850747D01*
X285470112Y-10850747D02*
X285408207Y-10912652D01*
X285408207Y-10912652D02*
X285346303Y-11036461D01*
D10*
D11*
X60000000Y-198007200D02*
X60000000Y-200007200D01*
D10*
D11*
X110000000Y-198007200D02*
X110000000Y-200007200D01*
D10*
D11*
X160000000Y-198007200D02*
X160000000Y-200007200D01*
D10*
D11*
X210000000Y-198007200D02*
X210000000Y-200007200D01*
D10*
D11*
X260000000Y-198007200D02*
X260000000Y-200007200D01*
D10*
D11*
X36089160Y-199600804D02*
X35346303Y-199600804D01*
X35717731Y-199600804D02*
X35717731Y-198300804D01*
X35717731Y-198300804D02*
X35593922Y-198486519D01*
X35593922Y-198486519D02*
X35470112Y-198610328D01*
X35470112Y-198610328D02*
X35346303Y-198672233D01*
D10*
D11*
X85346303Y-198424614D02*
X85408207Y-198362709D01*
X85408207Y-198362709D02*
X85532017Y-198300804D01*
X85532017Y-198300804D02*
X85841541Y-198300804D01*
X85841541Y-198300804D02*
X85965350Y-198362709D01*
X85965350Y-198362709D02*
X86027255Y-198424614D01*
X86027255Y-198424614D02*
X86089160Y-198548423D01*
X86089160Y-198548423D02*
X86089160Y-198672233D01*
X86089160Y-198672233D02*
X86027255Y-198857947D01*
X86027255Y-198857947D02*
X85284398Y-199600804D01*
X85284398Y-199600804D02*
X86089160Y-199600804D01*
D10*
D11*
X135284398Y-198300804D02*
X136089160Y-198300804D01*
X136089160Y-198300804D02*
X135655826Y-198796042D01*
X135655826Y-198796042D02*
X135841541Y-198796042D01*
X135841541Y-198796042D02*
X135965350Y-198857947D01*
X135965350Y-198857947D02*
X136027255Y-198919852D01*
X136027255Y-198919852D02*
X136089160Y-199043661D01*
X136089160Y-199043661D02*
X136089160Y-199353185D01*
X136089160Y-199353185D02*
X136027255Y-199476995D01*
X136027255Y-199476995D02*
X135965350Y-199538900D01*
X135965350Y-199538900D02*
X135841541Y-199600804D01*
X135841541Y-199600804D02*
X135470112Y-199600804D01*
X135470112Y-199600804D02*
X135346303Y-199538900D01*
X135346303Y-199538900D02*
X135284398Y-199476995D01*
D10*
D11*
X185965350Y-198734138D02*
X185965350Y-199600804D01*
X185655826Y-198238900D02*
X185346303Y-199167471D01*
X185346303Y-199167471D02*
X186151064Y-199167471D01*
D10*
D11*
X236027255Y-198300804D02*
X235408207Y-198300804D01*
X235408207Y-198300804D02*
X235346303Y-198919852D01*
X235346303Y-198919852D02*
X235408207Y-198857947D01*
X235408207Y-198857947D02*
X235532017Y-198796042D01*
X235532017Y-198796042D02*
X235841541Y-198796042D01*
X235841541Y-198796042D02*
X235965350Y-198857947D01*
X235965350Y-198857947D02*
X236027255Y-198919852D01*
X236027255Y-198919852D02*
X236089160Y-199043661D01*
X236089160Y-199043661D02*
X236089160Y-199353185D01*
X236089160Y-199353185D02*
X236027255Y-199476995D01*
X236027255Y-199476995D02*
X235965350Y-199538900D01*
X235965350Y-199538900D02*
X235841541Y-199600804D01*
X235841541Y-199600804D02*
X235532017Y-199600804D01*
X235532017Y-199600804D02*
X235408207Y-199538900D01*
X235408207Y-199538900D02*
X235346303Y-199476995D01*
D10*
D11*
X285965350Y-198300804D02*
X285717731Y-198300804D01*
X285717731Y-198300804D02*
X285593922Y-198362709D01*
X285593922Y-198362709D02*
X285532017Y-198424614D01*
X285532017Y-198424614D02*
X285408207Y-198610328D01*
X285408207Y-198610328D02*
X285346303Y-198857947D01*
X285346303Y-198857947D02*
X285346303Y-199353185D01*
X285346303Y-199353185D02*
X285408207Y-199476995D01*
X285408207Y-199476995D02*
X285470112Y-199538900D01*
X285470112Y-199538900D02*
X285593922Y-199600804D01*
X285593922Y-199600804D02*
X285841541Y-199600804D01*
X285841541Y-199600804D02*
X285965350Y-199538900D01*
X285965350Y-199538900D02*
X286027255Y-199476995D01*
X286027255Y-199476995D02*
X286089160Y-199353185D01*
X286089160Y-199353185D02*
X286089160Y-199043661D01*
X286089160Y-199043661D02*
X286027255Y-198919852D01*
X286027255Y-198919852D02*
X285965350Y-198857947D01*
X285965350Y-198857947D02*
X285841541Y-198796042D01*
X285841541Y-198796042D02*
X285593922Y-198796042D01*
X285593922Y-198796042D02*
X285470112Y-198857947D01*
X285470112Y-198857947D02*
X285408207Y-198919852D01*
X285408207Y-198919852D02*
X285346303Y-199043661D01*
D10*
D11*
X10000000Y-60000000D02*
X12000000Y-60000000D01*
D10*
D11*
X10000000Y-110000000D02*
X12000000Y-110000000D01*
D10*
D11*
X10000000Y-160000000D02*
X12000000Y-160000000D01*
D10*
D11*
X10690476Y-35222176D02*
X11309523Y-35222176D01*
X10566666Y-35593604D02*
X10999999Y-34293604D01*
X10999999Y-34293604D02*
X11433333Y-35593604D01*
D10*
D11*
X11092857Y-84912652D02*
X11278571Y-84974557D01*
X11278571Y-84974557D02*
X11340476Y-85036461D01*
X11340476Y-85036461D02*
X11402380Y-85160271D01*
X11402380Y-85160271D02*
X11402380Y-85345985D01*
X11402380Y-85345985D02*
X11340476Y-85469795D01*
X11340476Y-85469795D02*
X11278571Y-85531700D01*
X11278571Y-85531700D02*
X11154761Y-85593604D01*
X11154761Y-85593604D02*
X10659523Y-85593604D01*
X10659523Y-85593604D02*
X10659523Y-84293604D01*
X10659523Y-84293604D02*
X11092857Y-84293604D01*
X11092857Y-84293604D02*
X11216666Y-84355509D01*
X11216666Y-84355509D02*
X11278571Y-84417414D01*
X11278571Y-84417414D02*
X11340476Y-84541223D01*
X11340476Y-84541223D02*
X11340476Y-84665033D01*
X11340476Y-84665033D02*
X11278571Y-84788842D01*
X11278571Y-84788842D02*
X11216666Y-84850747D01*
X11216666Y-84850747D02*
X11092857Y-84912652D01*
X11092857Y-84912652D02*
X10659523Y-84912652D01*
D10*
D11*
X11402380Y-135469795D02*
X11340476Y-135531700D01*
X11340476Y-135531700D02*
X11154761Y-135593604D01*
X11154761Y-135593604D02*
X11030952Y-135593604D01*
X11030952Y-135593604D02*
X10845238Y-135531700D01*
X10845238Y-135531700D02*
X10721428Y-135407890D01*
X10721428Y-135407890D02*
X10659523Y-135284080D01*
X10659523Y-135284080D02*
X10597619Y-135036461D01*
X10597619Y-135036461D02*
X10597619Y-134850747D01*
X10597619Y-134850747D02*
X10659523Y-134603128D01*
X10659523Y-134603128D02*
X10721428Y-134479319D01*
X10721428Y-134479319D02*
X10845238Y-134355509D01*
X10845238Y-134355509D02*
X11030952Y-134293604D01*
X11030952Y-134293604D02*
X11154761Y-134293604D01*
X11154761Y-134293604D02*
X11340476Y-134355509D01*
X11340476Y-134355509D02*
X11402380Y-134417414D01*
D10*
D11*
X10659523Y-185593604D02*
X10659523Y-184293604D01*
X10659523Y-184293604D02*
X10969047Y-184293604D01*
X10969047Y-184293604D02*
X11154761Y-184355509D01*
X11154761Y-184355509D02*
X11278571Y-184479319D01*
X11278571Y-184479319D02*
X11340476Y-184603128D01*
X11340476Y-184603128D02*
X11402380Y-184850747D01*
X11402380Y-184850747D02*
X11402380Y-185036461D01*
X11402380Y-185036461D02*
X11340476Y-185284080D01*
X11340476Y-185284080D02*
X11278571Y-185407890D01*
X11278571Y-185407890D02*
X11154761Y-185531700D01*
X11154761Y-185531700D02*
X10969047Y-185593604D01*
X10969047Y-185593604D02*
X10659523Y-185593604D01*
D10*
D11*
X287002200Y-60000000D02*
X285002200Y-60000000D01*
D10*
D11*
X287002200Y-110000000D02*
X285002200Y-110000000D01*
D10*
D11*
X287002200Y-160000000D02*
X285002200Y-160000000D01*
D10*
D11*
X285692676Y-35222176D02*
X286311723Y-35222176D01*
X285568866Y-35593604D02*
X286002199Y-34293604D01*
X286002199Y-34293604D02*
X286435533Y-35593604D01*
D10*
D11*
X286095057Y-84912652D02*
X286280771Y-84974557D01*
X286280771Y-84974557D02*
X286342676Y-85036461D01*
X286342676Y-85036461D02*
X286404580Y-85160271D01*
X286404580Y-85160271D02*
X286404580Y-85345985D01*
X286404580Y-85345985D02*
X286342676Y-85469795D01*
X286342676Y-85469795D02*
X286280771Y-85531700D01*
X286280771Y-85531700D02*
X286156961Y-85593604D01*
X286156961Y-85593604D02*
X285661723Y-85593604D01*
X285661723Y-85593604D02*
X285661723Y-84293604D01*
X285661723Y-84293604D02*
X286095057Y-84293604D01*
X286095057Y-84293604D02*
X286218866Y-84355509D01*
X286218866Y-84355509D02*
X286280771Y-84417414D01*
X286280771Y-84417414D02*
X286342676Y-84541223D01*
X286342676Y-84541223D02*
X286342676Y-84665033D01*
X286342676Y-84665033D02*
X286280771Y-84788842D01*
X286280771Y-84788842D02*
X286218866Y-84850747D01*
X286218866Y-84850747D02*
X286095057Y-84912652D01*
X286095057Y-84912652D02*
X285661723Y-84912652D01*
D10*
D11*
X286404580Y-135469795D02*
X286342676Y-135531700D01*
X286342676Y-135531700D02*
X286156961Y-135593604D01*
X286156961Y-135593604D02*
X286033152Y-135593604D01*
X286033152Y-135593604D02*
X285847438Y-135531700D01*
X285847438Y-135531700D02*
X285723628Y-135407890D01*
X285723628Y-135407890D02*
X285661723Y-135284080D01*
X285661723Y-135284080D02*
X285599819Y-135036461D01*
X285599819Y-135036461D02*
X285599819Y-134850747D01*
X285599819Y-134850747D02*
X285661723Y-134603128D01*
X285661723Y-134603128D02*
X285723628Y-134479319D01*
X285723628Y-134479319D02*
X285847438Y-134355509D01*
X285847438Y-134355509D02*
X286033152Y-134293604D01*
X286033152Y-134293604D02*
X286156961Y-134293604D01*
X286156961Y-134293604D02*
X286342676Y-134355509D01*
X286342676Y-134355509D02*
X286404580Y-134417414D01*
D10*
D11*
X285661723Y-185593604D02*
X285661723Y-184293604D01*
X285661723Y-184293604D02*
X285971247Y-184293604D01*
X285971247Y-184293604D02*
X286156961Y-184355509D01*
X286156961Y-184355509D02*
X286280771Y-184479319D01*
X286280771Y-184479319D02*
X286342676Y-184603128D01*
X286342676Y-184603128D02*
X286404580Y-184850747D01*
X286404580Y-184850747D02*
X286404580Y-185036461D01*
X286404580Y-185036461D02*
X286342676Y-185284080D01*
X286342676Y-185284080D02*
X286280771Y-185407890D01*
X286280771Y-185407890D02*
X286156961Y-185531700D01*
X286156961Y-185531700D02*
X285971247Y-185593604D01*
X285971247Y-185593604D02*
X285661723Y-185593604D01*
D10*
D11*
X200458026Y-193793328D02*
X200458026Y-192293328D01*
X200458026Y-192293328D02*
X200815169Y-192293328D01*
X200815169Y-192293328D02*
X201029455Y-192364757D01*
X201029455Y-192364757D02*
X201172312Y-192507614D01*
X201172312Y-192507614D02*
X201243741Y-192650471D01*
X201243741Y-192650471D02*
X201315169Y-192936185D01*
X201315169Y-192936185D02*
X201315169Y-193150471D01*
X201315169Y-193150471D02*
X201243741Y-193436185D01*
X201243741Y-193436185D02*
X201172312Y-193579042D01*
X201172312Y-193579042D02*
X201029455Y-193721900D01*
X201029455Y-193721900D02*
X200815169Y-193793328D01*
X200815169Y-193793328D02*
X200458026Y-193793328D01*
X202600884Y-193793328D02*
X202600884Y-193007614D01*
X202600884Y-193007614D02*
X202529455Y-192864757D01*
X202529455Y-192864757D02*
X202386598Y-192793328D01*
X202386598Y-192793328D02*
X202100884Y-192793328D01*
X202100884Y-192793328D02*
X201958026Y-192864757D01*
X202600884Y-193721900D02*
X202458026Y-193793328D01*
X202458026Y-193793328D02*
X202100884Y-193793328D01*
X202100884Y-193793328D02*
X201958026Y-193721900D01*
X201958026Y-193721900D02*
X201886598Y-193579042D01*
X201886598Y-193579042D02*
X201886598Y-193436185D01*
X201886598Y-193436185D02*
X201958026Y-193293328D01*
X201958026Y-193293328D02*
X202100884Y-193221900D01*
X202100884Y-193221900D02*
X202458026Y-193221900D01*
X202458026Y-193221900D02*
X202600884Y-193150471D01*
X203100884Y-192793328D02*
X203672312Y-192793328D01*
X203315169Y-192293328D02*
X203315169Y-193579042D01*
X203315169Y-193579042D02*
X203386598Y-193721900D01*
X203386598Y-193721900D02*
X203529455Y-193793328D01*
X203529455Y-193793328D02*
X203672312Y-193793328D01*
X204743741Y-193721900D02*
X204600884Y-193793328D01*
X204600884Y-193793328D02*
X204315170Y-193793328D01*
X204315170Y-193793328D02*
X204172312Y-193721900D01*
X204172312Y-193721900D02*
X204100884Y-193579042D01*
X204100884Y-193579042D02*
X204100884Y-193007614D01*
X204100884Y-193007614D02*
X204172312Y-192864757D01*
X204172312Y-192864757D02*
X204315170Y-192793328D01*
X204315170Y-192793328D02*
X204600884Y-192793328D01*
X204600884Y-192793328D02*
X204743741Y-192864757D01*
X204743741Y-192864757D02*
X204815170Y-193007614D01*
X204815170Y-193007614D02*
X204815170Y-193150471D01*
X204815170Y-193150471D02*
X204100884Y-193293328D01*
X205458026Y-193650471D02*
X205529455Y-193721900D01*
X205529455Y-193721900D02*
X205458026Y-193793328D01*
X205458026Y-193793328D02*
X205386598Y-193721900D01*
X205386598Y-193721900D02*
X205458026Y-193650471D01*
X205458026Y-193650471D02*
X205458026Y-193793328D01*
X205458026Y-192864757D02*
X205529455Y-192936185D01*
X205529455Y-192936185D02*
X205458026Y-193007614D01*
X205458026Y-193007614D02*
X205386598Y-192936185D01*
X205386598Y-192936185D02*
X205458026Y-192864757D01*
X205458026Y-192864757D02*
X205458026Y-193007614D01*
D10*
D11*
X177002200Y-194507200D02*
X285002200Y-194507200D01*
D10*
D11*
X178458026Y-196593328D02*
X178458026Y-195093328D01*
X179315169Y-196593328D02*
X178672312Y-195736185D01*
X179315169Y-195093328D02*
X178458026Y-195950471D01*
X179958026Y-196593328D02*
X179958026Y-195593328D01*
X179958026Y-195093328D02*
X179886598Y-195164757D01*
X179886598Y-195164757D02*
X179958026Y-195236185D01*
X179958026Y-195236185D02*
X180029455Y-195164757D01*
X180029455Y-195164757D02*
X179958026Y-195093328D01*
X179958026Y-195093328D02*
X179958026Y-195236185D01*
X181529455Y-196450471D02*
X181458027Y-196521900D01*
X181458027Y-196521900D02*
X181243741Y-196593328D01*
X181243741Y-196593328D02*
X181100884Y-196593328D01*
X181100884Y-196593328D02*
X180886598Y-196521900D01*
X180886598Y-196521900D02*
X180743741Y-196379042D01*
X180743741Y-196379042D02*
X180672312Y-196236185D01*
X180672312Y-196236185D02*
X180600884Y-195950471D01*
X180600884Y-195950471D02*
X180600884Y-195736185D01*
X180600884Y-195736185D02*
X180672312Y-195450471D01*
X180672312Y-195450471D02*
X180743741Y-195307614D01*
X180743741Y-195307614D02*
X180886598Y-195164757D01*
X180886598Y-195164757D02*
X181100884Y-195093328D01*
X181100884Y-195093328D02*
X181243741Y-195093328D01*
X181243741Y-195093328D02*
X181458027Y-195164757D01*
X181458027Y-195164757D02*
X181529455Y-195236185D01*
X182815170Y-196593328D02*
X182815170Y-195807614D01*
X182815170Y-195807614D02*
X182743741Y-195664757D01*
X182743741Y-195664757D02*
X182600884Y-195593328D01*
X182600884Y-195593328D02*
X182315170Y-195593328D01*
X182315170Y-195593328D02*
X182172312Y-195664757D01*
X182815170Y-196521900D02*
X182672312Y-196593328D01*
X182672312Y-196593328D02*
X182315170Y-196593328D01*
X182315170Y-196593328D02*
X182172312Y-196521900D01*
X182172312Y-196521900D02*
X182100884Y-196379042D01*
X182100884Y-196379042D02*
X182100884Y-196236185D01*
X182100884Y-196236185D02*
X182172312Y-196093328D01*
X182172312Y-196093328D02*
X182315170Y-196021900D01*
X182315170Y-196021900D02*
X182672312Y-196021900D01*
X182672312Y-196021900D02*
X182815170Y-195950471D01*
X184172313Y-196593328D02*
X184172313Y-195093328D01*
X184172313Y-196521900D02*
X184029455Y-196593328D01*
X184029455Y-196593328D02*
X183743741Y-196593328D01*
X183743741Y-196593328D02*
X183600884Y-196521900D01*
X183600884Y-196521900D02*
X183529455Y-196450471D01*
X183529455Y-196450471D02*
X183458027Y-196307614D01*
X183458027Y-196307614D02*
X183458027Y-195879042D01*
X183458027Y-195879042D02*
X183529455Y-195736185D01*
X183529455Y-195736185D02*
X183600884Y-195664757D01*
X183600884Y-195664757D02*
X183743741Y-195593328D01*
X183743741Y-195593328D02*
X184029455Y-195593328D01*
X184029455Y-195593328D02*
X184172313Y-195664757D01*
X186029455Y-195807614D02*
X186529455Y-195807614D01*
X186743741Y-196593328D02*
X186029455Y-196593328D01*
X186029455Y-196593328D02*
X186029455Y-195093328D01*
X186029455Y-195093328D02*
X186743741Y-195093328D01*
X187386598Y-196450471D02*
X187458027Y-196521900D01*
X187458027Y-196521900D02*
X187386598Y-196593328D01*
X187386598Y-196593328D02*
X187315170Y-196521900D01*
X187315170Y-196521900D02*
X187386598Y-196450471D01*
X187386598Y-196450471D02*
X187386598Y-196593328D01*
X188100884Y-196593328D02*
X188100884Y-195093328D01*
X188100884Y-195093328D02*
X188458027Y-195093328D01*
X188458027Y-195093328D02*
X188672313Y-195164757D01*
X188672313Y-195164757D02*
X188815170Y-195307614D01*
X188815170Y-195307614D02*
X188886599Y-195450471D01*
X188886599Y-195450471D02*
X188958027Y-195736185D01*
X188958027Y-195736185D02*
X188958027Y-195950471D01*
X188958027Y-195950471D02*
X188886599Y-196236185D01*
X188886599Y-196236185D02*
X188815170Y-196379042D01*
X188815170Y-196379042D02*
X188672313Y-196521900D01*
X188672313Y-196521900D02*
X188458027Y-196593328D01*
X188458027Y-196593328D02*
X188100884Y-196593328D01*
X189600884Y-196450471D02*
X189672313Y-196521900D01*
X189672313Y-196521900D02*
X189600884Y-196593328D01*
X189600884Y-196593328D02*
X189529456Y-196521900D01*
X189529456Y-196521900D02*
X189600884Y-196450471D01*
X189600884Y-196450471D02*
X189600884Y-196593328D01*
X190243742Y-196164757D02*
X190958028Y-196164757D01*
X190100885Y-196593328D02*
X190600885Y-195093328D01*
X190600885Y-195093328D02*
X191100885Y-196593328D01*
X191600884Y-196450471D02*
X191672313Y-196521900D01*
X191672313Y-196521900D02*
X191600884Y-196593328D01*
X191600884Y-196593328D02*
X191529456Y-196521900D01*
X191529456Y-196521900D02*
X191600884Y-196450471D01*
X191600884Y-196450471D02*
X191600884Y-196593328D01*
X193672313Y-195736185D02*
X193529456Y-195664757D01*
X193529456Y-195664757D02*
X193458027Y-195593328D01*
X193458027Y-195593328D02*
X193386599Y-195450471D01*
X193386599Y-195450471D02*
X193386599Y-195379042D01*
X193386599Y-195379042D02*
X193458027Y-195236185D01*
X193458027Y-195236185D02*
X193529456Y-195164757D01*
X193529456Y-195164757D02*
X193672313Y-195093328D01*
X193672313Y-195093328D02*
X193958027Y-195093328D01*
X193958027Y-195093328D02*
X194100885Y-195164757D01*
X194100885Y-195164757D02*
X194172313Y-195236185D01*
X194172313Y-195236185D02*
X194243742Y-195379042D01*
X194243742Y-195379042D02*
X194243742Y-195450471D01*
X194243742Y-195450471D02*
X194172313Y-195593328D01*
X194172313Y-195593328D02*
X194100885Y-195664757D01*
X194100885Y-195664757D02*
X193958027Y-195736185D01*
X193958027Y-195736185D02*
X193672313Y-195736185D01*
X193672313Y-195736185D02*
X193529456Y-195807614D01*
X193529456Y-195807614D02*
X193458027Y-195879042D01*
X193458027Y-195879042D02*
X193386599Y-196021900D01*
X193386599Y-196021900D02*
X193386599Y-196307614D01*
X193386599Y-196307614D02*
X193458027Y-196450471D01*
X193458027Y-196450471D02*
X193529456Y-196521900D01*
X193529456Y-196521900D02*
X193672313Y-196593328D01*
X193672313Y-196593328D02*
X193958027Y-196593328D01*
X193958027Y-196593328D02*
X194100885Y-196521900D01*
X194100885Y-196521900D02*
X194172313Y-196450471D01*
X194172313Y-196450471D02*
X194243742Y-196307614D01*
X194243742Y-196307614D02*
X194243742Y-196021900D01*
X194243742Y-196021900D02*
X194172313Y-195879042D01*
X194172313Y-195879042D02*
X194100885Y-195807614D01*
X194100885Y-195807614D02*
X193958027Y-195736185D01*
X194886598Y-196450471D02*
X194958027Y-196521900D01*
X194958027Y-196521900D02*
X194886598Y-196593328D01*
X194886598Y-196593328D02*
X194815170Y-196521900D01*
X194815170Y-196521900D02*
X194886598Y-196450471D01*
X194886598Y-196450471D02*
X194886598Y-196593328D01*
X195886599Y-195093328D02*
X196029456Y-195093328D01*
X196029456Y-195093328D02*
X196172313Y-195164757D01*
X196172313Y-195164757D02*
X196243742Y-195236185D01*
X196243742Y-195236185D02*
X196315170Y-195379042D01*
X196315170Y-195379042D02*
X196386599Y-195664757D01*
X196386599Y-195664757D02*
X196386599Y-196021900D01*
X196386599Y-196021900D02*
X196315170Y-196307614D01*
X196315170Y-196307614D02*
X196243742Y-196450471D01*
X196243742Y-196450471D02*
X196172313Y-196521900D01*
X196172313Y-196521900D02*
X196029456Y-196593328D01*
X196029456Y-196593328D02*
X195886599Y-196593328D01*
X195886599Y-196593328D02*
X195743742Y-196521900D01*
X195743742Y-196521900D02*
X195672313Y-196450471D01*
X195672313Y-196450471D02*
X195600884Y-196307614D01*
X195600884Y-196307614D02*
X195529456Y-196021900D01*
X195529456Y-196021900D02*
X195529456Y-195664757D01*
X195529456Y-195664757D02*
X195600884Y-195379042D01*
X195600884Y-195379042D02*
X195672313Y-195236185D01*
X195672313Y-195236185D02*
X195743742Y-195164757D01*
X195743742Y-195164757D02*
X195886599Y-195093328D01*
X197029455Y-196450471D02*
X197100884Y-196521900D01*
X197100884Y-196521900D02*
X197029455Y-196593328D01*
X197029455Y-196593328D02*
X196958027Y-196521900D01*
X196958027Y-196521900D02*
X197029455Y-196450471D01*
X197029455Y-196450471D02*
X197029455Y-196593328D01*
X197600884Y-195093328D02*
X198600884Y-195093328D01*
X198600884Y-195093328D02*
X197958027Y-196593328D01*
D10*
D11*
X177002200Y-191507200D02*
X285002200Y-191507200D01*
D10*
D12*
X264413853Y-193785528D02*
X263913853Y-193071242D01*
X263556710Y-193785528D02*
X263556710Y-192285528D01*
X263556710Y-192285528D02*
X264128139Y-192285528D01*
X264128139Y-192285528D02*
X264270996Y-192356957D01*
X264270996Y-192356957D02*
X264342425Y-192428385D01*
X264342425Y-192428385D02*
X264413853Y-192571242D01*
X264413853Y-192571242D02*
X264413853Y-192785528D01*
X264413853Y-192785528D02*
X264342425Y-192928385D01*
X264342425Y-192928385D02*
X264270996Y-192999814D01*
X264270996Y-192999814D02*
X264128139Y-193071242D01*
X264128139Y-193071242D02*
X263556710Y-193071242D01*
X265628139Y-193714100D02*
X265485282Y-193785528D01*
X265485282Y-193785528D02*
X265199568Y-193785528D01*
X265199568Y-193785528D02*
X265056710Y-193714100D01*
X265056710Y-193714100D02*
X264985282Y-193571242D01*
X264985282Y-193571242D02*
X264985282Y-192999814D01*
X264985282Y-192999814D02*
X265056710Y-192856957D01*
X265056710Y-192856957D02*
X265199568Y-192785528D01*
X265199568Y-192785528D02*
X265485282Y-192785528D01*
X265485282Y-192785528D02*
X265628139Y-192856957D01*
X265628139Y-192856957D02*
X265699568Y-192999814D01*
X265699568Y-192999814D02*
X265699568Y-193142671D01*
X265699568Y-193142671D02*
X264985282Y-193285528D01*
X266199567Y-192785528D02*
X266556710Y-193785528D01*
X266556710Y-193785528D02*
X266913853Y-192785528D01*
X267485281Y-193642671D02*
X267556710Y-193714100D01*
X267556710Y-193714100D02*
X267485281Y-193785528D01*
X267485281Y-193785528D02*
X267413853Y-193714100D01*
X267413853Y-193714100D02*
X267485281Y-193642671D01*
X267485281Y-193642671D02*
X267485281Y-193785528D01*
X267485281Y-192856957D02*
X267556710Y-192928385D01*
X267556710Y-192928385D02*
X267485281Y-192999814D01*
X267485281Y-192999814D02*
X267413853Y-192928385D01*
X267413853Y-192928385D02*
X267485281Y-192856957D01*
X267485281Y-192856957D02*
X267485281Y-192999814D01*
D10*
D11*
X178386598Y-193721900D02*
X178600884Y-193793328D01*
X178600884Y-193793328D02*
X178958026Y-193793328D01*
X178958026Y-193793328D02*
X179100884Y-193721900D01*
X179100884Y-193721900D02*
X179172312Y-193650471D01*
X179172312Y-193650471D02*
X179243741Y-193507614D01*
X179243741Y-193507614D02*
X179243741Y-193364757D01*
X179243741Y-193364757D02*
X179172312Y-193221900D01*
X179172312Y-193221900D02*
X179100884Y-193150471D01*
X179100884Y-193150471D02*
X178958026Y-193079042D01*
X178958026Y-193079042D02*
X178672312Y-193007614D01*
X178672312Y-193007614D02*
X178529455Y-192936185D01*
X178529455Y-192936185D02*
X178458026Y-192864757D01*
X178458026Y-192864757D02*
X178386598Y-192721900D01*
X178386598Y-192721900D02*
X178386598Y-192579042D01*
X178386598Y-192579042D02*
X178458026Y-192436185D01*
X178458026Y-192436185D02*
X178529455Y-192364757D01*
X178529455Y-192364757D02*
X178672312Y-192293328D01*
X178672312Y-192293328D02*
X179029455Y-192293328D01*
X179029455Y-192293328D02*
X179243741Y-192364757D01*
X179886597Y-193793328D02*
X179886597Y-192793328D01*
X179886597Y-192293328D02*
X179815169Y-192364757D01*
X179815169Y-192364757D02*
X179886597Y-192436185D01*
X179886597Y-192436185D02*
X179958026Y-192364757D01*
X179958026Y-192364757D02*
X179886597Y-192293328D01*
X179886597Y-192293328D02*
X179886597Y-192436185D01*
X180458026Y-192793328D02*
X181243741Y-192793328D01*
X181243741Y-192793328D02*
X180458026Y-193793328D01*
X180458026Y-193793328D02*
X181243741Y-193793328D01*
X182386598Y-193721900D02*
X182243741Y-193793328D01*
X182243741Y-193793328D02*
X181958027Y-193793328D01*
X181958027Y-193793328D02*
X181815169Y-193721900D01*
X181815169Y-193721900D02*
X181743741Y-193579042D01*
X181743741Y-193579042D02*
X181743741Y-193007614D01*
X181743741Y-193007614D02*
X181815169Y-192864757D01*
X181815169Y-192864757D02*
X181958027Y-192793328D01*
X181958027Y-192793328D02*
X182243741Y-192793328D01*
X182243741Y-192793328D02*
X182386598Y-192864757D01*
X182386598Y-192864757D02*
X182458027Y-193007614D01*
X182458027Y-193007614D02*
X182458027Y-193150471D01*
X182458027Y-193150471D02*
X181743741Y-193293328D01*
X183100883Y-193650471D02*
X183172312Y-193721900D01*
X183172312Y-193721900D02*
X183100883Y-193793328D01*
X183100883Y-193793328D02*
X183029455Y-193721900D01*
X183029455Y-193721900D02*
X183100883Y-193650471D01*
X183100883Y-193650471D02*
X183100883Y-193793328D01*
X183100883Y-192864757D02*
X183172312Y-192936185D01*
X183172312Y-192936185D02*
X183100883Y-193007614D01*
X183100883Y-193007614D02*
X183029455Y-192936185D01*
X183029455Y-192936185D02*
X183100883Y-192864757D01*
X183100883Y-192864757D02*
X183100883Y-193007614D01*
X184886598Y-193364757D02*
X185600884Y-193364757D01*
X184743741Y-193793328D02*
X185243741Y-192293328D01*
X185243741Y-192293328D02*
X185743741Y-193793328D01*
X186886598Y-192793328D02*
X186886598Y-193793328D01*
X186529455Y-192221900D02*
X186172312Y-193293328D01*
X186172312Y-193293328D02*
X187100883Y-193293328D01*
D10*
D11*
X263458026Y-196593328D02*
X263458026Y-195093328D01*
X264815170Y-196593328D02*
X264815170Y-195093328D01*
X264815170Y-196521900D02*
X264672312Y-196593328D01*
X264672312Y-196593328D02*
X264386598Y-196593328D01*
X264386598Y-196593328D02*
X264243741Y-196521900D01*
X264243741Y-196521900D02*
X264172312Y-196450471D01*
X264172312Y-196450471D02*
X264100884Y-196307614D01*
X264100884Y-196307614D02*
X264100884Y-195879042D01*
X264100884Y-195879042D02*
X264172312Y-195736185D01*
X264172312Y-195736185D02*
X264243741Y-195664757D01*
X264243741Y-195664757D02*
X264386598Y-195593328D01*
X264386598Y-195593328D02*
X264672312Y-195593328D01*
X264672312Y-195593328D02*
X264815170Y-195664757D01*
X265529455Y-196450471D02*
X265600884Y-196521900D01*
X265600884Y-196521900D02*
X265529455Y-196593328D01*
X265529455Y-196593328D02*
X265458027Y-196521900D01*
X265458027Y-196521900D02*
X265529455Y-196450471D01*
X265529455Y-196450471D02*
X265529455Y-196593328D01*
X265529455Y-195664757D02*
X265600884Y-195736185D01*
X265600884Y-195736185D02*
X265529455Y-195807614D01*
X265529455Y-195807614D02*
X265458027Y-195736185D01*
X265458027Y-195736185D02*
X265529455Y-195664757D01*
X265529455Y-195664757D02*
X265529455Y-195807614D01*
X268172313Y-196593328D02*
X267315170Y-196593328D01*
X267743741Y-196593328D02*
X267743741Y-195093328D01*
X267743741Y-195093328D02*
X267600884Y-195307614D01*
X267600884Y-195307614D02*
X267458027Y-195450471D01*
X267458027Y-195450471D02*
X267315170Y-195521900D01*
X269886598Y-195021900D02*
X268600884Y-196950471D01*
X271172313Y-196593328D02*
X270315170Y-196593328D01*
X270743741Y-196593328D02*
X270743741Y-195093328D01*
X270743741Y-195093328D02*
X270600884Y-195307614D01*
X270600884Y-195307614D02*
X270458027Y-195450471D01*
X270458027Y-195450471D02*
X270315170Y-195521900D01*
D10*
D11*
X177002200Y-187507200D02*
X285002200Y-187507200D01*
D10*
D13*
X178693928Y-188211638D02*
X179836785Y-188211638D01*
X179015357Y-190211638D02*
X179265357Y-188211638D01*
X180253452Y-190211638D02*
X180420119Y-188878304D01*
X180503452Y-188211638D02*
X180396309Y-188306876D01*
X180396309Y-188306876D02*
X180479643Y-188402114D01*
X180479643Y-188402114D02*
X180586786Y-188306876D01*
X180586786Y-188306876D02*
X180503452Y-188211638D01*
X180503452Y-188211638D02*
X180479643Y-188402114D01*
X181086786Y-188878304D02*
X181848690Y-188878304D01*
X181455833Y-188211638D02*
X181241548Y-189925923D01*
X181241548Y-189925923D02*
X181312976Y-190116400D01*
X181312976Y-190116400D02*
X181491548Y-190211638D01*
X181491548Y-190211638D02*
X181682024Y-190211638D01*
X182634405Y-190211638D02*
X182455833Y-190116400D01*
X182455833Y-190116400D02*
X182384405Y-189925923D01*
X182384405Y-189925923D02*
X182598690Y-188211638D01*
X184170119Y-190116400D02*
X183967738Y-190211638D01*
X183967738Y-190211638D02*
X183586785Y-190211638D01*
X183586785Y-190211638D02*
X183408214Y-190116400D01*
X183408214Y-190116400D02*
X183336785Y-189925923D01*
X183336785Y-189925923D02*
X183432024Y-189164019D01*
X183432024Y-189164019D02*
X183551071Y-188973542D01*
X183551071Y-188973542D02*
X183753452Y-188878304D01*
X183753452Y-188878304D02*
X184134404Y-188878304D01*
X184134404Y-188878304D02*
X184312976Y-188973542D01*
X184312976Y-188973542D02*
X184384404Y-189164019D01*
X184384404Y-189164019D02*
X184360595Y-189354495D01*
X184360595Y-189354495D02*
X183384404Y-189544971D01*
X185134405Y-190021161D02*
X185217738Y-190116400D01*
X185217738Y-190116400D02*
X185110595Y-190211638D01*
X185110595Y-190211638D02*
X185027262Y-190116400D01*
X185027262Y-190116400D02*
X185134405Y-190021161D01*
X185134405Y-190021161D02*
X185110595Y-190211638D01*
X185265357Y-188973542D02*
X185348690Y-189068780D01*
X185348690Y-189068780D02*
X185241548Y-189164019D01*
X185241548Y-189164019D02*
X185158214Y-189068780D01*
X185158214Y-189068780D02*
X185265357Y-188973542D01*
X185265357Y-188973542D02*
X185241548Y-189164019D01*
D10*
D11*
X178958026Y-185607614D02*
X178458026Y-185607614D01*
X178458026Y-186393328D02*
X178458026Y-184893328D01*
X178458026Y-184893328D02*
X179172312Y-184893328D01*
X179743740Y-186393328D02*
X179743740Y-185393328D01*
X179743740Y-184893328D02*
X179672312Y-184964757D01*
X179672312Y-184964757D02*
X179743740Y-185036185D01*
X179743740Y-185036185D02*
X179815169Y-184964757D01*
X179815169Y-184964757D02*
X179743740Y-184893328D01*
X179743740Y-184893328D02*
X179743740Y-185036185D01*
X180672312Y-186393328D02*
X180529455Y-186321900D01*
X180529455Y-186321900D02*
X180458026Y-186179042D01*
X180458026Y-186179042D02*
X180458026Y-184893328D01*
X181815169Y-186321900D02*
X181672312Y-186393328D01*
X181672312Y-186393328D02*
X181386598Y-186393328D01*
X181386598Y-186393328D02*
X181243740Y-186321900D01*
X181243740Y-186321900D02*
X181172312Y-186179042D01*
X181172312Y-186179042D02*
X181172312Y-185607614D01*
X181172312Y-185607614D02*
X181243740Y-185464757D01*
X181243740Y-185464757D02*
X181386598Y-185393328D01*
X181386598Y-185393328D02*
X181672312Y-185393328D01*
X181672312Y-185393328D02*
X181815169Y-185464757D01*
X181815169Y-185464757D02*
X181886598Y-185607614D01*
X181886598Y-185607614D02*
X181886598Y-185750471D01*
X181886598Y-185750471D02*
X181172312Y-185893328D01*
X182529454Y-186250471D02*
X182600883Y-186321900D01*
X182600883Y-186321900D02*
X182529454Y-186393328D01*
X182529454Y-186393328D02*
X182458026Y-186321900D01*
X182458026Y-186321900D02*
X182529454Y-186250471D01*
X182529454Y-186250471D02*
X182529454Y-186393328D01*
X182529454Y-185464757D02*
X182600883Y-185536185D01*
X182600883Y-185536185D02*
X182529454Y-185607614D01*
X182529454Y-185607614D02*
X182458026Y-185536185D01*
X182458026Y-185536185D02*
X182529454Y-185464757D01*
X182529454Y-185464757D02*
X182529454Y-185607614D01*
X184386597Y-186393328D02*
X184386597Y-184893328D01*
X184386597Y-184893328D02*
X184958026Y-184893328D01*
X184958026Y-184893328D02*
X185100883Y-184964757D01*
X185100883Y-184964757D02*
X185172312Y-185036185D01*
X185172312Y-185036185D02*
X185243740Y-185179042D01*
X185243740Y-185179042D02*
X185243740Y-185393328D01*
X185243740Y-185393328D02*
X185172312Y-185536185D01*
X185172312Y-185536185D02*
X185100883Y-185607614D01*
X185100883Y-185607614D02*
X184958026Y-185679042D01*
X184958026Y-185679042D02*
X184386597Y-185679042D01*
X185886597Y-186393328D02*
X185886597Y-184893328D01*
X185886597Y-184893328D02*
X186386597Y-185964757D01*
X186386597Y-185964757D02*
X186886597Y-184893328D01*
X186886597Y-184893328D02*
X186886597Y-186393328D01*
X187458026Y-184893328D02*
X187815169Y-186393328D01*
X187815169Y-186393328D02*
X188100883Y-185321900D01*
X188100883Y-185321900D02*
X188386598Y-186393328D01*
X188386598Y-186393328D02*
X188743741Y-184893328D01*
X189172312Y-184893328D02*
X190100884Y-184893328D01*
X190100884Y-184893328D02*
X189600884Y-185464757D01*
X189600884Y-185464757D02*
X189815169Y-185464757D01*
X189815169Y-185464757D02*
X189958027Y-185536185D01*
X189958027Y-185536185D02*
X190029455Y-185607614D01*
X190029455Y-185607614D02*
X190100884Y-185750471D01*
X190100884Y-185750471D02*
X190100884Y-186107614D01*
X190100884Y-186107614D02*
X190029455Y-186250471D01*
X190029455Y-186250471D02*
X189958027Y-186321900D01*
X189958027Y-186321900D02*
X189815169Y-186393328D01*
X189815169Y-186393328D02*
X189386598Y-186393328D01*
X189386598Y-186393328D02*
X189243741Y-186321900D01*
X189243741Y-186321900D02*
X189172312Y-186250471D01*
X190600883Y-184893328D02*
X191529455Y-184893328D01*
X191529455Y-184893328D02*
X191029455Y-185464757D01*
X191029455Y-185464757D02*
X191243740Y-185464757D01*
X191243740Y-185464757D02*
X191386598Y-185536185D01*
X191386598Y-185536185D02*
X191458026Y-185607614D01*
X191458026Y-185607614D02*
X191529455Y-185750471D01*
X191529455Y-185750471D02*
X191529455Y-186107614D01*
X191529455Y-186107614D02*
X191458026Y-186250471D01*
X191458026Y-186250471D02*
X191386598Y-186321900D01*
X191386598Y-186321900D02*
X191243740Y-186393328D01*
X191243740Y-186393328D02*
X190815169Y-186393328D01*
X190815169Y-186393328D02*
X190672312Y-186321900D01*
X190672312Y-186321900D02*
X190600883Y-186250471D01*
X192815169Y-184893328D02*
X192529454Y-184893328D01*
X192529454Y-184893328D02*
X192386597Y-184964757D01*
X192386597Y-184964757D02*
X192315169Y-185036185D01*
X192315169Y-185036185D02*
X192172311Y-185250471D01*
X192172311Y-185250471D02*
X192100883Y-185536185D01*
X192100883Y-185536185D02*
X192100883Y-186107614D01*
X192100883Y-186107614D02*
X192172311Y-186250471D01*
X192172311Y-186250471D02*
X192243740Y-186321900D01*
X192243740Y-186321900D02*
X192386597Y-186393328D01*
X192386597Y-186393328D02*
X192672311Y-186393328D01*
X192672311Y-186393328D02*
X192815169Y-186321900D01*
X192815169Y-186321900D02*
X192886597Y-186250471D01*
X192886597Y-186250471D02*
X192958026Y-186107614D01*
X192958026Y-186107614D02*
X192958026Y-185750471D01*
X192958026Y-185750471D02*
X192886597Y-185607614D01*
X192886597Y-185607614D02*
X192815169Y-185536185D01*
X192815169Y-185536185D02*
X192672311Y-185464757D01*
X192672311Y-185464757D02*
X192386597Y-185464757D01*
X192386597Y-185464757D02*
X192243740Y-185536185D01*
X192243740Y-185536185D02*
X192172311Y-185607614D01*
X192172311Y-185607614D02*
X192100883Y-185750471D01*
X193886597Y-184893328D02*
X194029454Y-184893328D01*
X194029454Y-184893328D02*
X194172311Y-184964757D01*
X194172311Y-184964757D02*
X194243740Y-185036185D01*
X194243740Y-185036185D02*
X194315168Y-185179042D01*
X194315168Y-185179042D02*
X194386597Y-185464757D01*
X194386597Y-185464757D02*
X194386597Y-185821900D01*
X194386597Y-185821900D02*
X194315168Y-186107614D01*
X194315168Y-186107614D02*
X194243740Y-186250471D01*
X194243740Y-186250471D02*
X194172311Y-186321900D01*
X194172311Y-186321900D02*
X194029454Y-186393328D01*
X194029454Y-186393328D02*
X193886597Y-186393328D01*
X193886597Y-186393328D02*
X193743740Y-186321900D01*
X193743740Y-186321900D02*
X193672311Y-186250471D01*
X193672311Y-186250471D02*
X193600882Y-186107614D01*
X193600882Y-186107614D02*
X193529454Y-185821900D01*
X193529454Y-185821900D02*
X193529454Y-185464757D01*
X193529454Y-185464757D02*
X193600882Y-185179042D01*
X193600882Y-185179042D02*
X193672311Y-185036185D01*
X193672311Y-185036185D02*
X193743740Y-184964757D01*
X193743740Y-184964757D02*
X193886597Y-184893328D01*
X195029453Y-186250471D02*
X195100882Y-186321900D01*
X195100882Y-186321900D02*
X195029453Y-186393328D01*
X195029453Y-186393328D02*
X194958025Y-186321900D01*
X194958025Y-186321900D02*
X195029453Y-186250471D01*
X195029453Y-186250471D02*
X195029453Y-186393328D01*
X195743739Y-186393328D02*
X195743739Y-184893328D01*
X195886597Y-185821900D02*
X196315168Y-186393328D01*
X196315168Y-185393328D02*
X195743739Y-185964757D01*
X196958025Y-186393328D02*
X196958025Y-185393328D01*
X196958025Y-184893328D02*
X196886597Y-184964757D01*
X196886597Y-184964757D02*
X196958025Y-185036185D01*
X196958025Y-185036185D02*
X197029454Y-184964757D01*
X197029454Y-184964757D02*
X196958025Y-184893328D01*
X196958025Y-184893328D02*
X196958025Y-185036185D01*
X198315169Y-186321900D02*
X198172311Y-186393328D01*
X198172311Y-186393328D02*
X197886597Y-186393328D01*
X197886597Y-186393328D02*
X197743740Y-186321900D01*
X197743740Y-186321900D02*
X197672311Y-186250471D01*
X197672311Y-186250471D02*
X197600883Y-186107614D01*
X197600883Y-186107614D02*
X197600883Y-185679042D01*
X197600883Y-185679042D02*
X197672311Y-185536185D01*
X197672311Y-185536185D02*
X197743740Y-185464757D01*
X197743740Y-185464757D02*
X197886597Y-185393328D01*
X197886597Y-185393328D02*
X198172311Y-185393328D01*
X198172311Y-185393328D02*
X198315169Y-185464757D01*
X199600883Y-186393328D02*
X199600883Y-185607614D01*
X199600883Y-185607614D02*
X199529454Y-185464757D01*
X199529454Y-185464757D02*
X199386597Y-185393328D01*
X199386597Y-185393328D02*
X199100883Y-185393328D01*
X199100883Y-185393328D02*
X198958025Y-185464757D01*
X199600883Y-186321900D02*
X199458025Y-186393328D01*
X199458025Y-186393328D02*
X199100883Y-186393328D01*
X199100883Y-186393328D02*
X198958025Y-186321900D01*
X198958025Y-186321900D02*
X198886597Y-186179042D01*
X198886597Y-186179042D02*
X198886597Y-186036185D01*
X198886597Y-186036185D02*
X198958025Y-185893328D01*
X198958025Y-185893328D02*
X199100883Y-185821900D01*
X199100883Y-185821900D02*
X199458025Y-185821900D01*
X199458025Y-185821900D02*
X199600883Y-185750471D01*
X200958026Y-186393328D02*
X200958026Y-184893328D01*
X200958026Y-186321900D02*
X200815168Y-186393328D01*
X200815168Y-186393328D02*
X200529454Y-186393328D01*
X200529454Y-186393328D02*
X200386597Y-186321900D01*
X200386597Y-186321900D02*
X200315168Y-186250471D01*
X200315168Y-186250471D02*
X200243740Y-186107614D01*
X200243740Y-186107614D02*
X200243740Y-185679042D01*
X200243740Y-185679042D02*
X200315168Y-185536185D01*
X200315168Y-185536185D02*
X200386597Y-185464757D01*
X200386597Y-185464757D02*
X200529454Y-185393328D01*
X200529454Y-185393328D02*
X200815168Y-185393328D01*
X200815168Y-185393328D02*
X200958026Y-185464757D01*
X201315169Y-186536185D02*
X202458026Y-186536185D01*
X202815168Y-185393328D02*
X202815168Y-186893328D01*
X202815168Y-185464757D02*
X202958026Y-185393328D01*
X202958026Y-185393328D02*
X203243740Y-185393328D01*
X203243740Y-185393328D02*
X203386597Y-185464757D01*
X203386597Y-185464757D02*
X203458026Y-185536185D01*
X203458026Y-185536185D02*
X203529454Y-185679042D01*
X203529454Y-185679042D02*
X203529454Y-186107614D01*
X203529454Y-186107614D02*
X203458026Y-186250471D01*
X203458026Y-186250471D02*
X203386597Y-186321900D01*
X203386597Y-186321900D02*
X203243740Y-186393328D01*
X203243740Y-186393328D02*
X202958026Y-186393328D01*
X202958026Y-186393328D02*
X202815168Y-186321900D01*
X204815169Y-186321900D02*
X204672311Y-186393328D01*
X204672311Y-186393328D02*
X204386597Y-186393328D01*
X204386597Y-186393328D02*
X204243740Y-186321900D01*
X204243740Y-186321900D02*
X204172311Y-186250471D01*
X204172311Y-186250471D02*
X204100883Y-186107614D01*
X204100883Y-186107614D02*
X204100883Y-185679042D01*
X204100883Y-185679042D02*
X204172311Y-185536185D01*
X204172311Y-185536185D02*
X204243740Y-185464757D01*
X204243740Y-185464757D02*
X204386597Y-185393328D01*
X204386597Y-185393328D02*
X204672311Y-185393328D01*
X204672311Y-185393328D02*
X204815169Y-185464757D01*
X205458025Y-186393328D02*
X205458025Y-184893328D01*
X205458025Y-185464757D02*
X205600883Y-185393328D01*
X205600883Y-185393328D02*
X205886597Y-185393328D01*
X205886597Y-185393328D02*
X206029454Y-185464757D01*
X206029454Y-185464757D02*
X206100883Y-185536185D01*
X206100883Y-185536185D02*
X206172311Y-185679042D01*
X206172311Y-185679042D02*
X206172311Y-186107614D01*
X206172311Y-186107614D02*
X206100883Y-186250471D01*
X206100883Y-186250471D02*
X206029454Y-186321900D01*
X206029454Y-186321900D02*
X205886597Y-186393328D01*
X205886597Y-186393328D02*
X205600883Y-186393328D01*
X205600883Y-186393328D02*
X205458025Y-186321900D01*
D10*
D11*
X177002200Y-181507200D02*
X285002200Y-181507200D01*
D10*
D11*
X178386598Y-183621900D02*
X178600884Y-183693328D01*
X178600884Y-183693328D02*
X178958026Y-183693328D01*
X178958026Y-183693328D02*
X179100884Y-183621900D01*
X179100884Y-183621900D02*
X179172312Y-183550471D01*
X179172312Y-183550471D02*
X179243741Y-183407614D01*
X179243741Y-183407614D02*
X179243741Y-183264757D01*
X179243741Y-183264757D02*
X179172312Y-183121900D01*
X179172312Y-183121900D02*
X179100884Y-183050471D01*
X179100884Y-183050471D02*
X178958026Y-182979042D01*
X178958026Y-182979042D02*
X178672312Y-182907614D01*
X178672312Y-182907614D02*
X178529455Y-182836185D01*
X178529455Y-182836185D02*
X178458026Y-182764757D01*
X178458026Y-182764757D02*
X178386598Y-182621900D01*
X178386598Y-182621900D02*
X178386598Y-182479042D01*
X178386598Y-182479042D02*
X178458026Y-182336185D01*
X178458026Y-182336185D02*
X178529455Y-182264757D01*
X178529455Y-182264757D02*
X178672312Y-182193328D01*
X178672312Y-182193328D02*
X179029455Y-182193328D01*
X179029455Y-182193328D02*
X179243741Y-182264757D01*
X179886597Y-183693328D02*
X179886597Y-182193328D01*
X180529455Y-183693328D02*
X180529455Y-182907614D01*
X180529455Y-182907614D02*
X180458026Y-182764757D01*
X180458026Y-182764757D02*
X180315169Y-182693328D01*
X180315169Y-182693328D02*
X180100883Y-182693328D01*
X180100883Y-182693328D02*
X179958026Y-182764757D01*
X179958026Y-182764757D02*
X179886597Y-182836185D01*
X181815169Y-183621900D02*
X181672312Y-183693328D01*
X181672312Y-183693328D02*
X181386598Y-183693328D01*
X181386598Y-183693328D02*
X181243740Y-183621900D01*
X181243740Y-183621900D02*
X181172312Y-183479042D01*
X181172312Y-183479042D02*
X181172312Y-182907614D01*
X181172312Y-182907614D02*
X181243740Y-182764757D01*
X181243740Y-182764757D02*
X181386598Y-182693328D01*
X181386598Y-182693328D02*
X181672312Y-182693328D01*
X181672312Y-182693328D02*
X181815169Y-182764757D01*
X181815169Y-182764757D02*
X181886598Y-182907614D01*
X181886598Y-182907614D02*
X181886598Y-183050471D01*
X181886598Y-183050471D02*
X181172312Y-183193328D01*
X183100883Y-183621900D02*
X182958026Y-183693328D01*
X182958026Y-183693328D02*
X182672312Y-183693328D01*
X182672312Y-183693328D02*
X182529454Y-183621900D01*
X182529454Y-183621900D02*
X182458026Y-183479042D01*
X182458026Y-183479042D02*
X182458026Y-182907614D01*
X182458026Y-182907614D02*
X182529454Y-182764757D01*
X182529454Y-182764757D02*
X182672312Y-182693328D01*
X182672312Y-182693328D02*
X182958026Y-182693328D01*
X182958026Y-182693328D02*
X183100883Y-182764757D01*
X183100883Y-182764757D02*
X183172312Y-182907614D01*
X183172312Y-182907614D02*
X183172312Y-183050471D01*
X183172312Y-183050471D02*
X182458026Y-183193328D01*
X183600883Y-182693328D02*
X184172311Y-182693328D01*
X183815168Y-182193328D02*
X183815168Y-183479042D01*
X183815168Y-183479042D02*
X183886597Y-183621900D01*
X183886597Y-183621900D02*
X184029454Y-183693328D01*
X184029454Y-183693328D02*
X184172311Y-183693328D01*
X184672311Y-183550471D02*
X184743740Y-183621900D01*
X184743740Y-183621900D02*
X184672311Y-183693328D01*
X184672311Y-183693328D02*
X184600883Y-183621900D01*
X184600883Y-183621900D02*
X184672311Y-183550471D01*
X184672311Y-183550471D02*
X184672311Y-183693328D01*
X184672311Y-182764757D02*
X184743740Y-182836185D01*
X184743740Y-182836185D02*
X184672311Y-182907614D01*
X184672311Y-182907614D02*
X184600883Y-182836185D01*
X184600883Y-182836185D02*
X184672311Y-182764757D01*
X184672311Y-182764757D02*
X184672311Y-182907614D01*
D10*
D11*
X197002200Y-191507200D02*
X197002200Y-194507200D01*
D10*
D11*
X261002200Y-191507200D02*
X261002200Y-198007200D01*
X140359875Y-98338571D02*
X139359875Y-98338571D01*
X140359875Y-98767142D02*
X139836065Y-98767142D01*
X139836065Y-98767142D02*
X139740827Y-98719523D01*
X139740827Y-98719523D02*
X139693208Y-98624285D01*
X139693208Y-98624285D02*
X139693208Y-98481428D01*
X139693208Y-98481428D02*
X139740827Y-98386190D01*
X139740827Y-98386190D02*
X139788446Y-98338571D01*
X139693208Y-99100476D02*
X139693208Y-99481428D01*
X139359875Y-99243333D02*
X140217017Y-99243333D01*
X140217017Y-99243333D02*
X140312256Y-99290952D01*
X140312256Y-99290952D02*
X140359875Y-99386190D01*
X140359875Y-99386190D02*
X140359875Y-99481428D01*
X139693208Y-99671905D02*
X139693208Y-100052857D01*
X139359875Y-99814762D02*
X140217017Y-99814762D01*
X140217017Y-99814762D02*
X140312256Y-99862381D01*
X140312256Y-99862381D02*
X140359875Y-99957619D01*
X140359875Y-99957619D02*
X140359875Y-100052857D01*
X139693208Y-100386191D02*
X140693208Y-100386191D01*
X139740827Y-100386191D02*
X139693208Y-100481429D01*
X139693208Y-100481429D02*
X139693208Y-100671905D01*
X139693208Y-100671905D02*
X139740827Y-100767143D01*
X139740827Y-100767143D02*
X139788446Y-100814762D01*
X139788446Y-100814762D02*
X139883684Y-100862381D01*
X139883684Y-100862381D02*
X140169398Y-100862381D01*
X140169398Y-100862381D02*
X140264636Y-100814762D01*
X140264636Y-100814762D02*
X140312256Y-100767143D01*
X140312256Y-100767143D02*
X140359875Y-100671905D01*
X140359875Y-100671905D02*
X140359875Y-100481429D01*
X140359875Y-100481429D02*
X140312256Y-100386191D01*
X140312256Y-101243334D02*
X140359875Y-101338572D01*
X140359875Y-101338572D02*
X140359875Y-101529048D01*
X140359875Y-101529048D02*
X140312256Y-101624286D01*
X140312256Y-101624286D02*
X140217017Y-101671905D01*
X140217017Y-101671905D02*
X140169398Y-101671905D01*
X140169398Y-101671905D02*
X140074160Y-101624286D01*
X140074160Y-101624286D02*
X140026541Y-101529048D01*
X140026541Y-101529048D02*
X140026541Y-101386191D01*
X140026541Y-101386191D02*
X139978922Y-101290953D01*
X139978922Y-101290953D02*
X139883684Y-101243334D01*
X139883684Y-101243334D02*
X139836065Y-101243334D01*
X139836065Y-101243334D02*
X139740827Y-101290953D01*
X139740827Y-101290953D02*
X139693208Y-101386191D01*
X139693208Y-101386191D02*
X139693208Y-101529048D01*
X139693208Y-101529048D02*
X139740827Y-101624286D01*
X140264636Y-102100477D02*
X140312256Y-102148096D01*
X140312256Y-102148096D02*
X140359875Y-102100477D01*
X140359875Y-102100477D02*
X140312256Y-102052858D01*
X140312256Y-102052858D02*
X140264636Y-102100477D01*
X140264636Y-102100477D02*
X140359875Y-102100477D01*
X139740827Y-102100477D02*
X139788446Y-102148096D01*
X139788446Y-102148096D02*
X139836065Y-102100477D01*
X139836065Y-102100477D02*
X139788446Y-102052858D01*
X139788446Y-102052858D02*
X139740827Y-102100477D01*
X139740827Y-102100477D02*
X139836065Y-102100477D01*
X139312256Y-103290952D02*
X140597970Y-102433810D01*
X139312256Y-104338571D02*
X140597970Y-103481429D01*
X139693208Y-105100476D02*
X140502732Y-105100476D01*
X140502732Y-105100476D02*
X140597970Y-105052857D01*
X140597970Y-105052857D02*
X140645589Y-105005238D01*
X140645589Y-105005238D02*
X140693208Y-104910000D01*
X140693208Y-104910000D02*
X140693208Y-104767143D01*
X140693208Y-104767143D02*
X140645589Y-104671905D01*
X140312256Y-105100476D02*
X140359875Y-105005238D01*
X140359875Y-105005238D02*
X140359875Y-104814762D01*
X140359875Y-104814762D02*
X140312256Y-104719524D01*
X140312256Y-104719524D02*
X140264636Y-104671905D01*
X140264636Y-104671905D02*
X140169398Y-104624286D01*
X140169398Y-104624286D02*
X139883684Y-104624286D01*
X139883684Y-104624286D02*
X139788446Y-104671905D01*
X139788446Y-104671905D02*
X139740827Y-104719524D01*
X139740827Y-104719524D02*
X139693208Y-104814762D01*
X139693208Y-104814762D02*
X139693208Y-105005238D01*
X139693208Y-105005238D02*
X139740827Y-105100476D01*
X140359875Y-105576667D02*
X139693208Y-105576667D01*
X139359875Y-105576667D02*
X139407494Y-105529048D01*
X139407494Y-105529048D02*
X139455113Y-105576667D01*
X139455113Y-105576667D02*
X139407494Y-105624286D01*
X139407494Y-105624286D02*
X139359875Y-105576667D01*
X139359875Y-105576667D02*
X139455113Y-105576667D01*
X139693208Y-105910000D02*
X139693208Y-106290952D01*
X139359875Y-106052857D02*
X140217017Y-106052857D01*
X140217017Y-106052857D02*
X140312256Y-106100476D01*
X140312256Y-106100476D02*
X140359875Y-106195714D01*
X140359875Y-106195714D02*
X140359875Y-106290952D01*
X140359875Y-106624286D02*
X139359875Y-106624286D01*
X140359875Y-107052857D02*
X139836065Y-107052857D01*
X139836065Y-107052857D02*
X139740827Y-107005238D01*
X139740827Y-107005238D02*
X139693208Y-106910000D01*
X139693208Y-106910000D02*
X139693208Y-106767143D01*
X139693208Y-106767143D02*
X139740827Y-106671905D01*
X139740827Y-106671905D02*
X139788446Y-106624286D01*
X139693208Y-107957619D02*
X140359875Y-107957619D01*
X139693208Y-107529048D02*
X140217017Y-107529048D01*
X140217017Y-107529048D02*
X140312256Y-107576667D01*
X140312256Y-107576667D02*
X140359875Y-107671905D01*
X140359875Y-107671905D02*
X140359875Y-107814762D01*
X140359875Y-107814762D02*
X140312256Y-107910000D01*
X140312256Y-107910000D02*
X140264636Y-107957619D01*
X140359875Y-108433810D02*
X139359875Y-108433810D01*
X139740827Y-108433810D02*
X139693208Y-108529048D01*
X139693208Y-108529048D02*
X139693208Y-108719524D01*
X139693208Y-108719524D02*
X139740827Y-108814762D01*
X139740827Y-108814762D02*
X139788446Y-108862381D01*
X139788446Y-108862381D02*
X139883684Y-108910000D01*
X139883684Y-108910000D02*
X140169398Y-108910000D01*
X140169398Y-108910000D02*
X140264636Y-108862381D01*
X140264636Y-108862381D02*
X140312256Y-108814762D01*
X140312256Y-108814762D02*
X140359875Y-108719524D01*
X140359875Y-108719524D02*
X140359875Y-108529048D01*
X140359875Y-108529048D02*
X140312256Y-108433810D01*
X140264636Y-109338572D02*
X140312256Y-109386191D01*
X140312256Y-109386191D02*
X140359875Y-109338572D01*
X140359875Y-109338572D02*
X140312256Y-109290953D01*
X140312256Y-109290953D02*
X140264636Y-109338572D01*
X140264636Y-109338572D02*
X140359875Y-109338572D01*
X140312256Y-110243333D02*
X140359875Y-110148095D01*
X140359875Y-110148095D02*
X140359875Y-109957619D01*
X140359875Y-109957619D02*
X140312256Y-109862381D01*
X140312256Y-109862381D02*
X140264636Y-109814762D01*
X140264636Y-109814762D02*
X140169398Y-109767143D01*
X140169398Y-109767143D02*
X139883684Y-109767143D01*
X139883684Y-109767143D02*
X139788446Y-109814762D01*
X139788446Y-109814762D02*
X139740827Y-109862381D01*
X139740827Y-109862381D02*
X139693208Y-109957619D01*
X139693208Y-109957619D02*
X139693208Y-110148095D01*
X139693208Y-110148095D02*
X139740827Y-110243333D01*
X140359875Y-110814762D02*
X140312256Y-110719524D01*
X140312256Y-110719524D02*
X140264636Y-110671905D01*
X140264636Y-110671905D02*
X140169398Y-110624286D01*
X140169398Y-110624286D02*
X139883684Y-110624286D01*
X139883684Y-110624286D02*
X139788446Y-110671905D01*
X139788446Y-110671905D02*
X139740827Y-110719524D01*
X139740827Y-110719524D02*
X139693208Y-110814762D01*
X139693208Y-110814762D02*
X139693208Y-110957619D01*
X139693208Y-110957619D02*
X139740827Y-111052857D01*
X139740827Y-111052857D02*
X139788446Y-111100476D01*
X139788446Y-111100476D02*
X139883684Y-111148095D01*
X139883684Y-111148095D02*
X140169398Y-111148095D01*
X140169398Y-111148095D02*
X140264636Y-111100476D01*
X140264636Y-111100476D02*
X140312256Y-111052857D01*
X140312256Y-111052857D02*
X140359875Y-110957619D01*
X140359875Y-110957619D02*
X140359875Y-110814762D01*
X140359875Y-111576667D02*
X139693208Y-111576667D01*
X139788446Y-111576667D02*
X139740827Y-111624286D01*
X139740827Y-111624286D02*
X139693208Y-111719524D01*
X139693208Y-111719524D02*
X139693208Y-111862381D01*
X139693208Y-111862381D02*
X139740827Y-111957619D01*
X139740827Y-111957619D02*
X139836065Y-112005238D01*
X139836065Y-112005238D02*
X140359875Y-112005238D01*
X139836065Y-112005238D02*
X139740827Y-112052857D01*
X139740827Y-112052857D02*
X139693208Y-112148095D01*
X139693208Y-112148095D02*
X139693208Y-112290952D01*
X139693208Y-112290952D02*
X139740827Y-112386191D01*
X139740827Y-112386191D02*
X139836065Y-112433810D01*
X139836065Y-112433810D02*
X140359875Y-112433810D01*
X139312256Y-113624285D02*
X140597970Y-112767143D01*
X141969819Y-92409999D02*
X141303152Y-92409999D01*
X141398390Y-92409999D02*
X141350771Y-92457618D01*
X141350771Y-92457618D02*
X141303152Y-92552856D01*
X141303152Y-92552856D02*
X141303152Y-92695713D01*
X141303152Y-92695713D02*
X141350771Y-92790951D01*
X141350771Y-92790951D02*
X141446009Y-92838570D01*
X141446009Y-92838570D02*
X141969819Y-92838570D01*
X141446009Y-92838570D02*
X141350771Y-92886189D01*
X141350771Y-92886189D02*
X141303152Y-92981427D01*
X141303152Y-92981427D02*
X141303152Y-93124284D01*
X141303152Y-93124284D02*
X141350771Y-93219523D01*
X141350771Y-93219523D02*
X141446009Y-93267142D01*
X141446009Y-93267142D02*
X141969819Y-93267142D01*
X141969819Y-93886189D02*
X141922200Y-93790951D01*
X141922200Y-93790951D02*
X141874580Y-93743332D01*
X141874580Y-93743332D02*
X141779342Y-93695713D01*
X141779342Y-93695713D02*
X141493628Y-93695713D01*
X141493628Y-93695713D02*
X141398390Y-93743332D01*
X141398390Y-93743332D02*
X141350771Y-93790951D01*
X141350771Y-93790951D02*
X141303152Y-93886189D01*
X141303152Y-93886189D02*
X141303152Y-94029046D01*
X141303152Y-94029046D02*
X141350771Y-94124284D01*
X141350771Y-94124284D02*
X141398390Y-94171903D01*
X141398390Y-94171903D02*
X141493628Y-94219522D01*
X141493628Y-94219522D02*
X141779342Y-94219522D01*
X141779342Y-94219522D02*
X141874580Y-94171903D01*
X141874580Y-94171903D02*
X141922200Y-94124284D01*
X141922200Y-94124284D02*
X141969819Y-94029046D01*
X141969819Y-94029046D02*
X141969819Y-93886189D01*
X141303152Y-94648094D02*
X141969819Y-94648094D01*
X141398390Y-94648094D02*
X141350771Y-94695713D01*
X141350771Y-94695713D02*
X141303152Y-94790951D01*
X141303152Y-94790951D02*
X141303152Y-94933808D01*
X141303152Y-94933808D02*
X141350771Y-95029046D01*
X141350771Y-95029046D02*
X141446009Y-95076665D01*
X141446009Y-95076665D02*
X141969819Y-95076665D01*
X141969819Y-95552856D02*
X141303152Y-95552856D01*
X141493628Y-95552856D02*
X141398390Y-95600475D01*
X141398390Y-95600475D02*
X141350771Y-95648094D01*
X141350771Y-95648094D02*
X141303152Y-95743332D01*
X141303152Y-95743332D02*
X141303152Y-95838570D01*
X141969819Y-96314761D02*
X141922200Y-96219523D01*
X141922200Y-96219523D02*
X141874580Y-96171904D01*
X141874580Y-96171904D02*
X141779342Y-96124285D01*
X141779342Y-96124285D02*
X141493628Y-96124285D01*
X141493628Y-96124285D02*
X141398390Y-96171904D01*
X141398390Y-96171904D02*
X141350771Y-96219523D01*
X141350771Y-96219523D02*
X141303152Y-96314761D01*
X141303152Y-96314761D02*
X141303152Y-96457618D01*
X141303152Y-96457618D02*
X141350771Y-96552856D01*
X141350771Y-96552856D02*
X141398390Y-96600475D01*
X141398390Y-96600475D02*
X141493628Y-96648094D01*
X141493628Y-96648094D02*
X141779342Y-96648094D01*
X141779342Y-96648094D02*
X141874580Y-96600475D01*
X141874580Y-96600475D02*
X141922200Y-96552856D01*
X141922200Y-96552856D02*
X141969819Y-96457618D01*
X141969819Y-96457618D02*
X141969819Y-96314761D01*
X141922200Y-97457618D02*
X141969819Y-97362380D01*
X141969819Y-97362380D02*
X141969819Y-97171904D01*
X141969819Y-97171904D02*
X141922200Y-97076666D01*
X141922200Y-97076666D02*
X141826961Y-97029047D01*
X141826961Y-97029047D02*
X141446009Y-97029047D01*
X141446009Y-97029047D02*
X141350771Y-97076666D01*
X141350771Y-97076666D02*
X141303152Y-97171904D01*
X141303152Y-97171904D02*
X141303152Y-97362380D01*
X141303152Y-97362380D02*
X141350771Y-97457618D01*
X141350771Y-97457618D02*
X141446009Y-97505237D01*
X141446009Y-97505237D02*
X141541247Y-97505237D01*
X141541247Y-97505237D02*
X141636485Y-97029047D01*
X141303152Y-97838571D02*
X141969819Y-98029047D01*
X141969819Y-98029047D02*
X141493628Y-98219523D01*
X141493628Y-98219523D02*
X141969819Y-98409999D01*
X141969819Y-98409999D02*
X141303152Y-98600475D01*
X141969819Y-98981428D02*
X141303152Y-98981428D01*
X140969819Y-98981428D02*
X141017438Y-98933809D01*
X141017438Y-98933809D02*
X141065057Y-98981428D01*
X141065057Y-98981428D02*
X141017438Y-99029047D01*
X141017438Y-99029047D02*
X140969819Y-98981428D01*
X140969819Y-98981428D02*
X141065057Y-98981428D01*
X141969819Y-99600475D02*
X141922200Y-99505237D01*
X141922200Y-99505237D02*
X141826961Y-99457618D01*
X141826961Y-99457618D02*
X140969819Y-99457618D01*
X141969819Y-100124285D02*
X141922200Y-100029047D01*
X141922200Y-100029047D02*
X141826961Y-99981428D01*
X141826961Y-99981428D02*
X140969819Y-99981428D01*
X141969819Y-100505238D02*
X141303152Y-100505238D01*
X140969819Y-100505238D02*
X141017438Y-100457619D01*
X141017438Y-100457619D02*
X141065057Y-100505238D01*
X141065057Y-100505238D02*
X141017438Y-100552857D01*
X141017438Y-100552857D02*
X140969819Y-100505238D01*
X140969819Y-100505238D02*
X141065057Y-100505238D01*
X141969819Y-101409999D02*
X141446009Y-101409999D01*
X141446009Y-101409999D02*
X141350771Y-101362380D01*
X141350771Y-101362380D02*
X141303152Y-101267142D01*
X141303152Y-101267142D02*
X141303152Y-101076666D01*
X141303152Y-101076666D02*
X141350771Y-100981428D01*
X141922200Y-101409999D02*
X141969819Y-101314761D01*
X141969819Y-101314761D02*
X141969819Y-101076666D01*
X141969819Y-101076666D02*
X141922200Y-100981428D01*
X141922200Y-100981428D02*
X141826961Y-100933809D01*
X141826961Y-100933809D02*
X141731723Y-100933809D01*
X141731723Y-100933809D02*
X141636485Y-100981428D01*
X141636485Y-100981428D02*
X141588866Y-101076666D01*
X141588866Y-101076666D02*
X141588866Y-101314761D01*
X141588866Y-101314761D02*
X141541247Y-101409999D01*
X141969819Y-101886190D02*
X141303152Y-101886190D01*
X141398390Y-101886190D02*
X141350771Y-101933809D01*
X141350771Y-101933809D02*
X141303152Y-102029047D01*
X141303152Y-102029047D02*
X141303152Y-102171904D01*
X141303152Y-102171904D02*
X141350771Y-102267142D01*
X141350771Y-102267142D02*
X141446009Y-102314761D01*
X141446009Y-102314761D02*
X141969819Y-102314761D01*
X141446009Y-102314761D02*
X141350771Y-102362380D01*
X141350771Y-102362380D02*
X141303152Y-102457618D01*
X141303152Y-102457618D02*
X141303152Y-102600475D01*
X141303152Y-102600475D02*
X141350771Y-102695714D01*
X141350771Y-102695714D02*
X141446009Y-102743333D01*
X141446009Y-102743333D02*
X141969819Y-102743333D01*
X141922200Y-103171904D02*
X141969819Y-103267142D01*
X141969819Y-103267142D02*
X141969819Y-103457618D01*
X141969819Y-103457618D02*
X141922200Y-103552856D01*
X141922200Y-103552856D02*
X141826961Y-103600475D01*
X141826961Y-103600475D02*
X141779342Y-103600475D01*
X141779342Y-103600475D02*
X141684104Y-103552856D01*
X141684104Y-103552856D02*
X141636485Y-103457618D01*
X141636485Y-103457618D02*
X141636485Y-103314761D01*
X141636485Y-103314761D02*
X141588866Y-103219523D01*
X141588866Y-103219523D02*
X141493628Y-103171904D01*
X141493628Y-103171904D02*
X141446009Y-103171904D01*
X141446009Y-103171904D02*
X141350771Y-103219523D01*
X141350771Y-103219523D02*
X141303152Y-103314761D01*
X141303152Y-103314761D02*
X141303152Y-103457618D01*
X141303152Y-103457618D02*
X141350771Y-103552856D01*
X140922200Y-104743332D02*
X142207914Y-103886190D01*
X141303152Y-105076666D02*
X142303152Y-105076666D01*
X141350771Y-105076666D02*
X141303152Y-105171904D01*
X141303152Y-105171904D02*
X141303152Y-105362380D01*
X141303152Y-105362380D02*
X141350771Y-105457618D01*
X141350771Y-105457618D02*
X141398390Y-105505237D01*
X141398390Y-105505237D02*
X141493628Y-105552856D01*
X141493628Y-105552856D02*
X141779342Y-105552856D01*
X141779342Y-105552856D02*
X141874580Y-105505237D01*
X141874580Y-105505237D02*
X141922200Y-105457618D01*
X141922200Y-105457618D02*
X141969819Y-105362380D01*
X141969819Y-105362380D02*
X141969819Y-105171904D01*
X141969819Y-105171904D02*
X141922200Y-105076666D01*
X141969819Y-105981428D02*
X141303152Y-105981428D01*
X141398390Y-105981428D02*
X141350771Y-106029047D01*
X141350771Y-106029047D02*
X141303152Y-106124285D01*
X141303152Y-106124285D02*
X141303152Y-106267142D01*
X141303152Y-106267142D02*
X141350771Y-106362380D01*
X141350771Y-106362380D02*
X141446009Y-106409999D01*
X141446009Y-106409999D02*
X141969819Y-106409999D01*
X141446009Y-106409999D02*
X141350771Y-106457618D01*
X141350771Y-106457618D02*
X141303152Y-106552856D01*
X141303152Y-106552856D02*
X141303152Y-106695713D01*
X141303152Y-106695713D02*
X141350771Y-106790952D01*
X141350771Y-106790952D02*
X141446009Y-106838571D01*
X141446009Y-106838571D02*
X141969819Y-106838571D01*
X141303152Y-107219523D02*
X141969819Y-107409999D01*
X141969819Y-107409999D02*
X141493628Y-107600475D01*
X141493628Y-107600475D02*
X141969819Y-107790951D01*
X141969819Y-107790951D02*
X141303152Y-107981427D01*
X140969819Y-108267142D02*
X140969819Y-108886189D01*
X140969819Y-108886189D02*
X141350771Y-108552856D01*
X141350771Y-108552856D02*
X141350771Y-108695713D01*
X141350771Y-108695713D02*
X141398390Y-108790951D01*
X141398390Y-108790951D02*
X141446009Y-108838570D01*
X141446009Y-108838570D02*
X141541247Y-108886189D01*
X141541247Y-108886189D02*
X141779342Y-108886189D01*
X141779342Y-108886189D02*
X141874580Y-108838570D01*
X141874580Y-108838570D02*
X141922200Y-108790951D01*
X141922200Y-108790951D02*
X141969819Y-108695713D01*
X141969819Y-108695713D02*
X141969819Y-108409999D01*
X141969819Y-108409999D02*
X141922200Y-108314761D01*
X141922200Y-108314761D02*
X141874580Y-108267142D01*
X140969819Y-109219523D02*
X140969819Y-109838570D01*
X140969819Y-109838570D02*
X141350771Y-109505237D01*
X141350771Y-109505237D02*
X141350771Y-109648094D01*
X141350771Y-109648094D02*
X141398390Y-109743332D01*
X141398390Y-109743332D02*
X141446009Y-109790951D01*
X141446009Y-109790951D02*
X141541247Y-109838570D01*
X141541247Y-109838570D02*
X141779342Y-109838570D01*
X141779342Y-109838570D02*
X141874580Y-109790951D01*
X141874580Y-109790951D02*
X141922200Y-109743332D01*
X141922200Y-109743332D02*
X141969819Y-109648094D01*
X141969819Y-109648094D02*
X141969819Y-109362380D01*
X141969819Y-109362380D02*
X141922200Y-109267142D01*
X141922200Y-109267142D02*
X141874580Y-109219523D01*
X140969819Y-110695713D02*
X140969819Y-110505237D01*
X140969819Y-110505237D02*
X141017438Y-110409999D01*
X141017438Y-110409999D02*
X141065057Y-110362380D01*
X141065057Y-110362380D02*
X141207914Y-110267142D01*
X141207914Y-110267142D02*
X141398390Y-110219523D01*
X141398390Y-110219523D02*
X141779342Y-110219523D01*
X141779342Y-110219523D02*
X141874580Y-110267142D01*
X141874580Y-110267142D02*
X141922200Y-110314761D01*
X141922200Y-110314761D02*
X141969819Y-110409999D01*
X141969819Y-110409999D02*
X141969819Y-110600475D01*
X141969819Y-110600475D02*
X141922200Y-110695713D01*
X141922200Y-110695713D02*
X141874580Y-110743332D01*
X141874580Y-110743332D02*
X141779342Y-110790951D01*
X141779342Y-110790951D02*
X141541247Y-110790951D01*
X141541247Y-110790951D02*
X141446009Y-110743332D01*
X141446009Y-110743332D02*
X141398390Y-110695713D01*
X141398390Y-110695713D02*
X141350771Y-110600475D01*
X141350771Y-110600475D02*
X141350771Y-110409999D01*
X141350771Y-110409999D02*
X141398390Y-110314761D01*
X141398390Y-110314761D02*
X141446009Y-110267142D01*
X141446009Y-110267142D02*
X141541247Y-110219523D01*
X140969819Y-111409999D02*
X140969819Y-111505237D01*
X140969819Y-111505237D02*
X141017438Y-111600475D01*
X141017438Y-111600475D02*
X141065057Y-111648094D01*
X141065057Y-111648094D02*
X141160295Y-111695713D01*
X141160295Y-111695713D02*
X141350771Y-111743332D01*
X141350771Y-111743332D02*
X141588866Y-111743332D01*
X141588866Y-111743332D02*
X141779342Y-111695713D01*
X141779342Y-111695713D02*
X141874580Y-111648094D01*
X141874580Y-111648094D02*
X141922200Y-111600475D01*
X141922200Y-111600475D02*
X141969819Y-111505237D01*
X141969819Y-111505237D02*
X141969819Y-111409999D01*
X141969819Y-111409999D02*
X141922200Y-111314761D01*
X141922200Y-111314761D02*
X141874580Y-111267142D01*
X141874580Y-111267142D02*
X141779342Y-111219523D01*
X141779342Y-111219523D02*
X141588866Y-111171904D01*
X141588866Y-111171904D02*
X141350771Y-111171904D01*
X141350771Y-111171904D02*
X141160295Y-111219523D01*
X141160295Y-111219523D02*
X141065057Y-111267142D01*
X141065057Y-111267142D02*
X141017438Y-111314761D01*
X141017438Y-111314761D02*
X140969819Y-111409999D01*
X141588866Y-112171904D02*
X141588866Y-112933809D01*
X141969819Y-113409999D02*
X140969819Y-113409999D01*
X141350771Y-113409999D02*
X141303152Y-113505237D01*
X141303152Y-113505237D02*
X141303152Y-113695713D01*
X141303152Y-113695713D02*
X141350771Y-113790951D01*
X141350771Y-113790951D02*
X141398390Y-113838570D01*
X141398390Y-113838570D02*
X141493628Y-113886189D01*
X141493628Y-113886189D02*
X141779342Y-113886189D01*
X141779342Y-113886189D02*
X141874580Y-113838570D01*
X141874580Y-113838570D02*
X141922200Y-113790951D01*
X141922200Y-113790951D02*
X141969819Y-113695713D01*
X141969819Y-113695713D02*
X141969819Y-113505237D01*
X141969819Y-113505237D02*
X141922200Y-113409999D01*
X141969819Y-114314761D02*
X141303152Y-114314761D01*
X141493628Y-114314761D02*
X141398390Y-114362380D01*
X141398390Y-114362380D02*
X141350771Y-114409999D01*
X141350771Y-114409999D02*
X141303152Y-114505237D01*
X141303152Y-114505237D02*
X141303152Y-114600475D01*
X141922200Y-115314761D02*
X141969819Y-115219523D01*
X141969819Y-115219523D02*
X141969819Y-115029047D01*
X141969819Y-115029047D02*
X141922200Y-114933809D01*
X141922200Y-114933809D02*
X141826961Y-114886190D01*
X141826961Y-114886190D02*
X141446009Y-114886190D01*
X141446009Y-114886190D02*
X141350771Y-114933809D01*
X141350771Y-114933809D02*
X141303152Y-115029047D01*
X141303152Y-115029047D02*
X141303152Y-115219523D01*
X141303152Y-115219523D02*
X141350771Y-115314761D01*
X141350771Y-115314761D02*
X141446009Y-115362380D01*
X141446009Y-115362380D02*
X141541247Y-115362380D01*
X141541247Y-115362380D02*
X141636485Y-114886190D01*
X141969819Y-116219523D02*
X141446009Y-116219523D01*
X141446009Y-116219523D02*
X141350771Y-116171904D01*
X141350771Y-116171904D02*
X141303152Y-116076666D01*
X141303152Y-116076666D02*
X141303152Y-115886190D01*
X141303152Y-115886190D02*
X141350771Y-115790952D01*
X141922200Y-116219523D02*
X141969819Y-116124285D01*
X141969819Y-116124285D02*
X141969819Y-115886190D01*
X141969819Y-115886190D02*
X141922200Y-115790952D01*
X141922200Y-115790952D02*
X141826961Y-115743333D01*
X141826961Y-115743333D02*
X141731723Y-115743333D01*
X141731723Y-115743333D02*
X141636485Y-115790952D01*
X141636485Y-115790952D02*
X141588866Y-115886190D01*
X141588866Y-115886190D02*
X141588866Y-116124285D01*
X141588866Y-116124285D02*
X141541247Y-116219523D01*
X141969819Y-116695714D02*
X140969819Y-116695714D01*
X141588866Y-116790952D02*
X141969819Y-117076666D01*
X141303152Y-117076666D02*
X141684104Y-116695714D01*
X141969819Y-117648095D02*
X141922200Y-117552857D01*
X141922200Y-117552857D02*
X141874580Y-117505238D01*
X141874580Y-117505238D02*
X141779342Y-117457619D01*
X141779342Y-117457619D02*
X141493628Y-117457619D01*
X141493628Y-117457619D02*
X141398390Y-117505238D01*
X141398390Y-117505238D02*
X141350771Y-117552857D01*
X141350771Y-117552857D02*
X141303152Y-117648095D01*
X141303152Y-117648095D02*
X141303152Y-117790952D01*
X141303152Y-117790952D02*
X141350771Y-117886190D01*
X141350771Y-117886190D02*
X141398390Y-117933809D01*
X141398390Y-117933809D02*
X141493628Y-117981428D01*
X141493628Y-117981428D02*
X141779342Y-117981428D01*
X141779342Y-117981428D02*
X141874580Y-117933809D01*
X141874580Y-117933809D02*
X141922200Y-117886190D01*
X141922200Y-117886190D02*
X141969819Y-117790952D01*
X141969819Y-117790952D02*
X141969819Y-117648095D01*
X141303152Y-118838571D02*
X141969819Y-118838571D01*
X141303152Y-118410000D02*
X141826961Y-118410000D01*
X141826961Y-118410000D02*
X141922200Y-118457619D01*
X141922200Y-118457619D02*
X141969819Y-118552857D01*
X141969819Y-118552857D02*
X141969819Y-118695714D01*
X141969819Y-118695714D02*
X141922200Y-118790952D01*
X141922200Y-118790952D02*
X141874580Y-118838571D01*
X141303152Y-119171905D02*
X141303152Y-119552857D01*
X140969819Y-119314762D02*
X141826961Y-119314762D01*
X141826961Y-119314762D02*
X141922200Y-119362381D01*
X141922200Y-119362381D02*
X141969819Y-119457619D01*
X141969819Y-119457619D02*
X141969819Y-119552857D01*
%LPC*%
D14*
X143650000Y-100250000D03*
D15*
X143650000Y-102030000D03*
X143650000Y-103810000D03*
X143650000Y-105590000D03*
X143650000Y-107370000D03*
X143650000Y-109150000D03*
X143650000Y-110930000D03*
X143650000Y-112710000D03*
X154350000Y-113600000D03*
X154350000Y-111820000D03*
X154350000Y-110040000D03*
X154350000Y-108260000D03*
X154350000Y-106480000D03*
X154350000Y-104700000D03*
X154350000Y-102920000D03*
X154350000Y-101140000D03*
D16*
X149000000Y-117910000D03*
X149000000Y-93910000D03*
%LPD*%
M02*
